<?xml version="1.0" encoding="utf-8"?>
<!-- Generator: Adobe Illustrator 22.0.0, SVG Export Plug-In . SVG Version: 6.00 Build 0)  -->
<svg version="1.1" id="Layer_1" xmlns="http://www.w3.org/2000/svg" xmlns:xlink="http://www.w3.org/1999/xlink" x="0px" y="0px"
	 viewBox="0 0 595.3 841.9" style="enable-background:new 0 0 595.3 841.9;" xml:space="preserve">
<style type="text/css">
	.st0{fill:#A2C83A;}
	.st1{clip-path:url(#XMLID_2_);fill:#8BAA3D;}
	.st2{fill:#FEDA46;}
	.st3{fill:#FAA736;}
	.st4{fill:#59C3B8;}
	.st5{fill:#06907D;}
	.st6{fill:#FFFFFF;}
	.st7{fill:#0B5C50;}
</style>
<g id="XMLID_211_">
	<circle id="XMLID_212_" class="st0" cx="285.9" cy="419.9" r="181"/>
</g>
<g>
	<defs>
		<circle id="XMLID_210_" cx="285.9" cy="419.9" r="181"/>
	</defs>
	<clipPath id="XMLID_2_">
		<use xlink:href="#XMLID_210_"  style="overflow:visible;"/>
	</clipPath>
	<path class="st1" d="M254.5,293.8l291.4,208.9c0,87.8,0,175.5,0,263.3C445.7,696.5,345.4,627,245.1,557.5l-28.4-41.5l-6-150.1
		L254.5,293.8z"/>
</g>
<rect x="277.8" y="325" class="st2" width="31.8" height="13.6"/>
<rect x="277.8" y="325" class="st3" width="9.1" height="13.6"/>
<rect x="277.8" y="352.2" class="st2" width="31.8" height="13.6"/>
<rect x="277.8" y="352.2" class="st3" width="9.1" height="13.6"/>
<polygon class="st4" points="250.5,315.9 277.8,315.9 277.8,374.9 250.5,374.9 250.5,424.8 178,424.8 178,297.8 250.5,297.8 "/>
<g>
	<rect x="178" y="297.8" class="st5" width="9.1" height="127"/>
	<polygon class="st5" points="250.5,315.9 277.8,315.9 277.8,374.9 250.5,374.9 250.5,424.8 232.4,424.8 232.4,297.8 250.5,297.8 	
		"/>
</g>
<g>
	<rect x="191.9" y="356.8" class="st6" width="8.5" height="9.1"/>
	<rect x="191.9" y="384" class="st6" width="8.5" height="9.1"/>
	<rect x="191.9" y="329.5" class="st6" width="8.5" height="9.1"/>
</g>
<path class="st7" d="M408.7,334.7V321h-26.6v13.6h-4.5v38l13.6,9.1v106.6c0,26.7-12.1,50.7-31.2,66.6c7.9-11.1,12.7-24.7,12.7-39.3
	c0-37.4-30.4-67.8-67.7-67.8s-67.7,30.4-67.7,67.8c0,14.7,4.5,28.2,12.5,39.3c-19.1-15.9-31.5-39.8-31.5-66.6v-59h36.3v-49.9h27.2
	v-9.1h31.8v-22.1h-31.8v-5.1h31.8V321h-31.8V312h-27.2v-18.1h-81.1v135.5h36.3v59c0,51.9,42.1,94.3,93.8,94.9c0.4,0,0.9,0,1.3,0
	s0.7,0,1.2,0c51.8-0.7,93.6-43,93.6-94.9V381.7l13.6-9.1v-38H408.7z M281.7,329.5H305v5.1h-23.2V329.5z M281.7,356.8H305v5.1h-23.2
	V356.8z M236.4,302.3h9.6v18.1h27.2v50.5H246v49.9h-9.6V302.3z M181.9,420.8V302.3h45.9v118.5H181.9z M305,574.8
	c-22.7,0-41.1-18.4-41.1-41.1c0-22.7,18.4-41.1,41.1-41.1c22.7,0,41.1,18.4,41.1,41.1C346.1,556.3,327.6,574.8,305,574.8z M305,484
	c-27.4,0-49.6,22.3-49.6,49.6c0,7,1.5,13.7,4.1,19.8c-8.6-10.3-13.7-23.5-13.7-37.9c0-32.7,26.6-59.2,59.2-59.2s59.2,26.6,59.2,59.2
	c0,14.4-5.2,27.6-13.7,37.9c2.6-6.1,4.1-12.7,4.1-19.8C354.6,506.3,332.3,484,305,484z M390.6,329.5h9.6v5.1h-9.6V329.5z
	 M404.8,368.1l-9.4,6.2l-9.4-6.2v-24.9h18.7L404.8,368.1L404.8,368.1z"/>
</svg>
