<?xml version="1.0" encoding="utf-8"?>
<!-- Generator: Adobe Illustrator 22.0.0, SVG Export Plug-In . SVG Version: 6.00 Build 0)  -->
<svg version="1.1" id="Layer_1" xmlns="http://www.w3.org/2000/svg" xmlns:xlink="http://www.w3.org/1999/xlink" x="0px" y="0px"
	 viewBox="0 0 595.3 841.9" style="enable-background:new 0 0 595.3 841.9;" xml:space="preserve">
<style type="text/css">
	.st0{fill:#273D7B;}
	.st1{clip-path:url(#XMLID_2_);fill:#1A1448;}
	.st2{fill:#F7932E;}
	.st3{fill:#2F8DCD;}
	.st4{fill:#CE4727;}
	.st5{fill:#FFC81C;}
	.st6{fill:#89D6F8;}
	.st7{fill:#F16B25;}
	.st8{fill:#FFFFFF;}
	.st9{fill:#A7A9AC;}
</style>
<circle id="XMLID_225_" class="st0" cx="257.8" cy="393.3" r="181"/>
<g id="XMLID_222_">
	<defs>
		<circle id="XMLID_223_" cx="257.8" cy="393.3" r="181"/>
	</defs>
	<clipPath id="XMLID_2_">
		<use xlink:href="#XMLID_223_"  style="overflow:visible;"/>
	</clipPath>
	<path id="XMLID_224_" class="st1" d="M328,296.7c47,27.1,94,54.2,141,81.3c-4.7,86-9.3,172-14,258
		c-93.1-52.3-186.2-104.7-279.3-157c-1.7-9.2-12.1-70.3,30.3-124C251.5,297.4,319.8,296.6,328,296.7z"/>
</g>
<path id="XMLID_221_" class="st2" d="M260.1,307.7c23.8,0,45.7,9.9,61.6,25.3l22.8-22.8c-21.3-21.3-51.1-34.8-84.4-34.8
	c-32.8,0-62.6,13.4-84.4,34.8l22.8,22.8C214.4,317.2,236.3,307.7,260.1,307.7z"/>
<path id="XMLID_220_" class="st3" d="M198.5,333l-22.8-22.8c-21.3,21.8-34.8,51.6-34.8,84.4s13.4,62.6,34.8,84.4l22.8-22.8
	c-15.9-15.9-25.3-37.7-25.3-61.6C173.2,370.8,182.6,348.9,198.5,333z"/>
<path id="XMLID_219_" class="st4" d="M344.5,310.2L321.7,333c15.9,15.9,25.3,37.7,25.3,61.6c0,23.8-9.9,45.7-25.3,61.6l22.8,22.8
	c21.3-21.3,34.8-51.1,34.8-84.4C379.2,361.8,365.8,332.1,344.5,310.2z"/>
<path id="XMLID_218_" class="st5" d="M321.7,333l-21.8,21.8c-10.4-9.9-24.3-16.4-39.7-16.4s-29.8,6.5-39.7,16.4l0,0L198.5,333
	c15.9-15.9,37.7-25.3,61.6-25.3S305.8,317.2,321.7,333z"/>
<path id="XMLID_217_" class="st6" d="M220.4,434.3l-21.8,21.8c-15.9-15.9-25.3-37.7-25.3-61.6s9.9-45.7,25.3-61.6l21.8,21.8
	c-9.9,9.9-16.4,24.3-16.4,39.7C203.5,410,209.9,424.4,220.4,434.3z"/>
<path id="XMLID_216_" class="st7" d="M347,394.6c0,23.8-9.9,45.7-25.3,61.6l-21.8-21.8c9.9-10.4,16.4-24.3,16.4-39.7
	s-6.5-29.8-16.4-39.7l21.8-21.8C337.5,348.9,347,370.8,347,394.6z"/>
<path id="XMLID_215_" class="st8" d="M336.6,347.4L272,396.6c-1,6-6,9.9-11.9,9.9c-7,0-12.4-5.5-12.4-12.4c0-7,5.5-12.4,12.4-12.4
	c1.5,0,2.5,0,4,0.5L336.6,347.4z"/>
<path id="XMLID_214_" class="st8" d="M302.8,497.9h-85.4c-10.4,0-18.9-8.4-18.9-18.9l0,0c0-10.4,8.4-18.9,18.9-18.9h84.9
	c10.4,0,18.9,8.4,18.9,18.9l0,0C321.7,489.4,313.2,497.9,302.8,497.9z"/>
<circle id="XMLID_213_" class="st9" cx="260.1" cy="394.6" r="5"/>
</svg>
