<?xml version="1.0" encoding="utf-8"?>
<!-- Generator: Adobe Illustrator 22.0.0, SVG Export Plug-In . SVG Version: 6.00 Build 0)  -->
<svg version="1.1" id="Layer_1" xmlns="http://www.w3.org/2000/svg" xmlns:xlink="http://www.w3.org/1999/xlink" x="0px" y="0px"
	 viewBox="0 0 595.3 841.9" style="enable-background:new 0 0 595.3 841.9;" xml:space="preserve">
<style type="text/css">
	.st0{fill:#F16B25;}
	.st1{clip-path:url(#XMLID_2_);fill:#CE4727;}
	.st2{fill:#7E8387;}
	.st3{fill:#5B6163;}
	.st4{fill:#EF5126;}
	.st5{fill:#FFFFFF;}
	.st6{fill:#010101;}
	.st7{fill:#252728;}
</style>
<circle id="XMLID_212_" class="st0" cx="290.1" cy="399.1" r="181"/>
<g id="XMLID_209_">
	<defs>
		<circle id="XMLID_210_" cx="290.1" cy="399.1" r="181"/>
	</defs>
	<clipPath id="XMLID_2_">
		<use xlink:href="#XMLID_210_"  style="overflow:visible;"/>
	</clipPath>
	<path id="XMLID_211_" class="st1" d="M316.8,255.2L512,432.1c0.3,102.6,0.7,205.2,1,307.9c-81.3-63.6-162.6-127.3-243.9-190.9
		C285,451.1,300.9,353.2,316.8,255.2z"/>
</g>
<path id="XMLID_206_" class="st0" d="M293.7,416.8c-8.5,0-15.4,6.9-15.4,15.4c0,8.5,6.9,15.4,15.4,15.4s15.4-6.9,15.4-15.4
	C309.1,423.7,302.2,416.8,293.7,416.8z M293.7,302.9c49.3,0,89.2,39.9,89.2,89.2s-39.9,89.2-89.2,89.2s-89.2-39.9-89.2-89.2
	S244.4,302.9,293.7,302.9z"/>
<path id="XMLID_203_" class="st2" d="M318.3,506.4v42.6h-49.2v-42.6c-52.7-11.3-92.3-58.2-92.3-114.3c0-58.3,42.7-106.5,98.5-115.3
	v-17h36.9v17c55.8,8.9,98.5,57,98.5,115.3C410.6,448.3,371.1,495.1,318.3,506.4z M383,392.1c0-49.3-39.9-89.2-89.2-89.2
	s-89.2,39.9-89.2,89.2s39.9,89.2,89.2,89.2S383,441.4,383,392.1z"/>
<path id="XMLID_202_" class="st3" d="M204.5,392.1c0-49.3,39.9-89.2,89.2-89.2v-43.1h-18.5v17c-55.8,8.9-98.5,57-98.5,115.3
	c0,56.1,39.6,103,92.3,114.3v42.6h24.6v-67.7C244.4,481.4,204.5,441.4,204.5,392.1z"/>
<path id="XMLID_201_" class="st4" d="M278.3,432.1c0-8.5,6.9-15.4,15.4-15.4V302.9c-49.3,0-89.2,39.9-89.2,89.2s39.9,89.2,89.2,89.2
	v-33.8C285.2,447.5,278.3,440.6,278.3,432.1z"/>
<path id="XMLID_200_" class="st5" d="M293.7,416.8c-8.5,0-15.4,6.9-15.4,15.4c0,8.5,6.9,15.4,15.4,15.4s15.4-6.9,15.4-15.4
	C309.1,423.7,302.2,416.8,293.7,416.8z"/>
<rect id="XMLID_199_" x="281.4" y="515.2" class="st5" width="24.6" height="9.2"/>
<rect id="XMLID_198_" x="281.4" y="533.7" class="st5" width="24.6" height="9.2"/>
<path id="XMLID_197_" class="st5" d="M293.7,319.8c-39.9,0-72.3,32.4-72.3,72.3v4.6h26.2v-9.2h-16.8c1-13.2,6-25.2,13.8-34.9
	l15.1,15.1l6.5-6.5l-15.3-15.3c10.2-9.4,23.5-15.6,38.2-16.6v19.8h9.2v-19.8c14.7,1.1,28,7.2,38.2,16.6l-15.3,15.3l6.5,6.5
	l15.1-15.1c7.8,9.7,12.8,21.7,13.8,34.9h-16.8v9.2H366v-4.6C366,352.3,333.6,319.8,293.7,319.8z"/>
<path id="XMLID_194_" class="st6" d="M293.7,298.3c-51.7,0-93.8,42.1-93.8,93.8S242,486,293.7,486s93.8-42.1,93.8-93.8
	S345.5,298.3,293.7,298.3z M293.7,476.8c-46.7,0-84.6-38-84.6-84.6s38-84.6,84.6-84.6s84.6,38,84.6,84.6S340.4,476.8,293.7,476.8z"
	/>
<path id="XMLID_191_" class="st7" d="M385.8,312.9c-17.9-20.7-42.3-34.8-69-40v-17.7h-46.2V273c-26.7,5.2-51.1,19.3-69,40
	c-19,22-29.4,50.1-29.4,79.2c0,28,9.7,55.3,27.4,76.9c16.6,20.3,39.6,34.8,64.9,41.1v43.6H323v-43.6c25.3-6.3,48.3-20.8,64.9-41.1
	c17.7-21.6,27.4-48.9,27.4-76.9C415.3,363.1,404.8,334.9,385.8,312.9z M380.7,463.2c-16.1,19.7-38.6,33.4-63.3,38.7l-3.6,0.8v41.8
	h-40v-41.8l-3.6-0.8c-24.7-5.3-47.2-19.1-63.3-38.7c-16.3-20-25.3-45.2-25.3-71c0-26.9,9.7-52.9,27.2-73.2
	c17.3-20.1,41.3-33.4,67.4-37.6l3.9-0.6v-16.3h27.7v16.3l3.9,0.6c26.1,4.1,50,17.5,67.4,37.6c17.5,20.3,27.2,46.3,27.2,73.2
	C406,418,397,443.2,380.7,463.2z"/>
<path id="XMLID_188_" class="st6" d="M298.3,412.7v-54.4h-9.2v54.4c-8.8,2.1-15.4,10-15.4,19.5c0,11,9,20,20,20s20-9,20-20
	C313.7,422.7,307.1,414.8,298.3,412.7z M293.7,442.9c-5.9,0-10.8-4.8-10.8-10.8c0-5.9,4.8-10.8,10.8-10.8c5.9,0,10.8,4.8,10.8,10.8
	C304.5,438.1,299.7,442.9,293.7,442.9z"/>
<rect id="XMLID_187_" x="235.3" y="409.1" class="st6" width="12.3" height="9.2"/>
<rect id="XMLID_23_" x="339.9" y="409.1" class="st6" width="12.3" height="9.2"/>
</svg>
