<?xml version="1.0" encoding="utf-8"?>
<!-- Generator: Adobe Illustrator 22.0.0, SVG Export Plug-In . SVG Version: 6.00 Build 0)  -->
<svg version="1.1" id="Layer_1" xmlns="http://www.w3.org/2000/svg" xmlns:xlink="http://www.w3.org/1999/xlink" x="0px" y="0px"
	 viewBox="0 0 595.3 841.9" style="enable-background:new 0 0 595.3 841.9;" xml:space="preserve">
<style type="text/css">
	.st0{fill:#0FAB92;}
	.st1{clip-path:url(#XMLID_2_);fill:#0E7C67;}
	.st2{fill:#FFFFFF;}
	.st3{fill:#ED2E33;}
	.st4{fill:#FAC6CA;}
</style>
<g id="XMLID_308_">
	<circle id="XMLID_186_" class="st0" cx="297.7" cy="420.6" r="181"/>
	<g id="XMLID_183_">
		<defs>
			<circle id="XMLID_184_" cx="297.7" cy="420.6" r="181"/>
		</defs>
		<clipPath id="XMLID_2_">
			<use xlink:href="#XMLID_184_"  style="overflow:visible;"/>
		</clipPath>
		<polygon id="XMLID_185_" class="st1" points="324.4,318.1 478.7,395.6 478.7,573.9 330.2,512.7 		"/>
	</g>
	<g id="XMLID_163_">
		<rect id="XMLID_182_" x="364.9" y="336.2" class="st2" width="35.2" height="9.1"/>
		<rect id="XMLID_181_" x="364.9" y="356" class="st2" width="20.4" height="9.1"/>
		<polygon id="XMLID_180_" class="st3" points="364.9,384.9 400.1,384.9 400.1,375.8 364.9,375.8 364.9,384.9 		"/>
		<rect id="XMLID_179_" x="364.9" y="395.6" class="st3" width="20.4" height="9.1"/>
		<polygon id="XMLID_178_" class="st3" points="364.9,424.5 400.1,424.5 400.1,415.4 364.9,415.4 364.9,424.5 		"/>
		<path id="XMLID_177_" class="st2" d="M301.1,436.6v-79.2c-5-1.4-10.2-2.1-15.7-2.1c-33.3,0-60.4,27.1-60.4,60.4
			c0,30.9,23.4,56.4,53.4,59.9C278.7,459.4,287.2,444.8,301.1,436.6z"/>
		<path id="XMLID_176_" class="st2" d="M361.3,476.3c0-13.9-7.8-26.6-20.2-32.9l-2.5-1.3V332.3c0-7.8-6.4-14.2-14.2-14.2
			c-7.8,0-14.2,6.4-14.2,14.2v109.8l-2.5,1.3c-12.5,6.3-20.2,19-20.2,32.9c0,20.4,16.6,36.9,36.9,36.9S361.3,496.6,361.3,476.3z"/>
		<path id="XMLID_175_" class="st3" d="M353.7,476.3c0,16.2-13.2,29.3-29.3,29.3c-16.2,0-29.3-13.2-29.3-29.3
			c0-13.3,9-24.9,21.8-28.3l1.7-0.4v-101h11.7v101l1.7,0.5C344.8,451.4,353.7,463,353.7,476.3z"/>
		<path id="XMLID_174_" class="st2" d="M325.8,456.7c-0.7-3.1-3.8-5.2-7-4.4c-11.1,2.5-18.9,12.2-18.9,23.7c0,3.2,2.6,5.9,5.9,5.9
			c3.2,0,5.9-2.6,5.9-5.9c0-5.8,4.1-10.9,9.8-12.2C324.5,463,326.5,459.8,325.8,456.7z"/>
		<path id="XMLID_172_" class="st2" d="M272.6,325.1c0.1,5.8,5.8,10.4,12.7,10.4c7,0,12.7-4.7,12.8-10.4h0.1l-0.1-0.1v0
			c0-3.7-9.5-19.3-12.8-19.3c-3.2-0.1-12.8,15.6-12.8,19.3l0,0L272.6,325.1L272.6,325.1z"/>
		<path id="XMLID_171_" class="st2" d="M194.9,402.9L194.9,402.9l-0.1,0c0,0,0,0,0,0c-3.7,0-19.3,9.5-19.3,12.8
			c-0.1,3.2,15.6,12.8,19.3,12.8c0,0,0,0,0,0l0.1,0.1v-0.1c5.8-0.1,10.4-5.8,10.4-12.7C205.3,408.7,200.6,403,194.9,402.9z"/>
		<path id="XMLID_169_" class="st2" d="M212.3,360.6l0,0.1L212.3,360.6c4.2,4.1,11.5,3.4,16.5-1.6c4.9-4.9,5.6-12.2,1.6-16.4
			l0.1-0.1l-0.1,0c0,0,0,0,0,0c-2.6-2.6-20.4-6.9-22.7-4.7C205.3,340.1,209.6,357.9,212.3,360.6
			C212.3,360.6,212.3,360.6,212.3,360.6z"/>
		<path id="XMLID_167_" class="st2" d="M228.7,472.3c-4.9-4.9-12.2-5.6-16.4-1.6l-0.1-0.1l0,0.1c0,0,0,0,0,0
			c-2.6,2.6-6.9,20.4-4.7,22.7c2.3,2.3,20.1-2,22.7-4.6c0,0,0,0,0,0l0.1,0l0,0C234.4,484.6,233.7,477.3,228.7,472.3z"/>
		<rect id="XMLID_165_" x="318.5" y="346.5" class="st4" width="11.7" height="62.9"/>
	</g>
</g>
</svg>
