<?xml version="1.0" encoding="utf-8"?>
<!-- Generator: Adobe Illustrator 22.0.0, SVG Export Plug-In . SVG Version: 6.00 Build 0)  -->
<svg version="1.1" id="Layer_1" xmlns="http://www.w3.org/2000/svg" xmlns:xlink="http://www.w3.org/1999/xlink" x="0px" y="0px"
	 viewBox="0 0 595.3 841.9" style="enable-background:new 0 0 595.3 841.9;" xml:space="preserve">
<style type="text/css">
	.st0{fill:#16AB93;}
	.st1{clip-path:url(#XMLID_2_);fill:#1B9279;}
	.st2{fill:#FFFFFF;}
</style>
<circle id="XMLID_138_" class="st0" cx="291.7" cy="468.7" r="181"/>
<g id="XMLID_135_">
	<defs>
		<circle id="XMLID_136_" cx="291.7" cy="468.7" r="181"/>
	</defs>
	<clipPath id="XMLID_2_">
		<use xlink:href="#XMLID_136_"  style="overflow:visible;"/>
	</clipPath>
	<polygon id="XMLID_137_" class="st1" points="318.7,358.5 515.3,526.4 408.9,642.9 219.6,475.8 	"/>
</g>
<path id="XMLID_134_" class="st2" d="M329.1,362.8c-5.7-5.7-15.1-5.7-20.8,0l-95.5,95.5c-2.9,2.9-4.3,6.7-4.3,10.5s1.4,7.6,4.3,10.5
	l95.5,95.5c5.7,5.7,15.1,5.7,20.8,0c5.7-5.7,5.7-15.1,0-20.8L244,468.7l85.1-85.1C334.8,377.9,334.8,368.5,329.1,362.8z"/>
</svg>
