<?xml version="1.0" encoding="utf-8"?>
<!-- Generator: Adobe Illustrator 22.0.0, SVG Export Plug-In . SVG Version: 6.00 Build 0)  -->
<svg version="1.1" id="Layer_1" xmlns="http://www.w3.org/2000/svg" xmlns:xlink="http://www.w3.org/1999/xlink" x="0px" y="0px"
	 viewBox="0 0 595.3 841.9" style="enable-background:new 0 0 595.3 841.9;" xml:space="preserve">
<style type="text/css">
	.st0{fill:#F16B25;}
	.st1{clip-path:url(#XMLID_4_);fill:#CE4727;}
	.st2{fill:#434B60;}
	.st3{fill:#FFE9C7;}
	.st4{fill:#E96448;}
	.st5{fill:#657291;}
	.st6{fill:#FFD632;}
	.st7{fill:#F69080;}
	.st8{fill:#FCD5A1;}
</style>
<circle id="XMLID_97_" class="st0" cx="289.7" cy="371.1" r="181"/>
<g id="XMLID_94_">
	<defs>
		<circle id="XMLID_95_" cx="289.7" cy="371.1" r="181"/>
	</defs>
	<clipPath id="XMLID_4_">
		<use xlink:href="#XMLID_95_"  style="overflow:visible;"/>
	</clipPath>
	<path id="XMLID_96_" class="st1" d="M314.1,218.8l173.5,87.3c-0.2,114.6-0.4,229.3-0.7,343.9c-89-50.3-178-100.6-267-151
		C251.4,405.6,282.7,312.2,314.1,218.8z"/>
</g>
<path id="XMLID_93_" class="st2" d="M351,502.3H228.4c-6.7,0-12-5.4-12-12V250.4c0-6.7,5.4-12,12-12H351c6.7,0,12,5.4,12,12v239.9
	C363,496.9,357.6,502.3,351,502.3z"/>
<rect id="XMLID_92_" x="265.3" y="218.8" class="st3" width="48.9" height="19.6"/>
<path id="XMLID_91_" class="st4" d="M351,238.3H228.4c-6.7,0-12,5.4-12,12v31.9H363v-31.9C363,243.7,357.6,238.3,351,238.3z"/>
<path id="XMLID_90_" class="st5" d="M287.6,282.3v220h-59.5c-6.5,0-11.7-5.3-11.7-11.7V282.3H287.6z"/>
<path id="XMLID_89_" class="st6" d="M323.9,360.5h-19.6v-63.2c0.1-0.3-0.3-0.4-0.5-0.2l-48.4,78.1h24.4l0,68.1
	c-0.1,0.3,0.3,0.5,0.5,0.2L323.9,360.5z"/>
<path id="XMLID_2_" class="st7" d="M287.6,238.3v44h-71.2v-33.5c0-5.8,4.7-10.4,10.4-10.4H287.6z"/>
<rect id="XMLID_1_" x="265.3" y="218.8" class="st8" width="22.3" height="19.6"/>
</svg>
