<?xml version="1.0" encoding="utf-8"?>
<!-- Generator: Adobe Illustrator 22.0.0, SVG Export Plug-In . SVG Version: 6.00 Build 0)  -->
<svg version="1.1" id="Layer_1" xmlns="http://www.w3.org/2000/svg" xmlns:xlink="http://www.w3.org/1999/xlink" x="0px" y="0px"
	 viewBox="0 0 595.3 841.9" style="enable-background:new 0 0 595.3 841.9;" xml:space="preserve">
<style type="text/css">
	.st0{fill:#273D7B;}
	.st1{fill:#1A1448;}
	.st2{fill:#F5F6F6;}
</style>
<path id="XMLID_115_" class="st0" d="M117.4,420c0,100,81,181,181,181c100,0,181-81,181-181c0-100-81-181-181-181
	C198.4,239,117.4,320.1,117.4,420z"/>
<path id="XMLID_114_" class="st1" d="M476.4,452.3l-0.4-0.4c-0.1-0.1-0.1-0.2-0.2-0.3c0,0-104.6-104.6-104.7-104.7l-68.9-63.1
	c-1.7-1.5-4.1-1.9-6.2-1c-2.1,0.9-3.4,3-3.4,5.2v118.1l-0.4-0.5c0,0-57.5-57.5-57.6-57.5l-1-1c-2.2-2.3-5.8-2.4-8.1-0.2
	c-2.3,2.2-2.4,5.8-0.2,8.1l63.6,66.2l-63.5,63.5c-2.2,2.2-2.2,5.9,0,8.1c0.2,0.2,0.5,0.3,0.7,0.4c0.2,0.2,103.8,104.1,104,104.3
	c0.2,0.2,0.4,0.3,0.6,0.4C404.8,584.7,463.1,526.4,476.4,452.3z"/>
<path id="XMLID_110_" class="st2" d="M305,421.5l66.3-66.3c1.1-1.1,1.7-2.6,1.7-4.2c0-1.6-0.7-3-1.9-4.1l-68.9-63.1
	c-1.7-1.5-4.1-1.9-6.2-1c-2.1,0.9-3.4,3-3.4,5.3v120.6l-59-61.4c-2.2-2.3-5.8-2.4-8.1-0.2c-2.3,2.2-2.4,5.8-0.2,8.1l63.6,66.2
	l-63.5,63.5c-2.2,2.2-2.2,5.9,0,8.1s5.9,2.2,8.1,0l59.1-59.1V552c0,2.2,1.3,4.3,3.3,5.2c0.8,0.4,1.6,0.5,2.4,0.5
	c1.3,0,2.6-0.5,3.7-1.3l68.9-57.4c1.2-1,2-2.5,2.1-4.1c0.1-1.6-0.5-3.1-1.6-4.3L305,421.5z M304.1,301.1l54.8,50.3l-54.8,54.8V301.1
	L304.1,301.1z M304.1,539.8V437.2l54.7,57L304.1,539.8z"/>
</svg>
