<?xml version="1.0" encoding="utf-8"?>
<!-- Generator: Adobe Illustrator 22.0.0, SVG Export Plug-In . SVG Version: 6.00 Build 0)  -->
<svg version="1.1" id="Layer_1" xmlns="http://www.w3.org/2000/svg" xmlns:xlink="http://www.w3.org/1999/xlink" x="0px" y="0px"
	 viewBox="0 0 595.3 841.9" style="enable-background:new 0 0 595.3 841.9;" xml:space="preserve">
<style type="text/css">
	.st0{fill:#FAAF22;}
	.st1{clip-path:url(#XMLID_2_);fill:#F7932D;}
	.st2{fill:#FFFFFF;}
</style>
<circle id="XMLID_161_" class="st0" cx="291.2" cy="416.2" r="181"/>
<g id="XMLID_154_">
	<defs>
		<circle id="XMLID_157_" cx="291.2" cy="416.2" r="181"/>
	</defs>
	<clipPath id="XMLID_2_">
		<use xlink:href="#XMLID_157_"  style="overflow:visible;"/>
	</clipPath>
	<path id="XMLID_159_" class="st1" d="M257.3,306.5l250.3,143.7c0.4,55.9,0.7,111.7,1.1,167.6c-57.6-30.3-115.2-60.6-172.8-90.9
		L229.7,377L257.3,306.5z"/>
</g>
<path id="XMLID_21_" class="st2" d="M384.2,510.7c-3.7,5.7-10.8,10.1-21.2,13.2c-10.5,3.1-19.5,4-27.1,2.9c-2.1-0.3-4.4-0.8-6.7-1.5
	c-2.3-0.7-4.3-1.3-5.9-1.9c-1.6-0.6-3.7-1.5-6.3-2.8c-2.6-1.3-4.5-2.2-5.6-2.9c-1.1-0.6-3.2-1.8-6.2-3.5c-3-1.7-4.9-2.7-5.7-3.1
	c-20.6-11.2-39.8-28.8-57.5-52.8c-17.7-23.9-29-47.4-33.7-70.4c-0.1-0.8-0.6-2.9-1.3-6.3c-0.7-3.4-1.2-5.7-1.5-7
	c-0.3-1.3-0.7-3.3-1.1-6.2c-0.5-2.9-0.7-5.1-0.8-6.9c-0.1-1.7-0.1-3.8-0.1-6.2c0-2.4,0.2-4.7,0.5-6.9c1.1-7.6,4.7-15.9,10.7-25
	c6-9.1,12.2-14.6,18.8-16.5c7.5-1.9,14.4-2.3,20.8-1.4c1.5,0.2,2.5,0.5,3.1,0.9c0.6,0.4,1.5,1.7,2.8,4.1c1.2,2.4,2.5,5.3,3.8,8.8
	c1.3,3.5,2.6,7,3.9,10.3c1.3,3.3,2.5,6.6,3.6,9.8c1.2,3.2,1.9,5.3,2.1,6.1c0.3,0.7,1,2.1,2,4.2c1.1,2.1,1.8,3.9,2.3,5.4
	c0.4,1.6,0.6,3,0.4,4.3c-0.3,2-2,4.2-5.2,6.7c-3.2,2.5-6.5,4.6-10.2,6.5c-3.6,1.9-7,4-10.1,6.3c-3.1,2.3-4.8,4.3-5.1,6.1
	c-0.1,0.9-0.1,2.1,0.2,3.4c0.3,1.3,0.6,2.4,0.8,3.3c0.3,0.9,0.7,2.1,1.4,3.7c0.6,1.6,1.1,2.6,1.3,3c5.4,14.3,12.1,26.9,20.2,37.8
	c8.1,10.9,18.2,21,30.3,30.3c0.4,0.3,1.2,1,2.5,2.1c1.3,1.1,2.4,1.9,3.1,2.4c0.7,0.5,1.7,1.1,2.9,1.8c1.2,0.7,2.3,1.1,3.2,1.2
	c2.1,0.3,5.4-1.4,9.8-5.3c4.4-3.8,8.8-7.6,13.3-11.4c4.5-3.7,7.9-5.4,10.3-5.1c1.3,0.2,2.7,0.7,4,1.6c1.4,0.9,2.9,2.1,4.5,3.7
	c1.7,1.6,2.8,2.7,3.4,3.2l9.7,7.4c6.5,4.8,11.9,9,16.2,12.5c4.3,3.6,6.6,5.9,6.8,7c0.2,0.7,0.1,1.8-0.1,3.3
	C390.6,497.6,388.2,504.1,384.2,510.7z"/>
</svg>
