<?xml version="1.0" encoding="utf-8"?>
<!-- Generator: Adobe Illustrator 22.0.0, SVG Export Plug-In . SVG Version: 6.00 Build 0)  -->
<svg version="1.1" id="Layer_1" xmlns="http://www.w3.org/2000/svg" xmlns:xlink="http://www.w3.org/1999/xlink" x="0px" y="0px"
	 viewBox="0 0 595.3 841.9" style="enable-background:new 0 0 595.3 841.9;" xml:space="preserve">
<style type="text/css">
	.st0{fill:#16AB93;}
	.st1{fill:#0E7C67;}
	.st2{fill:#33383C;}
	.st3{fill:#2D3133;}
	.st4{fill:#D39345;}
	.st5{fill:#BDC3C7;}
	.st6{fill:#F8B661;}
	.st7{fill:#A1A5A8;}
</style>
<g id="XMLID_155_">
	<g id="XMLID_173_">
		<circle id="XMLID_153_" class="st0" cx="298.3" cy="420.1" r="181"/>
	</g>
	<path id="XMLID_152_" class="st1" d="M479.3,420.1c0-9.4-0.7-18.7-2.1-27.7l-84.8-84.5L203.8,532l67.1,67.1
		c8.9,1.4,18.1,2.1,27.4,2.1C398.3,601.1,479.3,520.1,479.3,420.1z"/>
	<g id="XMLID_170_">
		<path id="XMLID_151_" class="st2" d="M381.6,304H269.7c-4.4,0-8.6,1.7-11.7,4.9L202.9,364c-3.1,3.1-4.9,7.3-4.9,11.7v143.6
			c0,9.4,7.6,17,17,17h166.6c9.4,0,17-7.6,17-17V321C398.6,311.6,391,304,381.6,304z"/>
	</g>
	<g id="XMLID_168_">
		<path id="XMLID_150_" class="st3" d="M381.6,304h-84.5v232.2h84.5c9.4,0,17-7.6,17-17V321C398.6,311.6,391,304,381.6,304z"/>
	</g>
	<g id="XMLID_166_">
		<rect id="XMLID_149_" x="352.2" y="304" class="st4" width="15.8" height="40.2"/>
	</g>
	<g id="XMLID_164_">
		<rect id="XMLID_148_" x="238" y="420.1" class="st5" width="120.7" height="80.4"/>
	</g>
	<g id="XMLID_162_">
		<rect id="XMLID_147_" x="288.9" y="304" class="st6" width="15.8" height="40.2"/>
	</g>
	<g id="XMLID_160_">
		<rect id="XMLID_146_" x="297.1" y="420.1" class="st7" width="61.6" height="80.4"/>
	</g>
	<g id="XMLID_158_">
		<rect id="XMLID_145_" x="297.1" y="304" class="st4" width="7.6" height="40.2"/>
	</g>
	<g id="XMLID_156_">
		<rect id="XMLID_7_" x="320.6" y="304" class="st4" width="15.8" height="40.2"/>
	</g>
</g>
</svg>
