<?xml version="1.0" encoding="utf-8"?>
<!-- Generator: Adobe Illustrator 22.0.0, SVG Export Plug-In . SVG Version: 6.00 Build 0)  -->
<svg version="1.1" id="Layer_1" xmlns="http://www.w3.org/2000/svg" xmlns:xlink="http://www.w3.org/1999/xlink" x="0px" y="0px"
	 viewBox="0 0 595.3 841.9" style="enable-background:new 0 0 595.3 841.9;" xml:space="preserve">
<style type="text/css">
	.st0{fill:#EF3953;}
	.st1{clip-path:url(#SVGID_2_);fill:#A31C46;}
	.st2{fill:#FFFFFF;}
</style>
<circle class="st0" cx="273.8" cy="476.1" r="181"/>
<g>
	<defs>
		<circle id="SVGID_1_" cx="273.8" cy="476.1" r="181"/>
	</defs>
	<clipPath id="SVGID_2_">
		<use xlink:href="#SVGID_1_"  style="overflow:visible;"/>
	</clipPath>
	<path class="st1" d="M256.3,622.4c0,0,123.2,17,117.8-123.9c-5.3-140.9-19.4-145.2-100.7-171.1l33.1,1.7l197.4,114.2v265.3
		L256.3,622.4z"/>
</g>
<g>
	<path class="st2" d="M216.9,599.8c-24.3-17.9-38.8-46.6-38.8-76.8v-93.1c0-2.7,0.1-5.5,0.3-8.2c0.3-3-1.9-5.6-4.9-5.8
		c-3-0.2-5.6,1.9-5.8,4.9c-0.3,3-0.4,6.1-0.4,9.1V523c0,16.9,4.1,33.7,11.8,48.6c7.5,14.4,18.3,27.2,31.4,36.8
		c1,0.7,2.1,1.1,3.2,1.1c1.7,0,3.3-0.8,4.3-2.2C219.8,604.9,219.3,601.6,216.9,599.8z"/>
	<path class="st2" d="M242.1,613.1c-3.3-1.2-6.6-2.5-9.8-4c-2.7-1.3-5.9-0.2-7.2,2.5c-1.3,2.7-0.2,5.9,2.5,7.2
		c3.5,1.7,7.2,3.2,10.9,4.5c0.6,0.2,1.2,0.3,1.8,0.3c2.2,0,4.3-1.4,5.1-3.6C246.4,617.1,244.9,614,242.1,613.1z"/>
	<path class="st2" d="M374.2,498.5c-3,0-5.4,2.4-5.4,5.4V523c0,52.6-42.8,95.3-95.3,95.3c-3.7,0-7.5-0.2-11.1-0.6
		c-3-0.3-5.6,1.8-6,4.7c-0.3,3,1.8,5.6,4.7,6c4.1,0.5,8.2,0.7,12.4,0.7c58.5,0,106.1-47.6,106.1-106.1v-19.1
		C379.6,500.9,377.1,498.5,374.2,498.5z"/>
	<path class="st2" d="M273.4,323.8c-22.9,0-44.7,7.2-63.1,20.8c-18,13.3-31.1,31.6-37.9,52.8c-0.9,2.8,0.6,5.9,3.5,6.8
		c2.8,0.9,5.9-0.6,6.8-3.5c6.1-19.1,17.9-35.5,34.1-47.4c16.5-12.2,36.1-18.7,56.7-18.7c52.6,0,95.3,42.8,95.3,95.3v52.4
		c0,3,2.4,5.4,5.4,5.4c3,0,5.4-2.4,5.4-5.4v-52.4C379.6,371.4,332,323.8,273.4,323.8z"/>
	<path class="st2" d="M200.7,552.8c-2.7,1.3-3.8,4.5-2.4,7.2c6.8,13.8,17.3,25.5,30.4,33.8c13.4,8.5,28.9,13,44.9,13
		c12.1,0,23.7-2.5,34.6-7.5c2.7-1.2,3.9-4.4,2.7-7.1c-1.2-2.7-4.4-3.9-7.1-2.7c-9.5,4.3-19.6,6.5-30.1,6.5
		c-13.9,0-27.4-3.9-39.1-11.4c-11.4-7.2-20.5-17.4-26.5-29.5C206.6,552.6,203.3,551.5,200.7,552.8z"/>
	<path class="st2" d="M325.2,587.3c1.3,0,2.5-0.4,3.6-1.3c18.1-15.9,28.5-38.9,28.5-62.9v-93.1c0-17.9-5.6-35-16.2-49.5
		c-1.8-2.4-5.1-2.9-7.5-1.2c-2.4,1.8-2.9,5.1-1.2,7.5c9.2,12.6,14.1,27.5,14.1,43.1V523c0,21-9.1,40.9-24.8,54.8
		c-2.2,2-2.4,5.4-0.5,7.6C322.3,586.7,323.8,587.3,325.2,587.3z"/>
	<path class="st2" d="M315,369.8c0.9,0.6,2,1,3.1,1c1.7,0,3.4-0.8,4.4-2.3c1.7-2.4,1.1-5.8-1.4-7.5c-4.1-2.8-8.4-5.3-12.9-7.4
		c-2.7-1.2-5.9,0-7.1,2.7c-1.2,2.7,0,5.9,2.7,7.1C307.6,365.2,311.4,367.4,315,369.8z"/>
	<path class="st2" d="M287.5,347.3c-4.6-0.8-9.3-1.2-14-1.2c-46.2,0-83.8,37.6-83.8,83.8v90.5c0,3,2.4,5.4,5.4,5.4s5.4-2.4,5.4-5.4
		v-90.5c0-40.3,32.8-73.1,73.1-73.1c4.1,0,8.2,0.3,12.2,1c2.9,0.5,5.7-1.5,6.2-4.4C292.4,350.5,290.4,347.8,287.5,347.3z"/>
	<path class="st2" d="M222.4,395.5c-1.7,2.5-1,5.8,1.4,7.5c2.5,1.7,5.8,1,7.5-1.4c9.5-14,25.2-22.4,42.1-22.4
		c28,0,50.8,22.8,50.8,50.8v60.3c0,3,2.4,5.4,5.4,5.4c3,0,5.4-2.4,5.4-5.4v-60.3c0-34-27.6-61.6-61.6-61.6
		C253,368.4,233.9,378.5,222.4,395.5z"/>
	<path class="st2" d="M217.3,448.2c3,0,5.4-2.4,5.4-5.4v-12.9c0-3-2.4-5.4-5.4-5.4s-5.4,2.4-5.4,5.4v12.9
		C211.9,445.8,214.3,448.2,217.3,448.2z"/>
	<path class="st2" d="M211.9,523c0,22.3,12.1,42.9,31.6,53.8c0.8,0.5,1.7,0.7,2.6,0.7c1.9,0,3.7-1,4.7-2.8c1.5-2.6,0.5-5.9-2.1-7.3
		c-16.1-9-26.1-26-26.1-44.4v-58.6c0-3-2.4-5.4-5.4-5.4s-5.4,2.4-5.4,5.4L211.9,523L211.9,523z"/>
	<path class="st2" d="M335,523v-9.8c0-3-2.4-5.4-5.4-5.4s-5.4,2.4-5.4,5.4v9.8c0,28-22.8,50.8-50.8,50.8c-4.1,0-8.2-0.5-12.1-1.5
		c-2.9-0.7-5.8,1.1-6.5,3.9c-0.7,2.9,1.1,5.8,3.9,6.5c4.8,1.2,9.7,1.8,14.7,1.8C307.4,584.6,335,557,335,523z"/>
	<path class="st2" d="M312.8,430.5c0-21.6-17.3-39.5-38.6-39.9c-10.6-0.2-20.7,3.8-28.3,11.3c-7.6,7.5-11.8,17.4-11.8,28.1V523
		c0,3,2.4,5.4,5.4,5.4s5.4-2.4,5.4-5.4v-93.1c0-7.7,3-14.9,8.6-20.4c5.5-5.4,12.8-8.3,20.5-8.2c15.4,0.3,28,13.3,28,29.1v51.1
		c0,3,2.4,5.4,5.4,5.4s5.4-2.4,5.4-5.4V430.5z"/>
	<path class="st2" d="M256.4,529.2c0,15.5,12.6,28.2,28.2,28.2s28.2-12.6,28.2-28.2v-26.1c0-3-2.4-5.4-5.4-5.4c-3,0-5.4,2.4-5.4,5.4
		v26.1c0,9.6-7.8,17.4-17.4,17.4c-9.6,0-17.4-7.8-17.4-17.4v-46.2c0-3-2.4-5.4-5.4-5.4s-5.4,2.4-5.4,5.4V529.2L256.4,529.2z"/>
	<path class="st2" d="M285.1,532.6c3,0,5.4-2.4,5.4-5.4v-96.9c0-9.3-7.1-16.9-16.2-17.4c-4.7-0.2-9.2,1.4-12.6,4.7
		c-3.4,3.2-5.3,7.7-5.3,12.3v30.2c0,3,2.4,5.4,5.4,5.4s5.4-2.4,5.4-5.4v-30.2c0-1.7,0.7-3.3,2-4.5c1.3-1.2,2.9-1.8,4.6-1.7
		c3.3,0.2,5.9,3.1,5.9,6.6v96.9C279.7,530.1,282.1,532.6,285.1,532.6z"/>
</g>
</svg>
