<?xml version="1.0" encoding="utf-8"?>
<!-- Generator: Adobe Illustrator 22.0.0, SVG Export Plug-In . SVG Version: 6.00 Build 0)  -->
<svg version="1.1" id="Layer_1" xmlns="http://www.w3.org/2000/svg" xmlns:xlink="http://www.w3.org/1999/xlink" x="0px" y="0px"
	 viewBox="0 0 595.3 841.9" style="enable-background:new 0 0 595.3 841.9;" xml:space="preserve">
<style type="text/css">
	.st0{fill:#F16B25;}
	.st1{clip-path:url(#SVGID_2_);fill:#CE4727;}
	.st2{fill:#E6E9ED;}
	.st3{fill:#334B5E;}
	.st4{fill:#2C3B4E;}
	.st5{fill:#F3705B;}
</style>
<circle class="st0" cx="285.4" cy="332.2" r="181"/>
<g>
	<defs>
		<circle id="SVGID_1_" cx="285.4" cy="332.2" r="181"/>
	</defs>
	<clipPath id="SVGID_2_">
		<use xlink:href="#SVGID_1_"  style="overflow:visible;"/>
	</clipPath>
	<path class="st1" d="M353.6,230.9L557.3,380c0.9,116.3,1.8,232.6,2.7,349c-103.2-88.1-206.4-176.2-309.6-264.4
		c11.7-57.6,23.3-115.2,35-172.9L353.6,230.9z"/>
</g>
<path class="st2" d="M322.2,232c-6-16.1-21.6-27.5-39.8-27.3c-18.2,0.2-33.6,11.8-39.3,28L322.2,232z"/>
<rect x="211.6" y="231.6" transform="matrix(1 -9.137878e-03 9.137878e-03 1 -2.2449 2.5937)" class="st3" width="142.1" height="30.8"/>
<polygon class="st4" points="317.7,321.2 249.1,321.8 211.8,263.1 353.9,261.8 "/>
<path class="st3" d="M315.5,467.5l-61.6,0.6c-1.9,0-3.5-1.5-3.5-3.4l-1.4-142.9l68.5-0.6l1.4,142.9
	C318.9,465.9,317.4,467.5,315.5,467.5z"/>
<rect x="276.4" y="347.5" transform="matrix(1 -9.137878e-03 9.137878e-03 1 -3.3119 2.6082)" class="st5" width="14.8" height="32.5"/>
</svg>
