<?xml version="1.0" encoding="utf-8"?>
<!-- Generator: Adobe Illustrator 22.0.0, SVG Export Plug-In . SVG Version: 6.00 Build 0)  -->
<svg version="1.1" id="Layer_1" xmlns="http://www.w3.org/2000/svg" xmlns:xlink="http://www.w3.org/1999/xlink" x="0px" y="0px"
	 viewBox="0 0 595.3 841.9" style="enable-background:new 0 0 595.3 841.9;" xml:space="preserve">
<style type="text/css">
	.st0{fill:#F16B25;}
	.st1{clip-path:url(#XMLID_2_);fill:#CE4727;}
	.st2{fill:#FFFFFF;}
	.st3{fill:#E6E7E7;}
	.st4{fill:#818285;}
	.st5{fill:#FFFFFF;stroke:#EF4237;stroke-miterlimit:10;}
</style>
<g id="XMLID_223_">
	<circle id="XMLID_224_" class="st0" cx="302.5" cy="512.2" r="196"/>
</g>
<g>
	<defs>
		<circle id="XMLID_222_" cx="302.5" cy="512.2" r="196"/>
	</defs>
	<clipPath id="XMLID_2_">
		<use xlink:href="#XMLID_222_"  style="overflow:visible;"/>
	</clipPath>
	<path class="st1" d="M382.8,386.6L577,535.9c-3.3,117-6.7,234-10,351.1c-111.7-83.5-223.3-167-335-250.4
		c41.4-69,82.9-138,124.3-207L382.8,386.6z"/>
</g>
<path class="st2" d="M366.7,401.3H244.2c-11.3,0-20.4,8.9-20.4,19.9v199.3c0,11,9.2,19.9,20.4,19.9h122.5c11.3,0,20.4-8.9,20.4-19.9
	V421.3C387.2,410.3,378,401.3,366.7,401.3z"/>
<path class="st2" d="M291.5,545c-6.2-6.2-9.1-15.5-9.1-17.5c0-2.5-1.6-4.6-3.7-5.5c-1.7-3.1-3.5-13.3-3.5-16.2
	c0-1.1,0.3-2.5,0.7-3.2c2-0.3,3.9-1.2,4.7-3.1c0.9-2.2,0.7-4.2-0.9-5.9c-0.9-2.3-0.8-12.1-0.8-16.8l0-3.5c0-6.9,6.9-11.9,8.6-12.2
	c1.7,0,3.4-0.9,4.6-2.2c0.2-0.2,4.5-5,17.1-5c18.3,0,28.6,11.5,30.1,20.8l-1.7,1.7c-1.1,1.1-1.7,2.6-1.7,4.1c0,6.3-2.6,11-3.7,12.2
	c-1.7,1.7-2.2,4.2-1.3,6.4c0.8,1.8,2.4,3.1,4.3,3.5c0.3,0.8,0.7,2.2,0.7,3.3c0,3-1.8,13.2-3.5,16.2c-2.1,0.9-3.7,3-3.7,5.4
	c-0.1,2-3,11.4-9.1,17.6c-1.4,1.5-2,3.6-1.5,5.5l3.6,14.4c0.6,2.6,3,4.4,5.7,4.4h4.1c4.3,6.4,10.6,11.2,17.9,13.7l11.3,3.8
	c2.7,0.9,5.8,3.2,9.1,7H241.4c3.3-3.7,6.4-6.1,9.1-7l11.3-3.8c7.3-2.4,13.6-7.3,17.9-13.7h4.1c2.7,0,5-1.8,5.7-4.4l3.6-14.4
	C293.6,548.5,293,546.4,291.5,545z"/>
<path class="st3" d="M387.2,605.5h-2.8c-4.9-7.4-11.7-16.1-20.1-19.1l-11.3-4c-4.8-1.7-9.1-5.1-11.9-9.6l-1.7-2.7
	c-1.1-1.7-2.9-2.7-4.8-2.7h-2.7L330,560c5.2-6.6,8.6-14.9,9.8-20.7c7.2-6.8,7.7-26.5,7.7-26.8c0-4.1-1.1-8.3-3.2-11.3
	c1.6-3.5,2.8-7.9,3.1-12.8l2-2.1c1.1-1.2,1.7-2.7,1.7-4.4c0-17.6-16-36.7-41.9-36.7c-13.9,0-21.3,5.1-24.5,8
	c-7.8,2.1-17.5,12.4-17.5,24.8l0,3.6c-0.1,8.2,0,14,0.6,18.2c-2.8,3-4.2,7.8-4.2,12.5c0,0.2,0.5,20,7.7,26.8
	c1.2,5.7,4.5,14,9.8,20.7l-1.8,7.4h-2.7c-1.9,0-3.8,1-4.9,2.7l-1.7,2.7c-2.8,4.5-7.1,7.9-11.9,9.6l-11.3,4
	c-8.4,3-15.3,11.7-20.1,19.1h-2.8V396.1c0-6.8,5.2-12.3,11.7-12.3h140c6.4,0,11.7,5.5,11.7,12.3V605.5z"/>
<circle class="st4" cx="334.7" cy="401.3" r="5.8"/>
<line class="st5" x1="226.8" y1="421.5" x2="382.8" y2="421.5"/>
<circle class="st4" cx="353.4" cy="401.3" r="2.9"/>
<path class="st2" d="M314.4,399.6h-24.3c-2.2,0-4.1,1.2-4.1,2.7s1.8,2.7,4.1,2.7h24.3c2.2,0,4.1-1.2,4.1-2.7
	S316.6,399.6,314.4,399.6z"/>
</svg>
