<?xml version="1.0" encoding="utf-8"?>
<!-- Generator: Adobe Illustrator 22.0.0, SVG Export Plug-In . SVG Version: 6.00 Build 0)  -->
<svg version="1.1" id="Layer_1" xmlns="http://www.w3.org/2000/svg" xmlns:xlink="http://www.w3.org/1999/xlink" x="0px" y="0px"
	 viewBox="0 0 595.3 841.9" style="enable-background:new 0 0 595.3 841.9;" xml:space="preserve">
<style type="text/css">
	.st0{fill:#F16B25;}
	.st1{clip-path:url(#XMLID_2_);fill:#CE4727;}
	.st2{fill:#FFFFFF;}
	.st3{fill:#F2F2F2;}
	.st4{fill:#6E6F72;}
	.st5{fill:#4D5669;}
	.st6{fill:#707885;}
	.st7{fill:#BCC7D8;}
	.st8{fill:#59C5C5;}
	.st9{fill:#4AC2C3;}
	.st10{fill:#96D7DF;}
	.st11{fill:#16AB93;}
	.st12{fill:#FAD519;}
</style>
<g id="XMLID_99_">
	<circle id="XMLID_98_" class="st0" cx="290.4" cy="462.3" r="181"/>
	<g id="XMLID_94_">
		<defs>
			<circle id="XMLID_96_" cx="290.4" cy="462.3" r="181"/>
		</defs>
		<clipPath id="XMLID_2_">
			<use xlink:href="#XMLID_96_"  style="overflow:visible;"/>
		</clipPath>
		<polygon id="XMLID_97_" class="st1" points="365.5,338.5 521.2,449.2 521.2,680.2 358.4,578.3 		"/>
	</g>
	<g id="XMLID_100_">
		<path id="XMLID_93_" class="st2" d="M375.6,393.2h-3c-2.1,0-3.8-1.7-3.8-3.8c0-2.1,1.7-3.8,3.8-3.8h3c2.1,0,3.8,1.7,3.8,3.8
			C379.4,391.5,377.7,393.2,375.6,393.2z"/>
		<path id="XMLID_114_" class="st2" d="M398.8,537.2H393c-2.1,0-3.8-1.7-3.8-3.8c0-2.1,1.7-3.8,3.8-3.8h5.8c2.1,0,3.8,1.7,3.8,3.8
			C402.5,535.5,400.8,537.2,398.8,537.2z M415.7,534.9c-1.3,0-2.5-0.6-3.2-1.8c-1.1-1.8-0.6-4.1,1.2-5.2c1.2-0.8,2.3-1.8,3.2-2.9
			c1.2-1.7,3.6-2,5.3-0.8c1.7,1.2,2,3.6,0.8,5.3c-1.4,1.9-3.2,3.6-5.3,4.8C417,534.7,416.3,534.9,415.7,534.9z M422.9,514.3
			c-2.1,0-3.8-1.7-3.8-3.8v-5.8c0-2.1,1.7-3.8,3.8-3.8c2.1,0,3.8,1.7,3.8,3.8v5.8C426.7,512.6,425,514.3,422.9,514.3z M422.9,491.2
			c-2.1,0-3.8-1.7-3.8-3.8v-5.8c0-2.1,1.7-3.8,3.8-3.8c2.1,0,3.8,1.7,3.8,3.8v5.8C426.7,489.5,425,491.2,422.9,491.2z M422.9,468.1
			c-2.1,0-3.8-1.7-3.8-3.8v-5.8c0-2.1,1.7-3.8,3.8-3.8c2.1,0,3.8,1.7,3.8,3.8v5.8C426.7,466.4,425,468.1,422.9,468.1z M422.9,444.9
			c-2.1,0-3.8-1.7-3.8-3.8v-5.8c0-2.1,1.7-3.8,3.8-3.8c2.1,0,3.8,1.7,3.8,3.8v5.8C426.7,443.2,425,444.9,422.9,444.9z M422.9,421.8
			c-2.1,0-3.8-1.7-3.8-3.8v-5.8c0-2.1,1.7-3.8,3.8-3.8c2.1,0,3.8,1.7,3.8,3.8v5.8C426.7,420.1,425,421.8,422.9,421.8z M419.9,399.4
			c-1.2,0-2.3-0.5-3-1.5c-0.9-1.2-2-2.2-3.2-2.9c-1.8-1.1-2.3-3.4-1.2-5.2c1.1-1.8,3.4-2.3,5.2-1.2c2,1.3,3.8,2.9,5.3,4.8
			c1.3,1.7,0.9,4-0.8,5.3C421.4,399.1,420.7,399.4,419.9,399.4z M398.7,393.2h-5.8c-2.1,0-3.8-1.7-3.8-3.8c0-2.1,1.7-3.8,3.8-3.8
			h5.8c2.1,0,3.8,1.7,3.8,3.8C402.5,391.5,400.8,393.2,398.7,393.2z"/>
		<path id="XMLID_83_" class="st2" d="M375.6,537.2h-3c-2.1,0-3.8-1.7-3.8-3.8c0-2.1,1.7-3.8,3.8-3.8h3c2.1,0,3.8,1.7,3.8,3.8
			C379.4,535.5,377.7,537.2,375.6,537.2z"/>
		<path id="XMLID_81_" class="st2" d="M228.6,537.2h-3c-2.1,0-3.8-1.7-3.8-3.8c0-2.1,1.7-3.8,3.8-3.8h3c2.1,0,3.8,1.7,3.8,3.8
			C232.3,535.5,230.6,537.2,228.6,537.2z"/>
		<path id="XMLID_102_" class="st2" d="M208,537.2h-5.9c-2.1,0-3.8-1.7-3.8-3.8c0-2.1,1.7-3.8,3.8-3.8h5.9c2.1,0,3.8,1.7,3.8,3.8
			C211.7,535.5,210,537.2,208,537.2z M184.5,536.9c-0.2,0-0.5,0-0.7-0.1c-2.4-0.5-4.7-1.4-6.7-2.7c-1.7-1.1-2.2-3.5-1.1-5.2
			c1.1-1.7,3.5-2.2,5.2-1.1c1.2,0.8,2.6,1.4,4.1,1.7c2,0.4,3.4,2.4,3,4.5C187.9,535.7,186.3,536.9,184.5,536.9z M172.2,519.5
			c-2.1,0-3.8-1.7-3.8-3.8v-5.9c0-2.1,1.7-3.8,3.8-3.8c2.1,0,3.8,1.7,3.8,3.8v5.9C175.9,517.8,174.2,519.5,172.2,519.5z
			 M172.2,496.1c-2.1,0-3.8-1.7-3.8-3.8v-5.9c0-2.1,1.7-3.8,3.8-3.8c2.1,0,3.8,1.7,3.8,3.8v5.9C175.9,494.4,174.2,496.1,172.2,496.1
			z M172.2,472.6c-2.1,0-3.8-1.7-3.8-3.8V463c0-2.1,1.7-3.8,3.8-3.8c2.1,0,3.8,1.7,3.8,3.8v5.9C175.9,471,174.2,472.6,172.2,472.6z
			 M172.2,449.2c-2.1,0-3.8-1.7-3.8-3.8v-5.9c0-2.1,1.7-3.8,3.8-3.8c2.1,0,3.8,1.7,3.8,3.8v5.9C175.9,447.5,174.2,449.2,172.2,449.2
			z M172.2,425.8c-2.1,0-3.8-1.7-3.8-3.8v-5.9c0-2.1,1.7-3.8,3.8-3.8c2.1,0,3.8,1.7,3.8,3.8v5.9
			C175.9,424.1,174.2,425.8,172.2,425.8z M173.4,402.5c-0.5,0-1-0.1-1.5-0.3c-1.9-0.8-2.8-3.1-2-5c1-2.2,2.3-4.3,4.1-6
			c1.5-1.5,3.9-1.5,5.4,0c1.5,1.5,1.5,3.9,0,5.4c-1.1,1.1-1.9,2.3-2.5,3.6C176.3,401.7,174.9,402.5,173.4,402.5z M198.9,393.2H193
			c-2.1,0-3.8-1.7-3.8-3.8c0-2.1,1.7-3.8,3.8-3.8h5.9c2.1,0,3.8,1.7,3.8,3.8C202.7,391.5,201,393.2,198.9,393.2z"/>
		<path id="XMLID_70_" class="st2" d="M219.5,393.2h-3c-2.1,0-3.8-1.7-3.8-3.8c0-2.1,1.7-3.8,3.8-3.8h3c2.1,0,3.8,1.7,3.8,3.8
			C223.3,391.5,221.6,393.2,219.5,393.2z"/>
	</g>
	<g id="XMLID_95_">
		<path id="XMLID_69_" class="st3" d="M371.1,449.9h4.8c2.3,0,4.2,1.7,4.2,3.8V518c0,2.1-1.9,3.8-4.2,3.8h-4.8V449.9z"/>
		<path id="XMLID_68_" class="st3" d="M371.1,410.1h4.8c2.3,0,4.2,1.7,4.2,3.8v8.1c0,2.1-1.9,3.8-4.2,3.8h-4.8V410.1z"/>
		<path id="XMLID_67_" class="st3" d="M230.1,392.4h-4.8c-2.3,0-4.2-1.7-4.2-3.8v-8.1c0-2.1,1.9-3.8,4.2-3.8h4.8V392.4z"/>
		<path id="XMLID_66_" class="st3" d="M230.1,419.6h-4.8c-2.3,0-4.2-1.7-4.2-3.8v-8.1c0-2.1,1.9-3.8,4.2-3.8h4.8V419.6z"/>
	</g>
	<path id="XMLID_65_" class="st4" d="M372.6,351.4v219.9c0,8.5-6.9,15.4-15.4,15.4H244c-8.5,0-15.4-6.9-15.4-15.4V351.4
		c0-8.5,6.9-15.4,15.4-15.4h113.2C365.7,336,372.6,342.9,372.6,351.4z"/>
	<path id="XMLID_64_" class="st5" d="M372.6,351.4v219.9c0,8.5-6.9,15.4-15.4,15.4H343c8.5,0,15.4-6.9,15.4-15.4V351.4
		c0-8.5-6.9-15.4-15.4-15.4h14.1C365.7,336,372.6,342.9,372.6,351.4z"/>
	<path id="XMLID_63_" class="st6" d="M258.1,586.8H244c-8.5,0-15.4-6.9-15.4-15.4V351.4c0-8.5,6.9-15.4,15.4-15.4h14.1
		c-8.5,0-15.4,6.9-15.4,15.4v219.9C242.7,579.9,249.6,586.8,258.1,586.8z"/>
	<rect id="XMLID_62_" x="228.6" y="363.4" class="st3" width="144" height="200.2"/>
	<rect id="XMLID_61_" x="228.6" y="363.4" class="st2" width="14.1" height="200.2"/>
	<rect id="XMLID_60_" x="358.4" y="363.4" class="st7" width="14.1" height="200.2"/>
	<rect id="XMLID_59_" x="228.6" y="363.4" class="st8" width="144" height="18.6"/>
	<rect id="XMLID_58_" x="358.4" y="363.4" class="st9" width="14.1" height="18.6"/>
	<rect id="XMLID_57_" x="228.6" y="363.4" class="st10" width="14.1" height="18.6"/>
	<g id="XMLID_82_">
		<path id="XMLID_56_" class="st5" d="M307.2,353.9h-12.6c-2.1,0-3.8-1.7-3.8-3.8c0-2.1,1.7-3.8,3.8-3.8h12.6c2.1,0,3.8,1.7,3.8,3.8
			C311,352.2,309.3,353.9,307.2,353.9z"/>
		<path id="XMLID_55_" class="st5" d="M280.8,353.9h-0.5c-2.1,0-3.8-1.7-3.8-3.8c0-2.1,1.7-3.8,3.8-3.8h0.5c2.1,0,3.8,1.7,3.8,3.8
			C284.6,352.2,282.9,353.9,280.8,353.9z"/>
		<path id="XMLID_54_" class="st5" d="M307.2,578.3h-12.6c-2.1,0-3.8-1.7-3.8-3.8s1.7-3.8,3.8-3.8h12.6c2.1,0,3.8,1.7,3.8,3.8
			S309.3,578.3,307.2,578.3z"/>
	</g>
	<path id="XMLID_53_" class="st11" d="M352.2,464.4l-11.4-11.4c-0.7-0.7-1.7-1.1-2.7-1.1c-1,0-2,0.4-2.7,1.1l-11.4,11.4
		c-1.5,1.5-1.5,3.9,0,5.4c0.7,0.7,1.7,1.1,2.7,1.1s1.9-0.4,2.7-1.1l4.7-4.7c-1.8,18.6-17.6,33.2-36.7,33.2c-2.1,0-3.8,1.7-3.8,3.8
		c0,2.1,1.7,3.8,3.8,3.8c23.4,0,42.6-18.2,44.3-41.1l5,5c1.5,1.5,3.9,1.5,5.4,0C353.7,468.3,353.7,465.9,352.2,464.4z"/>
	<path id="XMLID_52_" class="st11" d="M297.5,417c-23.4,0-42.6,18.2-44.3,41.1l-5-5c-1.5-1.5-3.9-1.5-5.4,0c-1.5,1.5-1.5,3.9,0,5.4
		l11.4,11.4c0.7,0.7,1.7,1.1,2.7,1.1c1,0,2-0.4,2.7-1.1l11.4-11.4c1.5-1.5,1.5-3.9,0-5.4c-1.5-1.5-3.9-1.5-5.4,0l-4.7,4.7
		c1.8-18.6,17.6-33.2,36.7-33.2c2.1,0,3.8-1.7,3.8-3.8C301.3,418.7,299.6,417,297.5,417z"/>
	<path id="XMLID_51_" class="st12" d="M316,457.4l-15.7,22.6c-1.3,1.8-3.8,2.3-5.6,1l-3.2-2.2l-8.6-6h0l-2.8-2
		c-1.8-1.3-2.3-3.8-1-5.6l15.7-22.6c1.3-1.8,3.8-2.3,5.6-1l2.9,2l8.3,5.7l3.5,2.4C316.8,453.1,317.3,455.6,316,457.4z"/>
	<g id="XMLID_75_">
		<path id="XMLID_50_" class="st2" d="M328.1,531.6h-10.6c-2.1,0-3.8-1.7-3.8-3.8s1.7-3.8,3.8-3.8h10.6c2.1,0,3.8,1.7,3.8,3.8
			S330.2,531.6,328.1,531.6z"/>
		<path id="XMLID_49_" class="st2" d="M303.2,531.6H267c-2.1,0-3.8-1.7-3.8-3.8s1.7-3.8,3.8-3.8h36.2c2.1,0,3.8,1.7,3.8,3.8
			S305.3,531.6,303.2,531.6z"/>
		<path id="XMLID_48_" class="st2" d="M328.1,543.4H267c-2.1,0-3.8-1.7-3.8-3.8s1.7-3.8,3.8-3.8h61.1c2.1,0,3.8,1.7,3.8,3.8
			S330.2,543.4,328.1,543.4z"/>
	</g>
</g>
</svg>
