<?xml version="1.0" encoding="utf-8"?>
<!-- Generator: Adobe Illustrator 22.0.0, SVG Export Plug-In . SVG Version: 6.00 Build 0)  -->
<svg version="1.1" id="Layer_1" xmlns="http://www.w3.org/2000/svg" xmlns:xlink="http://www.w3.org/1999/xlink" x="0px" y="0px"
	 viewBox="0 0 595.3 841.9" style="enable-background:new 0 0 595.3 841.9;" xml:space="preserve">
<style type="text/css">
	.st0{fill:#FAAE20;}
	.st1{clip-path:url(#XMLID_2_);fill:#F7932D;}
	.st2{fill:#F7932D;}
	.st3{fill:#FFFFFF;}
	.st4{fill:#FFDCAA;}
</style>
<circle id="XMLID_317_" class="st0" cx="291.4" cy="398.3" r="181"/>
<g id="XMLID_314_">
	<defs>
		<circle id="XMLID_315_" cx="291.4" cy="398.3" r="181"/>
	</defs>
	<clipPath id="XMLID_2_">
		<use xlink:href="#XMLID_315_"  style="overflow:visible;"/>
	</clipPath>
	<path id="XMLID_316_" class="st1" d="M296.7,304.7c62.5,36.4,124.9,72.9,187.4,109.3c0.4,70,0.7,140,1.1,210L297.2,512L296.7,304.7
		z"/>
</g>
<path id="XMLID_313_" class="st2" d="M296.7,524.9c-7.4,0-14.4-0.7-19.8-2.1c-8.3-2.1-12.4-5.7-12.4-10.8s4.2-8.8,12.4-10.8
	c5.4-1.3,12.4-2.1,19.8-2.1s14.4,0.7,19.8,2.1c8.3,2.1,12.4,5.7,12.4,10.8s-4.2,8.8-12.4,10.8C311.2,524.2,304.1,524.9,296.7,524.9z
	"/>
<path id="XMLID_312_" class="st2" d="M316.5,501.2c-5.4-1.3-12.4-2.1-19.8-2.1v25.8c7.4,0,14.4-0.7,19.8-2.1
	c8.3-2.1,12.4-5.7,12.4-10.8S324.8,503.2,316.5,501.2z"/>
<path id="XMLID_311_" class="st3" d="M218.9,382.5L218.9,382.5c0,16.8,5.4,33.1,15.5,46.6l62,82.9h0.9l62-82.9
	c10-13.4,15.5-29.8,15.5-46.6l0,0c0-43-34.8-77.8-77.8-77.8h-0.1C253.7,304.7,218.9,339.5,218.9,382.5z"/>
<path id="XMLID_310_" class="st4" d="M296.8,304.7L296.8,304.7l0,207.3h0.4l62-82.9c10-13.4,15.5-29.8,15.5-46.6l0,0
	C374.6,339.5,339.7,304.7,296.8,304.7z"/>
<polygon id="XMLID_309_" class="st4" points="340.2,412.6 296.7,419.1 253.3,412.6 253.3,352.4 296.7,358.9 340.2,352.4 "/>
<polygon id="XMLID_307_" class="st2" points="340.2,412.6 296.7,419.1 296.7,358.9 340.2,352.4 "/>
</svg>
