<?xml version="1.0" encoding="utf-8"?>
<!-- Generator: Adobe Illustrator 22.0.0, SVG Export Plug-In . SVG Version: 6.00 Build 0)  -->
<svg version="1.1" id="Layer_1" xmlns="http://www.w3.org/2000/svg" xmlns:xlink="http://www.w3.org/1999/xlink" x="0px" y="0px"
	 viewBox="0 0 595.3 841.9" style="enable-background:new 0 0 595.3 841.9;" xml:space="preserve">
<style type="text/css">
	.st0{fill:#F78E36;}
	.st1{fill:#ED7526;}
	.st2{fill:#364A5E;}
	.st3{fill:#5E6E7F;}
	.st4{fill:#FFFFFF;}
	.st5{fill:#0C84BB;}
	.st6{fill:#07638B;}
	.st7{fill:#F89D51;}
	.st8{fill:#F08123;}
</style>
<circle id="XMLID_390_" class="st0" cx="298.1" cy="468.7" r="181"/>
<path id="XMLID_389_" class="st1" d="M471,522.3l-155-155c-0.1-0.1-0.1-0.1-0.2-0.2l-2.8-2.8c-0.1-0.1-0.1-0.1-0.2-0.2
	c-3.1-2.5-6.8-4.3-10.8-5c-0.2,0-0.3,0-0.5-0.1c-0.5-0.1-1-0.1-1.5-0.2c-0.7-0.1-1.3-0.1-2-0.1c-12.8,0-23.3,10.4-23.3,23.2
	c0,0.7,0,1.4,0.1,2.1c0,0.1,0,0.1,0,0.2c0.1,0.6,0.1,1.2,0.2,1.8c0,0,0,0,0,0c0.1,0.6,0.3,1.3,0.4,1.9c0,0,0,0,0,0.1
	c0.2,0.6,0.4,1.2,0.6,1.8c0.1,0.3,0.2,0.6,0.4,0.9c0.1,0.3,0.2,0.6,0.4,0.9c1.5,3.2,3.7,6.1,6.4,8.3l7.1,7.1
	c-43.8,3.8-78.3,40.7-78.3,85.5c0,22.4,8.6,42.9,22.8,58.2l4.9,4.9l90.9,90.9C397.4,634.5,451.3,585.9,471,522.3z"/>
<path id="XMLID_481_" class="st2" d="M298.1,405.3c-12.8,0-23.3-10.4-23.3-23.3c0-12.8,10.4-23.3,23.3-23.3s23.3,10.4,23.3,23.3
	C321.4,394.9,310.9,405.3,298.1,405.3z M298.1,364.1c-9.9,0-18,8.1-18,18c0,9.9,8.1,18,18,18c9.9,0,18-8.1,18-18
	C316.1,372.2,308,364.1,298.1,364.1z"/>
<rect id="XMLID_386_" x="293" y="393" class="st3" width="10.3" height="16.6"/>
<g id="XMLID_477_">
	<path id="XMLID_385_" class="st2" d="M305.5,390.1c0-0.5-0.4-0.9-0.9-0.9h-13c-0.5,0-0.9,0.4-0.9,0.9v5.3c0,0.5,0.4,0.9,0.9,0.9h13
		c0.5,0,0.9-0.4,0.9-0.9V390.1z"/>
	<path id="XMLID_384_" class="st2" d="M298.1,406.8c-47.4,0-85.9,38.5-85.9,85.9s38.5,85.9,85.9,85.9c47.4,0,85.9-38.5,85.9-85.9
		C384,445.3,345.5,406.8,298.1,406.8z"/>
</g>
<g id="XMLID_474_">
	<path id="XMLID_383_" class="st4" d="M298.1,416.8c-41.9,0-75.9,34-75.9,75.9c0,41.9,34,75.9,75.9,75.9c41.9,0,75.9-34,75.9-75.9
		C374,450.8,340,416.8,298.1,416.8z"/>
	<polygon id="XMLID_382_" class="st4" points="326.3,464.5 298.1,486.7 298.1,492.7 304.2,492.7 	"/>
</g>
<g id="XMLID_469_">
	<polygon id="XMLID_381_" class="st3" points="326.3,464.5 298.1,492.7 304.2,492.7 	"/>
	<path id="XMLID_470_" class="st3" d="M324.9,465.9L304,492.4h-5.7v-5.7L324.9,465.9L324.9,465.9z M326.3,464.5l-28.2,22.2v6h6
		L326.3,464.5L326.3,464.5z"/>
</g>
<polygon id="XMLID_378_" class="st4" points="269.9,520.9 298.1,498.7 298.1,492.7 292.1,492.7 "/>
<g id="XMLID_463_">
	<polygon id="XMLID_377_" class="st3" points="269.9,520.9 298.1,492.7 292.1,492.7 	"/>
	<path id="XMLID_464_" class="st3" d="M271.3,519.5l20.9-26.6h5.7v5.7L271.3,519.5L271.3,519.5z M269.9,520.9l28.2-22.2v-6h-6
		L269.9,520.9L269.9,520.9z"/>
</g>
<polygon id="XMLID_374_" class="st4" points="326.3,520.9 304.2,492.7 298.1,492.7 298.1,498.7 "/>
<g id="XMLID_457_">
	<polygon id="XMLID_373_" class="st3" points="326.3,520.9 298.1,492.7 298.1,498.7 	"/>
	<path id="XMLID_458_" class="st3" d="M324.9,519.5l-26.6-20.9v-5.7h5.7L324.9,519.5L324.9,519.5z M326.3,520.9l-22.2-28.2h-6v6
		L326.3,520.9L326.3,520.9z"/>
</g>
<polygon id="XMLID_370_" class="st4" points="269.9,464.5 292.1,492.7 298.1,492.7 298.1,486.6 "/>
<g id="XMLID_451_">
	<polygon id="XMLID_369_" class="st3" points="269.9,464.5 298.1,492.7 298.1,486.6 	"/>
	<path id="XMLID_452_" class="st3" d="M271.3,465.9l26.6,20.9v5.7h-5.7L271.3,465.9L271.3,465.9z M269.9,464.5l22.2,28.2h6v-6.1
		L269.9,464.5L269.9,464.5z"/>
</g>
<polygon id="XMLID_366_" class="st4" points="298.1,440.4 292.5,487.1 298.1,492.7 303.7,487.1 "/>
<g id="XMLID_445_">
	<polygon id="XMLID_365_" class="st3" points="298.1,440.4 298.1,492.7 303.7,487.1 	"/>
	<path id="XMLID_446_" class="st3" d="M298.1,443.1l5.3,43.9l-5.3,5.3l-5.3-5.3L298.1,443.1L298.1,443.1z M298.1,440.4l-5.6,46.7
		l5.6,5.6l5.6-5.6L298.1,440.4L298.1,440.4z"/>
</g>
<polygon id="XMLID_362_" class="st4" points="298.1,544.9 303.7,498.3 298.1,492.7 292.5,498.3 "/>
<g id="XMLID_439_">
	<polygon id="XMLID_361_" class="st3" points="298.1,544.9 298.1,492.7 292.5,498.3 	"/>
	<path id="XMLID_440_" class="st3" d="M298.1,542.3l-5.3-43.9l5.3-5.3l5.3,5.3L298.1,542.3L298.1,542.3z M298.1,544.9l5.6-46.7
		l-5.6-5.6l-5.6,5.6L298.1,544.9L298.1,544.9z"/>
</g>
<polygon id="XMLID_358_" class="st4" points="350.4,492.7 303.7,487.1 298.1,492.7 303.7,498.3 "/>
<g id="XMLID_433_">
	<polygon id="XMLID_357_" class="st3" points="350.4,492.7 298.1,492.7 303.7,498.3 	"/>
	<path id="XMLID_434_" class="st3" d="M347.7,492.7l-43.9,5.3l-5.3-5.3l5.3-5.3L347.7,492.7L347.7,492.7z M350.4,492.7l-46.6-5.6
		l-5.6,5.6l5.6,5.6L350.4,492.7L350.4,492.7z"/>
</g>
<polygon id="XMLID_354_" class="st4" points="245.9,492.7 292.5,498.3 298.1,492.7 292.5,487.1 "/>
<g id="XMLID_426_">
	<polygon id="XMLID_353_" class="st3" points="245.9,492.7 298.1,492.7 292.5,487.1 	"/>
	<path id="XMLID_428_" class="st3" d="M248.5,492.7l43.9-5.3l5.3,5.3l-5.3,5.3L248.5,492.7L248.5,492.7z M245.9,492.7l46.7,5.6
		l5.6-5.6l-5.6-5.6L245.9,492.7L245.9,492.7z"/>
	<path id="XMLID_350_" class="st3" d="M298.1,464.5c-15.6,0-28.2,12.6-28.2,28.2c0,15.6,12.6,28.2,28.2,28.2
		c15.6,0,28.2-12.6,28.2-28.2C326.3,477.1,313.7,464.5,298.1,464.5L298.1,464.5z"/>
</g>
<path id="XMLID_349_" class="st4" d="M298.1,466.5c14.5,0,26.2,11.8,26.2,26.2c0,14.5-11.8,26.2-26.2,26.2
	c-14.5,0-26.2-11.8-26.2-26.2C271.9,478.2,283.6,466.5,298.1,466.5L298.1,466.5z"/>
<g id="XMLID_396_">
	<path id="XMLID_422_" class="st3" d="M298.1,569.1c-42.2,0-76.4-34.3-76.4-76.4c0-42.1,34.3-76.4,76.4-76.4s76.4,34.3,76.4,76.4
		S340.3,569.1,298.1,569.1z M298.1,419.4c-9.9,0-19.5,1.9-28.5,5.8c-8.7,3.7-16.6,9-23.3,15.7c-6.7,6.7-12,14.6-15.7,23.3
		c-3.8,9-5.8,18.6-5.8,28.5c0,9.9,1.9,19.5,5.8,28.5c3.7,8.7,9,16.6,15.7,23.3c6.7,6.7,14.6,12,23.3,15.7c9,3.8,18.6,5.8,28.5,5.8
		c9.9,0,19.5-1.9,28.5-5.8c8.7-3.7,16.6-9,23.3-15.7c6.7-6.7,12-14.6,15.7-23.3c3.8-9,5.8-18.6,5.8-28.5c0-9.9-1.9-19.5-5.8-28.5
		c-3.7-8.7-9-16.6-15.7-23.3c-6.7-6.7-14.6-12-23.3-15.7C317.6,421.4,308,419.4,298.1,419.4z"/>
	<rect id="XMLID_346_" x="297.4" y="418.7" class="st3" width="1.4" height="4.6"/>
	
		<rect id="XMLID_345_" x="279.6" y="421" transform="matrix(0.9688 -0.2478 0.2478 0.9688 -96.1448 82.656)" class="st3" width="1.4" height="4.6"/>
	
		<rect id="XMLID_344_" x="262.9" y="427.6" transform="matrix(0.8753 -0.4836 0.4836 0.8753 -175.0177 181.073)" class="st3" width="1.4" height="4.6"/>
	
		<rect id="XMLID_343_" x="248.3" y="438.2" transform="matrix(0.7289 -0.6846 0.6846 0.7289 -234.0234 289.9022)" class="st3" width="1.4" height="4.6"/>
	<polygon id="XMLID_342_" class="st3" points="239.1,456.1 239.9,454.9 236,452.5 235.3,453.7 	"/>
	
		<rect id="XMLID_341_" x="229.2" y="468.3" transform="matrix(0.3115 -0.9502 0.9502 0.3115 -288.8261 542.4629)" class="st3" width="1.4" height="4.6"/>
	<polygon id="XMLID_340_" class="st3" points="228.8,489 228.9,487.6 224.3,487.3 224.2,488.8 	"/>
	<polygon id="XMLID_339_" class="st3" points="230.1,506.4 229.8,505 225.3,505.9 225.6,507.3 	"/>
	<polygon id="XMLID_338_" class="st3" points="235.6,522.9 235,521.6 230.9,523.5 231.5,524.8 	"/>
	
		<rect id="XMLID_337_" x="240.6" y="537.7" transform="matrix(0.7732 -0.6342 0.6342 0.7732 -286.3468 276.1567)" class="st3" width="4.6" height="1.4"/>
	<polygon id="XMLID_336_" class="st3" points="257.9,549.3 256.8,548.4 254.1,552.1 255.2,553 	"/>
	<polygon id="XMLID_335_" class="st3" points="273.2,557.5 271.9,556.9 270.2,561.2 271.6,561.7 	"/>
	<polygon id="XMLID_334_" class="st3" points="290.1,561.6 288.7,561.4 288.1,566 289.5,566.2 	"/>
	
		<rect id="XMLID_333_" x="306.4" y="561.5" transform="matrix(0.9922 -0.1243 0.1243 0.9922 -67.704 42.5472)" class="st3" width="1.4" height="4.6"/>
	
		<rect id="XMLID_332_" x="323.8" y="557.1" transform="matrix(0.929 -0.3701 0.3701 0.929 -183.974 159.8114)" class="st3" width="1.4" height="4.6"/>
	
		<rect id="XMLID_331_" x="339.5" y="548.4" transform="matrix(0.811 -0.5851 0.5851 0.811 -257.8647 303.1647)" class="st3" width="1.4" height="4.6"/>
	<polygon id="XMLID_330_" class="st3" points="352,536.4 351.1,537.5 354.6,540.4 355.6,539.3 	"/>
	<polygon id="XMLID_329_" class="st3" points="361.2,521.6 360.6,522.9 364.7,524.8 365.3,523.5 	"/>
	<polygon id="XMLID_328_" class="st3" points="366.4,505 366.1,506.4 370.6,507.3 370.9,505.8 	"/>
	<polygon id="XMLID_327_" class="st3" points="367.3,487.6 367.4,489 372,488.8 371.9,487.3 	"/>
	
		<rect id="XMLID_326_" x="364" y="469.8" transform="matrix(0.9517 -0.3069 0.3069 0.9517 -126.7405 135.1246)" class="st3" width="4.6" height="1.4"/>
	
		<rect id="XMLID_325_" x="356.3" y="453.6" transform="matrix(0.8461 -0.5331 0.5331 0.8461 -186.9649 261.1062)" class="st3" width="4.6" height="1.4"/>
	<polygon id="XMLID_324_" class="st3" points="345.1,441.6 346.1,442.6 349.3,439.3 348.2,438.3 	"/>
	<polygon id="XMLID_323_" class="st3" points="330.9,431.5 332.2,432.2 334.4,428.2 333.1,427.5 	"/>
	<polygon id="XMLID_322_" class="st3" points="314.7,425.3 316.1,425.7 317.2,421.2 315.8,420.9 	"/>
</g>
<polygon id="XMLID_321_" class="st5" points="291.3,485.9 298.1,492.7 337.8,453 337.8,453 "/>
<polygon id="XMLID_320_" class="st6" points="304.9,499.5 298.1,492.7 337.8,453 337.8,453 "/>
<polygon id="XMLID_319_" class="st7" points="291.3,485.9 298.1,492.7 258.4,532.4 258.4,532.4 "/>
<polygon id="XMLID_318_" class="st8" points="304.9,499.5 298.1,492.7 258.4,532.4 258.4,532.4 "/>
</svg>
