<?xml version="1.0" encoding="utf-8"?>
<!-- Generator: Adobe Illustrator 22.0.0, SVG Export Plug-In . SVG Version: 6.00 Build 0)  -->
<svg version="1.1" id="Layer_1" xmlns="http://www.w3.org/2000/svg" xmlns:xlink="http://www.w3.org/1999/xlink" x="0px" y="0px"
	 viewBox="0 0 595.3 841.9" style="enable-background:new 0 0 595.3 841.9;" xml:space="preserve">
<style type="text/css">
	.st0{fill:#F16B25;}
	.st1{clip-path:url(#XMLID_2_);fill:#CE4727;}
	.st2{fill:#FFFFFF;}
</style>
<circle id="XMLID_143_" class="st0" cx="283.9" cy="453.7" r="181"/>
<g id="XMLID_140_">
	<defs>
		<circle id="XMLID_141_" cx="283.9" cy="453.7" r="181"/>
	</defs>
	<clipPath id="XMLID_2_">
		<use xlink:href="#XMLID_141_"  style="overflow:visible;"/>
	</clipPath>
	<path id="XMLID_142_" class="st1" d="M298.6,324.3l258.9,218.5c1.5,90.1,3,180.1,4.5,270.2c-114.4-86.6-228.8-173.2-343.2-259.9
		c6-20.7,16.7-48.6,36.2-78.1c25.3-38.4,54.7-62.9,74.6-77C319.3,373.4,308.9,348.9,298.6,324.3z"/>
</g>
<g id="XMLID_6_">
	<g id="Home">
		<g id="XMLID_7_">
			<path id="XMLID_139_" class="st2" d="M417.9,425.3L303,326.9c-0.4-0.3-0.7-0.5-1.1-0.8c-0.3-0.2-0.6-0.5-0.9-0.6
				c-0.4-0.3-0.9-0.5-1.4-0.7c-0.4-0.2-0.7-0.4-1-0.5c-0.4-0.2-0.9-0.3-1.3-0.4c-0.9-0.2-1.9-0.4-2.8-0.5c-0.3,0-0.6-0.1-0.9-0.1
				c-0.4,0-0.9,0.1-1.3,0.1c-0.4,0-0.9,0-1.3,0.1c-0.4,0.1-0.8,0.2-1.2,0.3c-0.4,0.1-0.9,0.2-1.3,0.4c-0.4,0.1-0.7,0.3-1.1,0.5
				c-0.4,0.2-0.9,0.4-1.3,0.6c-0.4,0.2-0.7,0.5-1,0.7c-0.3,0.2-0.7,0.4-1,0.7l-114.9,98.4c-6,5.1-6.6,14.1-1.4,20
				c5.2,5.9,14.4,6.5,20.4,1.3l9.9-8.5v83c0,19.6,16.2,35.4,36.2,35.4h21.6c8,0,14.4-6.3,14.4-14.1v-66.7c0-4,3.3-7.2,7.3-7.2h32
				c4,0,7.3,3.2,7.3,7.2v65.1c0,1,0.1,1.9,0.3,2.9l0.4,1.6c1.4,6.6,7.3,11.3,14.1,11.3h21.2c20,0,36.2-15.9,36.2-35.4v-83l9.9,8.5
				c2.7,2.3,6.1,3.5,9.5,3.5c4,0,8-1.6,10.9-4.8C424.5,439.3,423.9,430.4,417.9,425.3z"/>
		</g>
	</g>
</g>
</svg>
