<?xml version="1.0" encoding="utf-8"?>
<!-- Generator: Adobe Illustrator 22.0.0, SVG Export Plug-In . SVG Version: 6.00 Build 0)  -->
<svg version="1.1" id="Layer_1" xmlns="http://www.w3.org/2000/svg" xmlns:xlink="http://www.w3.org/1999/xlink" x="0px" y="0px"
	 viewBox="0 0 595.3 841.9" style="enable-background:new 0 0 595.3 841.9;" xml:space="preserve">
<style type="text/css">
	.st0{fill:#273D7B;}
	.st1{clip-path:url(#XMLID_3_);fill:#1A1448;}
	.st2{clip-path:url(#SVGID_2_);fill:#008BCE;}
	.st3{fill:#F6F5F4;}
</style>
<circle id="XMLID_229_" class="st0" cx="297.6" cy="461" r="181"/>
<g id="XMLID_226_">
	<defs>
		<circle id="XMLID_227_" cx="297.6" cy="461" r="181"/>
	</defs>
	<clipPath id="XMLID_3_">
		<use xlink:href="#XMLID_227_"  style="overflow:visible;"/>
	</clipPath>
	<path id="XMLID_228_" class="st1" d="M297.6,357.6l181,131.9c-1.2,63.3-2.4,126.6-3.6,189.8c-57.6-38.3-115.2-76.6-172.9-114.9
		L297.6,357.6z"/>
</g>
<g id="XMLID_10_">
	<g>
		<defs>
			<rect id="SVGID_1_" x="219.1" y="357.6" width="155.3" height="206.8"/>
		</defs>
		<clipPath id="SVGID_2_">
			<use xlink:href="#SVGID_1_"  style="overflow:visible;"/>
		</clipPath>
		<path class="st2" d="M332.7,402.9c-10.6-13.5-21.5-27.4-30.3-42.4c-2.3-3.9-8.8-3.9-11.1,0c-8.8,15-19.8,28.9-30.4,42.4
			c-21.5,27.4-41.7,53.2-41.7,83.8c0,42.8,34.8,77.6,77.6,77.6s77.6-34.8,77.6-77.6C374.4,456.2,354.2,430.3,332.7,402.9
			L332.7,402.9z"/>
	</g>
	<path class="st3" d="M277.4,447.9c-3.6,0-6.5,2.9-6.5,6.5s2.9,6.5,6.5,6.5s6.5-2.9,6.5-6.5S280.9,447.9,277.4,447.9L277.4,447.9z
		 M277.4,473.8c-10.7,0-19.4-8.7-19.4-19.4c0-10.7,8.7-19.4,19.4-19.4c10.7,0,19.4,8.7,19.4,19.4
		C296.8,465.1,288.1,473.8,277.4,473.8L277.4,473.8z"/>
	<path class="st3" d="M316.2,512.6c-3.6,0-6.5,2.9-6.5,6.5s2.9,6.5,6.5,6.5s6.5-2.9,6.5-6.5S319.8,512.6,316.2,512.6L316.2,512.6z
		 M316.2,538.5c-10.7,0-19.4-8.7-19.4-19.4s8.7-19.4,19.4-19.4s19.4,8.7,19.4,19.4S326.9,538.5,316.2,538.5L316.2,538.5z"/>
	<path class="st3" d="M264.4,525.6c-1.7,0-3.3-0.6-4.6-1.9c-2.5-2.5-2.5-6.6,0-9.1l64.7-64.7c2.5-2.5,6.6-2.5,9.1,0s2.5,6.6,0,9.1
		L269,523.7C267.7,524.9,266.1,525.6,264.4,525.6L264.4,525.6z"/>
</g>
</svg>
