<?xml version="1.0" encoding="utf-8"?>
<!-- Generator: Adobe Illustrator 22.0.0, SVG Export Plug-In . SVG Version: 6.00 Build 0)  -->
<svg version="1.1" id="Layer_1" xmlns="http://www.w3.org/2000/svg" xmlns:xlink="http://www.w3.org/1999/xlink" x="0px" y="0px"
	 viewBox="0 0 595.3 841.9" style="enable-background:new 0 0 595.3 841.9;" xml:space="preserve">
<style type="text/css">
	.st0{fill:#273C7A;}
	.st1{fill:#1A1448;}
	.st2{fill:#FFC71D;}
	.st3{fill:#EAA22F;}
	.st4{fill:#D0D1D3;}
	.st5{fill:#A6A8AA;}
	.st6{fill:#FDE186;}
	.st7{fill:#F15725;}
	.st8{fill:#C83427;}
</style>
<g id="XMLID_9_">
	<path class="st0" d="M298.1,287.1c100,0,181,81,181,181s-81,181-181,181s-181-81-181-181S198.1,287.1,298.1,287.1L298.1,287.1z"/>
	<path class="st1" d="M341.1,643.9c70.9-17.3,125.4-76.4,136.1-149.6L369.5,386.6l-11.7,13.8l-57.4-57.7l-3.1,17.3v7.7l37.7,37.7
		l-20.5,64.7l-69.3-69.3l-2.4-0.8l-2,5.1l71.5,71.5l-16.7,52.7l-72.8-72.8l-6.6,1.3l-18.3,2.4l91.1,90l-1.1,3.5l-42.7-42.7l-5.1,5.6
		l0.1,0.1l-13.5,12.9L341.1,643.9L341.1,643.9z"/>
	<path class="st2" d="M358.4,448c0-34.1-28.3-61.6-62.8-60.3c-30.8,1.2-56.1,26-57.8,56.9c-1.2,21.2,8.6,40.1,24.1,51.8
		c9.9,7.4,16,18.9,16,31.3v20.9c0,11.1,9,20.1,20.1,20.1l0,0c11.1,0,20.1-9,20.1-20.1v-20.6c0-12.6,6.1-24.2,16.2-31.8
		C349,485.2,358.4,467.7,358.4,448L358.4,448z"/>
	<path class="st3" d="M298.1,387.7v181c11.1,0,20.1-9,20.1-20.1v-20.6c0-12.6,6.1-24.2,16.2-31.8c14.6-11,24.1-28.5,24.1-48.2
		C358.4,414.6,331.4,387.7,298.1,387.7L298.1,387.7z"/>
	<path class="st4" d="M278,528.4v20.1c0,11.1,9,20.1,20.1,20.1l0,0c11.1,0,20.1-9,20.1-20.1v-20.1L278,528.4L278,528.4z"/>
	<path class="st5" d="M298.1,528.4v40.2c11.1,0,20.1-9,20.1-20.1v-20.1H298.1L298.1,528.4z"/>
	<path class="st6" d="M298.1,367.8c-1.7,0-3-1.4-3-3v-20.1c0-1.7,1.4-3,3-3s3,1.4,3,3v20.1C301.1,366.5,299.8,367.8,298.1,367.8
		L298.1,367.8z"/>
	<path class="st2" d="M298.1,341.6v26.2c1.7,0,3-1.4,3-3v-20.1C301.1,343,299.8,341.6,298.1,341.6L298.1,341.6z"/>
	<path class="st2" d="M396.1,461.1h-20.1c-1.7,0-3-1.4-3-3c0-1.7,1.4-3,3-3h20.1c1.7,0,3,1.4,3,3
		C399.1,459.7,397.7,461.1,396.1,461.1L396.1,461.1z"/>
	<path class="st6" d="M220.2,461.1h-20.1c-1.7,0-3-1.4-3-3c0-1.7,1.4-3,3-3h20.1c1.7,0,3,1.4,3,3
		C223.3,459.7,221.9,461.1,220.2,461.1L220.2,461.1z"/>
	<path class="st2" d="M367.4,530.3c-0.8,0-1.6-0.3-2.2-0.9L351,515.2c-1.2-1.2-1.2-3.1,0-4.3c1.2-1.2,3.1-1.2,4.3,0l14.2,14.2
		c1.2,1.2,1.2,3.1,0,4.3C368.9,530,368.1,530.3,367.4,530.3L367.4,530.3z"/>
	<path class="st6" d="M243,406c-0.8,0-1.6-0.3-2.2-0.9l-14.2-14.2c-1.2-1.2-1.2-3.1,0-4.3c1.2-1.2,3.1-1.2,4.3,0l14.2,14.2
		c1.2,1.2,1.2,3.1,0,4.3C244.6,405.7,243.8,406,243,406L243,406z"/>
	<path class="st2" d="M353.1,406c-0.8,0-1.6-0.3-2.2-0.9c-1.2-1.2-1.2-3.1,0-4.3l14.2-14.2c1.2-1.2,3.1-1.2,4.3,0
		c1.2,1.2,1.2,3.1,0,4.3l-14.2,14.2C354.7,405.7,353.9,406,353.1,406L353.1,406z"/>
	<path class="st6" d="M228.8,530.3c-0.8,0-1.6-0.3-2.2-0.9c-1.2-1.2-1.2-3.1,0-4.3l14.2-14.2c1.2-1.2,3.1-1.2,4.3,0
		c1.2,1.2,1.2,3.1,0,4.3L231,529.5C230.4,530,229.6,530.3,228.8,530.3L228.8,530.3z"/>
	<path class="st7" d="M286.5,485.1c-1.1,0-2.3-0.3-3.2-1.1c-2.4-1.8-3-5.2-1.2-7.7l16.8-23h-12.4c-2.1,0-4-1.2-4.9-3
		c-0.9-1.8-0.8-4.1,0.5-5.7l23.2-31.7c1.8-2.4,5.2-3,7.7-1.2c2.4,1.8,3,5.2,1.2,7.7l-16.8,23h12.4c2.1,0,4,1.2,4.9,3
		c0.9,1.8,0.8,4.1-0.5,5.7l-23.2,31.7C289.9,484.4,288.2,485.1,286.5,485.1L286.5,485.1z"/>
	<path class="st8" d="M314.1,419.5c1.8-2.4,1.3-5.9-1.2-7.7c-2.4-1.8-5.9-1.3-7.7,1.2l-7.2,9.8v18.6L314.1,419.5L314.1,419.5z"/>
	<path class="st8" d="M309.7,442.5h-11.6v11h0.8l-0.8,1.1v18.6l16-21.9c1.2-1.7,1.4-3.9,0.5-5.7
		C313.6,443.6,311.7,442.5,309.7,442.5L309.7,442.5z"/>
</g>
</svg>
