<?xml version="1.0" encoding="utf-8"?>
<!-- Generator: Adobe Illustrator 22.0.0, SVG Export Plug-In . SVG Version: 6.00 Build 0)  -->
<svg version="1.1" id="Layer_1" xmlns="http://www.w3.org/2000/svg" xmlns:xlink="http://www.w3.org/1999/xlink" x="0px" y="0px"
	 viewBox="0 0 595.3 841.9" style="enable-background:new 0 0 595.3 841.9;" xml:space="preserve">
<style type="text/css">
	.st0{fill:#FAAE20;}
	.st1{clip-path:url(#XMLID_2_);fill:#F7912B;}
	.st2{fill:#FFFFFF;}
	.st3{fill:#D42328;}
	.st4{fill:#F16262;}
	.st5{fill:#AAC7D0;}
	.st6{fill:#35373B;}
	.st7{fill:#D7E4E9;}
</style>
<circle id="XMLID_282_" class="st0" cx="286.1" cy="430.5" r="181"/>
<g id="XMLID_279_">
	<defs>
		<circle id="XMLID_280_" cx="286.1" cy="430.5" r="181"/>
	</defs>
	<clipPath id="XMLID_2_">
		<use xlink:href="#XMLID_280_"  style="overflow:visible;"/>
	</clipPath>
	<path id="XMLID_281_" class="st1" d="M347.8,288.6l174,154.5c0,114.2,0,228.3,0,342.5c-97.7-72.2-195.4-144.5-293.2-216.7
		L347.8,288.6z"/>
</g>
<g id="XMLID_262_">
	<path id="XMLID_264_" class="st2" d="M272.7,570.2c-0.1,0-0.3,0-0.4,0c-9.6-1-19.1-3-28.3-5.9c-2.3-0.7-3.5-3.2-2.8-5.5
		c0.7-2.3,3.2-3.5,5.5-2.8c8.6,2.8,17.5,4.6,26.5,5.6c2.4,0.2,4.1,2.4,3.9,4.8C276.8,568.5,274.9,570.2,272.7,570.2z M300.6,570.1
		c-2.2,0-4.1-1.7-4.3-3.9c-0.2-2.4,1.5-4.5,3.9-4.8c9-0.9,17.9-2.8,26.5-5.6c2.3-0.7,4.7,0.5,5.5,2.8c0.7,2.3-0.5,4.7-2.8,5.5
		c-9.1,3-18.6,5-28.2,6C300.9,570.1,300.8,570.1,300.6,570.1z M219.7,553c-0.7,0-1.5-0.2-2.2-0.6c-8.3-4.8-16.2-10.5-23.4-17
		c-1.8-1.6-1.9-4.3-0.3-6.1c1.6-1.8,4.3-1.9,6.1-0.3c6.7,6,14.1,11.4,21.9,15.9c2.1,1.2,2.8,3.8,1.6,5.9
		C222.7,552.3,221.2,553,219.7,553z M353.5,552.9c-1.5,0-2.9-0.8-3.7-2.2c-1.2-2.1-0.5-4.7,1.6-5.9c7.8-4.5,15.2-9.9,21.9-15.9
		c1.8-1.6,4.5-1.5,6.1,0.3c1.6,1.8,1.5,4.5-0.3,6.1c-7.2,6.5-15,12.2-23.3,17C355,552.7,354.3,552.9,353.5,552.9z M178.4,515.9
		c-1.3,0-2.7-0.6-3.5-1.8c-5.7-7.8-10.6-16.2-14.5-25c-1-2.2,0-4.7,2.2-5.7c2.2-1,4.7,0,5.7,2.2c3.7,8.2,8.3,16.1,13.6,23.4
		c1.4,1.9,1,4.6-0.9,6.1C180.1,515.6,179.3,515.9,178.4,515.9z M394.8,515.7c-0.9,0-1.8-0.3-2.5-0.8c-1.9-1.4-2.4-4.1-1-6
		c5.3-7.3,9.9-15.2,13.5-23.4c1-2.2,3.5-3.2,5.7-2.2c2.2,1,3.2,3.5,2.2,5.7c-3.9,8.8-8.8,17.2-14.5,25
		C397.5,515,396.2,515.7,394.8,515.7z M155.6,465.1c-2,0-3.8-1.4-4.2-3.4c-2-9.4-3-19-3-28.7c0-2.4,1.9-4.3,4.3-4.3c0,0,0,0,0,0
		c2.4,0,4.3,1.9,4.3,4.3c0,9.1,1,18.1,2.9,26.9c0.5,2.3-1,4.6-3.3,5.1C156.2,465.1,155.9,465.1,155.6,465.1z M417.5,464.9
		c-0.3,0-0.6,0-0.9-0.1c-2.3-0.5-3.8-2.8-3.3-5.1c1.9-8.8,2.8-17.8,2.8-26.9v-0.5c0-2.4,1.9-4.3,4.3-4.4c2.5-0.1,4.3,1.9,4.4,4.3
		v0.6c0,9.6-1,19.3-3,28.7C421.3,463.5,419.5,464.9,417.5,464.9z M155.5,409.5c-0.3,0-0.6,0-0.9-0.1c-2.3-0.5-3.8-2.8-3.4-5.1
		c2-9.4,5-18.7,8.9-27.5c1-2.2,3.5-3.2,5.7-2.2c2.2,1,3.2,3.5,2.2,5.7c-3.7,8.3-6.4,16.9-8.3,25.8
		C159.3,408.1,157.5,409.5,155.5,409.5z M417.4,408.7c-2,0-3.8-1.4-4.2-3.4c-1.9-8.8-4.7-17.5-8.5-25.7c-1-2.2,0-4.7,2.2-5.7
		s4.7,0,5.7,2.2c4,8.8,7,18,9,27.4c0.5,2.3-1,4.6-3.3,5.1C418,408.7,417.7,408.7,417.4,408.7z M178.1,358.6c-0.9,0-1.8-0.3-2.5-0.8
		c-1.9-1.4-2.4-4.1-1-6c5.6-7.8,12.1-15,19.3-21.5c1.8-1.6,4.5-1.5,6.1,0.3s1.5,4.5-0.3,6.1c-6.7,6.1-12.8,12.8-18.1,20.2
		C180.7,358,179.4,358.6,178.1,358.6z M394.5,358c-1.3,0-2.6-0.6-3.5-1.8c-5.3-7.3-11.5-14-18.2-20c-1.8-1.6-1.9-4.3-0.3-6.1
		c1.6-1.8,4.3-1.9,6.1-0.3c7.2,6.4,13.7,13.6,19.4,21.4c1.4,1.9,1,4.6-0.9,6.1C396.3,357.7,395.4,358,394.5,358z M219.3,321.3
		c-1.5,0-2.9-0.8-3.7-2.2c-1.2-2.1-0.5-4.7,1.6-5.9c8.3-4.9,17.2-8.8,26.3-11.8c2.3-0.7,4.7,0.5,5.5,2.8c0.7,2.3-0.5,4.7-2.8,5.5
		c-8.6,2.8-16.9,6.5-24.7,11.1C220.8,321.1,220,321.3,219.3,321.3z M353.1,320.9c-0.7,0-1.5-0.2-2.2-0.6
		c-7.8-4.5-16.2-8.2-24.7-10.9c-2.3-0.7-3.5-3.2-2.8-5.4c0.7-2.3,3.2-3.5,5.4-2.8c9.2,2.9,18,6.9,26.4,11.7c2.1,1.2,2.8,3.8,1.6,5.9
		C356,320.1,354.6,320.9,353.1,320.9z M272.1,304c-2.2,0-4.1-1.6-4.3-3.9c-0.3-2.4,1.5-4.5,3.8-4.8c9.5-1,19.3-1,28.9-0.1
		c2.4,0.2,4.1,2.4,3.9,4.7c-0.2,2.4-2.4,4.1-4.7,3.9c-8.9-0.9-18.1-0.9-27.1,0.1C272.5,303.9,272.3,304,272.1,304z"/>
</g>
<g id="XMLID_249_">
	<path id="XMLID_251_" class="st2" d="M272.9,532.8c-0.2,0-0.4,0-0.6,0c-9.6-1.4-18.8-4.1-27.6-8.1c-2.2-1-3.1-3.6-2.1-5.7
		c1-2.2,3.6-3.1,5.7-2.1c8,3.7,16.5,6.1,25.2,7.4c2.4,0.3,4,2.5,3.7,4.9C276.8,531.2,275,532.8,272.9,532.8z M300.4,532.8
		c-2.1,0-4-1.6-4.3-3.7c-0.3-2.4,1.3-4.6,3.7-4.9c8.7-1.3,17.2-3.7,25.2-7.4c2.2-1,4.7,0,5.7,2.1s0,4.7-2.1,5.7
		c-8.8,4-18,6.7-27.6,8.1C300.8,532.8,300.6,532.8,300.4,532.8z M223.3,510.2c-1,0-2-0.3-2.8-1.1c-7.3-6.3-13.6-13.6-18.9-21.7
		c-1.3-2-0.7-4.7,1.3-6c2-1.3,4.7-0.7,6,1.3c4.8,7.4,10.6,14.1,17.3,19.8c1.8,1.6,2,4.3,0.4,6.1
		C225.7,509.7,224.5,510.2,223.3,510.2z M349.9,510.1c-1.2,0-2.4-0.5-3.3-1.5c-1.6-1.8-1.4-4.5,0.4-6.1c6.7-5.8,12.5-12.5,17.2-19.9
		c1.3-2,4-2.6,6-1.3c2,1.3,2.6,4,1.3,6c-5.2,8.1-11.5,15.4-18.8,21.7C351.9,509.8,350.9,510.1,349.9,510.1z M193.7,464.5
		c-1.9,0-3.6-1.2-4.2-3.1c-2.7-9.2-4.1-18.8-4.1-28.4c0-2.4,1.9-4.3,4.3-4.3c0,0,0,0,0,0c2.4,0,4.3,1.9,4.3,4.3
		c0,8.9,1.3,17.6,3.8,26c0.7,2.3-0.6,4.7-2.9,5.4C194.6,464.4,194.1,464.5,193.7,464.5z M379.4,464.3c-0.4,0-0.8-0.1-1.2-0.2
		c-2.3-0.7-3.6-3.1-2.9-5.4c2.5-8.4,3.7-17.2,3.7-26v-0.4c0-2.4,1.9-4.3,4.3-4.3s4.3,1.9,4.3,4.3v0.3c0,9.7-1.4,19.3-4.1,28.5
		C383,463,381.2,464.3,379.4,464.3z M193.6,410c-0.4,0-0.8-0.1-1.2-0.2c-2.3-0.7-3.6-3.1-3-5.4c2.7-9.2,6.7-18.1,11.9-26.2
		c1.3-2,4-2.6,6-1.3c2,1.3,2.6,4,1.3,6c-4.8,7.4-8.4,15.5-10.9,23.9C197.2,408.7,195.5,410,193.6,410z M379.3,409.4
		c-1.9,0-3.6-1.2-4.2-3.1c-2.5-8.4-6.2-16.5-11-23.9c-1.3-2-0.7-4.7,1.3-6c2-1.3,4.7-0.7,6,1.3c5.3,8.1,9.3,16.9,12.1,26.1
		c0.7,2.3-0.6,4.7-2.9,5.4C380.1,409.4,379.7,409.4,379.3,409.4z M223,364.1c-1.2,0-2.4-0.5-3.3-1.5c-1.6-1.8-1.4-4.5,0.4-6.1
		c7.3-6.3,15.4-11.6,24.1-15.6c2.2-1,4.7-0.1,5.7,2.1c1,2.2,0.1,4.7-2.1,5.7c-8,3.7-15.4,8.5-22.1,14.3
		C225,363.7,224,364.1,223,364.1z M349.6,363.7c-1,0-2-0.3-2.8-1.1c-6.7-5.8-14.1-10.5-22.2-14.2c-2.2-1-3.1-3.6-2.2-5.7
		c1-2.2,3.6-3.1,5.7-2.2c8.8,4,16.9,9.2,24.2,15.5c1.8,1.6,2,4.3,0.5,6.1C352,363.2,350.8,363.7,349.6,363.7z M272.5,341.3
		c-2.1,0-4-1.6-4.3-3.7c-0.3-2.4,1.3-4.6,3.7-4.9c9.4-1.4,19.3-1.4,28.7-0.1c2.4,0.3,4,2.5,3.7,4.9c-0.3,2.4-2.5,4-4.9,3.7
		c-8.7-1.2-17.7-1.2-26.3,0.1C272.9,341.3,272.7,341.3,272.5,341.3z"/>
</g>
<g id="XMLID_248_">
	<path id="XMLID_247_" class="st3" d="M325.8,446.6l25.6-144.5c0.7-4-1.4-8-5.2-9.6c-3.7-1.6-8.1-0.4-10.5,2.9l-86.3,118.7
		c-1.8,2.4-2.2,5.6-1,8.4l17.5,43.3c0.9,2.2,2.6,3.9,4.7,4.8c2.1,0.9,4.5,1,6.7,0.1l43.3-17.5C323.2,452.1,325.2,449.6,325.8,446.6z
		"/>
</g>
<g id="XMLID_246_">
	<path id="XMLID_245_" class="st4" d="M335.6,295.4l-86.3,118.7c-1.8,2.4-2.2,5.6-1,8.4l17.5,43.3c0.9,2.2,2.6,3.9,4.7,4.8
		l75.7-178.1C342.4,290.9,338,292.1,335.6,295.4z"/>
</g>
<g id="XMLID_244_">
	<path id="XMLID_243_" class="st5" d="M248,416.7c-0.3,0.7-0.5,1.3-0.7,2.1l-25.6,144.5c-0.7,4,1.4,8,5.2,9.6
		c3.7,1.6,8.1,0.4,10.5-2.9l86.3-118.7c0.4-0.6,0.8-1.2,1-1.9L248,416.7z"/>
</g>
<g id="XMLID_242_">
	<path id="XMLID_241_" class="st2" d="M286.4,433.1l-59.4,139.8c3.7,1.6,8.1,0.4,10.5-2.9l86.3-118.7c0.4-0.6,0.8-1.2,1-1.9
		L286.4,433.1z"/>
</g>
<path id="XMLID_237_" class="st6" d="M240.9,572.5l86.3-118.7c0,0,0-0.1,0.1-0.1c1.3-0.3,2.4-1.1,3-2.4c0.6-1.3,0.4-2.7-0.3-3.8
	c0,0,0-0.1,0-0.1l25.6-144.5c1.1-6-2.1-11.9-7.8-14.3c-5.6-2.4-12.1-0.6-15.7,4.3l-86.3,118.7c0,0,0,0.1-0.1,0.1
	c-1.3,0.3-2.4,1.1-3,2.4c-0.5,1.1-0.4,2.3,0,3.3c0.1,0.2,0.2,0.3,0.3,0.5c0,0,0,0.1,0,0.1l-25.6,144.5c-0.4,2.5-0.2,5,0.7,7.2
	c1.3,3.1,3.7,5.7,7,7.1C230.9,579.2,237.3,577.5,240.9,572.5z M339.1,298c1.2-1.7,3.4-2.3,5.3-1.5c1.9,0.8,3,2.8,2.6,4.8L322,443.1
	l-67.5-28.7L339.1,298z M228.6,568.9c-1.9-0.8-3-2.8-2.6-4.8l25.1-141.7l67.5,28.7l-84.7,116.4C232.7,569.1,230.5,569.7,228.6,568.9
	z"/>
<g id="XMLID_236_">
	<circle id="XMLID_235_" class="st2" cx="286.5" cy="432.7" r="25.5"/>
</g>
<g id="XMLID_234_">
	<path id="XMLID_233_" class="st7" d="M277,409.1c13.1-5.3,27.9,1,33.2,14.1c5.3,13.1-1.1,27.9-14.1,33.2"/>
</g>
<g id="XMLID_230_">
	<path id="XMLID_20_" class="st6" d="M258.9,443.9c-6.1-15.2,1.3-32.7,16.5-38.8c15.3-6.2,32.7,1.2,38.8,16.5
		c6.1,15.2-1.3,32.7-16.5,38.8C282.4,466.5,265,459.1,258.9,443.9z M306.2,424.8c-4.4-10.8-16.7-16.1-27.5-11.7
		c-10.8,4.4-16.1,16.7-11.7,27.5c4.4,10.8,16.7,16.1,27.5,11.7C305.3,448,310.5,435.6,306.2,424.8z"/>
</g>
</svg>
