<?xml version="1.0" encoding="utf-8"?>
<!-- Generator: Adobe Illustrator 22.0.0, SVG Export Plug-In . SVG Version: 6.00 Build 0)  -->
<svg version="1.1" id="Layer_1" xmlns="http://www.w3.org/2000/svg" xmlns:xlink="http://www.w3.org/1999/xlink" x="0px" y="0px"
	 viewBox="0 0 595.3 841.9" style="enable-background:new 0 0 595.3 841.9;" xml:space="preserve">
<style type="text/css">
	.st0{fill:#16AB93;}
	.st1{clip-path:url(#SVGID_2_);fill:#1B9279;}
	.st2{fill:#473936;}
	.st3{fill:#F79D89;}
	.st4{fill:#FFFFFF;}
	.st5{clip-path:url(#SVGID_4_);fill:#F9D4C6;}
	.st6{fill:#FFD24E;}
</style>
<circle class="st0" cx="281.9" cy="466.2" r="181"/>
<g>
	<defs>
		<circle id="SVGID_1_" cx="281.9" cy="466.2" r="181"/>
	</defs>
	<clipPath id="SVGID_2_">
		<use xlink:href="#SVGID_1_"  style="overflow:visible;"/>
	</clipPath>
	<path class="st1" d="M345.1,365.2l175.3,153.1c0.2,130.6,0.4,261.1,0.6,391.7c-100-95.9-200.1-191.8-300.1-287.8
		C262.3,536.6,303.7,450.9,345.1,365.2z"/>
</g>
<path class="st2" d="M358.3,599.8l-76.4,11.5l-76.4-11.5c0-14.5,0-196,0-210.8l76.4-11.5l76.4,11.5V599.8z"/>
<g>
	<path class="st3" d="M290.9,557.8l-17.1-0.8l-0.8-17.1c4.9-4.9,12.9-4.9,17.9,0C295.9,544.9,295.9,552.9,290.9,557.8z"/>
	<path class="st3" d="M273,539.9l-17.1-0.8l-0.8-17.1c4.9-4.9,12.9-4.9,17.9,0S278,535,273,539.9z"/>
	<path class="st3" d="M255.2,522l-17.1-0.8l-0.8-17.1c4.9-4.9,12.9-4.9,17.9,0C260.1,509.1,260.1,517.1,255.2,522z"/>
</g>
<g>
	<path class="st4" d="M358.3,389.1H205.5c0-0.1,0-0.3,0-0.4c0-12.9,10.6-23.5,23.5-23.5h105.7c12.9,0,23.5,10.6,23.5,23.5
		L358.3,389.1L358.3,389.1z"/>
	<path class="st4" d="M358.3,600.2c0,12.9-10.6,23.5-23.5,23.5H229c-12.9,0-23.5-10.6-23.5-23.5c0-0.1,0-0.2,0-0.4h152.7V600.2z"/>
</g>
<g>
	<defs>
		<circle id="SVGID_3_" cx="281.9" cy="466.2" r="181"/>
	</defs>
	<clipPath id="SVGID_4_">
		<use xlink:href="#SVGID_3_"  style="overflow:visible;"/>
	</clipPath>
	<path class="st5" d="M237.3,504.2l52.9-52.9c4.9-4.9,4.9-12.9,0-17.9c-4.9-4.9-12.9-4.9-17.9,0c0,0-73.8,73.8-85.5,85.5
		c-12,12-16.9,28.3-14.5,43.9l-60.8,60.8h84.1l18.8-18.8c15.6,2.4,31.9-2.5,43.9-14.5c13.4-13.4,32.6-32.6,32.6-32.6L237.3,504.2z"
		/>
</g>
<path class="st6" d="M298,472.1c-1.4,0-2.9-0.7-3.7-2c-1.2-2-0.6-4.7,1.4-5.9c7.9-4.9,12.6-13.3,12.6-22.5
	c0-14.6-11.9-26.5-26.5-26.5c-9.3,0-18,5-22.8,13c-1.2,2-3.9,2.7-5.9,1.5c-2-1.2-2.7-3.9-1.5-5.9c6.3-10.6,17.9-17.2,30.2-17.2
	c19.3,0,35.1,15.7,35.1,35.1c0,12.3-6.2,23.4-16.7,29.9C299.6,471.9,298.8,472.1,298,472.1z"/>
<circle class="st6" cx="339.7" cy="500.5" r="5.5"/>
<circle class="st6" cx="339.7" cy="579.1" r="5.5"/>
<circle class="st6" cx="287.7" cy="579.1" r="5.5"/>
<circle class="st6" cx="339.7" cy="435.2" r="5.5"/>
<circle class="st6" cx="228.3" cy="435.2" r="5.5"/>
<circle class="st6" cx="287.2" cy="505.9" r="5.5"/>
</svg>
