<?xml version="1.0" encoding="utf-8"?>
<!-- Generator: Adobe Illustrator 22.0.0, SVG Export Plug-In . SVG Version: 6.00 Build 0)  -->
<svg version="1.1" id="Layer_1" xmlns="http://www.w3.org/2000/svg" xmlns:xlink="http://www.w3.org/1999/xlink" x="0px" y="0px"
	 viewBox="0 0 595.3 841.9" style="enable-background:new 0 0 595.3 841.9;" xml:space="preserve">
<style type="text/css">
	.st0{fill:#0FAB92;}
	.st1{clip-path:url(#XMLID_2_);fill:#0E7C67;}
	.st2{fill:#FFFFFF;}
	.st3{clip-path:url(#XMLID_3_);fill:#FFFFFF;}
</style>
<circle id="XMLID_306_" class="st0" cx="255.6" cy="361.5" r="181"/>
<g id="XMLID_303_">
	<defs>
		<circle id="XMLID_304_" cx="255.6" cy="361.5" r="181"/>
	</defs>
	<clipPath id="XMLID_2_">
		<use xlink:href="#XMLID_304_"  style="overflow:visible;"/>
	</clipPath>
	<path id="XMLID_305_" class="st1" d="M338.9,260l182.5,119.1c0.3,93.8,0.6,187.6,0.9,281.4c-116.2-71.7-232.4-143.3-348.6-215
		C228.7,383.7,283.8,321.9,338.9,260z"/>
</g>
<path id="XMLID_302_" class="st2" d="M199.3,379.7c-2.1-1-4.5-0.6-6.2,0.9l-23.3,19.9c-1.3,1.1-2,2.7-2,4.4v34.9
	c0,3.2,2.6,5.8,5.8,5.8h23.3c3.2,0,5.8-2.6,5.8-5.8V385C202.7,382.7,201.4,380.7,199.3,379.7L199.3,379.7z"/>
<path id="XMLID_301_" class="st2" d="M245.9,339.8c-2-1-4.5-0.6-6.2,0.9l-23.3,19.9c-1.3,1.1-2,2.7-2,4.4v74.8
	c0,3.2,2.6,5.8,5.8,5.8h23.3c3.2,0,5.8-2.6,5.8-5.8v-94.7C249.2,342.8,247.9,340.8,245.9,339.8L245.9,339.8z"/>
<g id="XMLID_16_">
	<defs>
		<rect id="XMLID_134_" x="156.2" y="259.5" width="186.1" height="186.1"/>
	</defs>
	<use xlink:href="#XMLID_134_"  style="display:none;overflow:visible;fill:#FFFFFF;"/>
	<clipPath id="XMLID_3_">
		<use xlink:href="#XMLID_134_"  style="display:none;overflow:visible;"/>
	</clipPath>
	<path id="XMLID_300_" class="st3" d="M292.4,299.9c-2.1-1-4.5-0.6-6.2,0.9l-23.3,19.9c-1.3,1.1-2,2.7-2,4.4v114.7
		c0,3.2,2.6,5.8,5.8,5.8H290c3.2,0,5.8-2.6,5.8-5.8V305.2C295.8,302.9,294.5,300.9,292.4,299.9L292.4,299.9z"/>
	<path id="XMLID_299_" class="st3" d="M338.9,260c-2-1-4.5-0.6-6.2,0.9l-23.3,19.9c-1.3,1.1-2,2.7-2,4.4v154.6
		c0,3.2,2.6,5.8,5.8,5.8h23.3c3.2,0,5.8-2.6,5.8-5.8V265.3C342.3,263.1,341,261,338.9,260L338.9,260z"/>
</g>
</svg>
