<?xml version="1.0" encoding="utf-8"?>
<!-- Generator: Adobe Illustrator 22.0.0, SVG Export Plug-In . SVG Version: 6.00 Build 0)  -->
<svg version="1.1" id="Layer_1" xmlns="http://www.w3.org/2000/svg" xmlns:xlink="http://www.w3.org/1999/xlink" x="0px" y="0px"
	 viewBox="0 0 595.3 841.9" style="enable-background:new 0 0 595.3 841.9;" xml:space="preserve">
<style type="text/css">
	.st0{fill:#A2C83A;}
	.st1{clip-path:url(#XMLID_2_);fill:#0E7C67;}
	.st2{fill:#E6E7E7;}
	.st3{fill:#FFFFFF;}
</style>
<circle id="XMLID_109_" class="st0" cx="285.1" cy="412.6" r="181"/>
<g id="XMLID_106_">
	<defs>
		<circle id="XMLID_107_" cx="285.1" cy="412.6" r="181"/>
	</defs>
	<use xlink:href="#XMLID_107_"  style="overflow:visible;fill:#16AB93;"/>
	<clipPath id="XMLID_2_">
		<use xlink:href="#XMLID_107_"  style="overflow:visible;"/>
	</clipPath>
	<path id="XMLID_108_" class="st1" d="M285.1,297.6c22.1-1,55.4,0.3,93.2,13.4c1.1,0.4,8.1-14.2,15.7-11
		c19.6,8.3,56.6,39.8,97.6,86.7c0,72.5,0,150,0,222.5l-206.5-81.5V297.6z"/>
</g>
<g id="XMLID_101_">
	<path id="XMLID_103_" class="st2" d="M389.7,297.6H180.5c-5.8,0-10.5,4.7-10.5,10.5v209.1c0,5.8,4.7,10.5,10.5,10.5h209.1
		c5.8,0,10.5-4.7,10.5-10.5V308C400.1,302.2,395.4,297.6,389.7,297.6z M379.2,506.7H191V318.5h188.2L379.2,506.7L379.2,506.7z"/>
	<path id="XMLID_102_" class="st2" d="M222.4,485.8h125.5c5.8,0,10.5-4.7,10.5-10.5V349.8c0-5.8-4.7-10.5-10.5-10.5h-62.7
		c-5.8,0-10.5,4.7-10.5,10.5V383c-12.2,4.3-20.9,15.9-20.9,29.6c0,17.3,14.1,31.4,31.4,31.4c17.3,0,31.4-14.1,31.4-31.4
		c0-13.6-8.7-25.3-20.9-29.6v-22.7h41.8v104.6H232.8V360.3h3.5c5.8,0,10.5-4.7,10.5-10.5s-4.7-10.5-10.5-10.5h-13.9
		c-5.8,0-10.5,4.7-10.5,10.5v125.5C211.9,481.1,216.6,485.8,222.4,485.8z"/>
</g>
<g id="XMLID_3_">
	<path id="XMLID_100_" class="st3" d="M191,506.7V318.5h94.1v-20.9H180.5c-5.8,0-10.5,4.7-10.5,10.5v209.1c0,5.8,4.7,10.5,10.5,10.5
		h104.6v-20.9H191L191,506.7z"/>
	<path id="XMLID_99_" class="st3" d="M274.6,349.8V383c-12.2,4.3-20.9,15.9-20.9,29.6c0,17.3,14.1,31.4,31.4,31.4V339.4
		C279.3,339.4,274.6,344.1,274.6,349.8z"/>
	<path id="XMLID_98_" class="st3" d="M232.8,464.9V360.3h3.5c5.8,0,10.5-4.7,10.5-10.5s-4.7-10.5-10.5-10.5h-13.9
		c-5.8,0-10.5,4.7-10.5,10.5v125.5c0,5.8,4.7,10.5,10.5,10.5h62.7v-20.9H232.8z"/>
</g>
</svg>
