<?xml version="1.0" encoding="utf-8"?>
<!-- Generator: Adobe Illustrator 22.0.0, SVG Export Plug-In . SVG Version: 6.00 Build 0)  -->
<svg version="1.1" id="Layer_1" xmlns="http://www.w3.org/2000/svg" xmlns:xlink="http://www.w3.org/1999/xlink" x="0px" y="0px"
	 viewBox="0 0 595.3 841.9" style="enable-background:new 0 0 595.3 841.9;" xml:space="preserve">
<style type="text/css">
	.st0{fill:#A2C83A;}
	.st1{clip-path:url(#SVGID_2_);fill:#8BAA3D;}
	.st2{fill:#939598;}
	.st3{fill:#FFFFFF;}
	.st4{fill:#405B6D;}
</style>
<circle class="st0" cx="263.7" cy="434.6" r="196"/>
<g>
	<defs>
		<circle id="SVGID_1_" cx="263.7" cy="434.6" r="196"/>
	</defs>
	<clipPath id="SVGID_2_">
		<use xlink:href="#SVGID_1_"  style="overflow:visible;"/>
	</clipPath>
	<path class="st1" d="M302.6,280.6C391.8,335,480.9,389.5,570,444c-3,106.7-6,213.3-9,320c-106.9-59.5-213.8-119-320.6-178.5
		c16.5-69.4,33-138.9,49.5-208.3L302.6,280.6z"/>
</g>
<path class="st2" d="M168.8,338.5c-3.7-11.2,2.5-23.6,13.7-27.4c1.2-0.6,3.1-0.6,4.4-1.2l97.7-21.8c2.5-0.6,5-0.6,6.8-0.6
	c8.1,0,18,3.1,21.8,18.7l2.5,11.8l-144.4,33L168.8,338.5z"/>
<path class="st3" d="M315.6,317.3l-144.4,32.4L198.7,471l0,0l14.3,64.1l144.4-32.4L315.6,317.3z"/>
<path class="st2" d="M240.4,579.3c-6.2,0-17.4-2.5-21.2-18.7l-5.6-24.9L358,503.4l5.6,24.9c1.2,4.4,1.2,9.3,0,13.7
	c-2.5,8.1-9.3,13.7-18,14.9l-97.7,21.8C245.3,578.6,242.8,579.3,240.4,579.3L240.4,579.3z"/>
<path class="st4" d="M356.7,404.4c-3.1-0.6-6.8,1.2-7.5,4.4s0.6,5.6,3.1,6.8c15.6,6.2,25.5,13.7,25.5,19.9s-8.7,13.7-24.3,19.9
	l-34.2-151.2c-1.9-13.7-13.7-24.3-27.4-23.6c-3.1,0-5.6,0.6-8.7,1.2l-97.7,21.8c-15.6,2.5-26.1,16.2-23.6,31.7
	c0,1.2,0.6,3.1,1.2,4.4l27.4,123.8c-31.7-6.8-49.8-18-49.8-27.4c0-6.8,11.2-15.6,29.2-21.8c3.1-1.2,5-5,3.7-8.1
	c-1.2-3.1-5-5-8.1-3.7l0,0c-24.9,8.7-37.3,19.9-37.3,33.6c0,20.5,30.5,33.6,65.3,40.4l19.3,85.2c1.9,13.7,13.7,23.6,27.4,23.6
	c3.1,0,5.6-0.6,8.7-1.2l97.7-21.8c10.6-1.2,19.3-9.3,22.4-19.3c1.2-5.6,1.2-11.2,0-16.8l-13.1-58.5c19.9-7.5,33.6-18,33.6-31.7
	C389.7,427.4,384.1,415,356.7,404.4z M175,337.2c-3.1-8.1,1.2-17.4,9.3-19.9c1.2-0.6,2.5-0.6,4.4-1.2l97.7-21.8
	c1.9-0.6,3.7-0.6,5.6-0.6c8.1,0,13.1,4.4,15.6,14.3l1.2,5.6l-131.9,29.9L175,337.2z M206.8,478.5c7.5,1.2,14.9,1.9,22.4,2.5h0.6
	c3.7,0,6.2-2.5,6.2-6.2s-2.5-6.2-6.2-6.2c-9.3-0.6-18-1.9-26.1-3.1L178.8,354l131.9-29.9l30.5,135c-13.1,3.7-26.8,6.2-40.4,8.1
	l10-11.8c2.5-2.5,2.5-6.2,0-8.7c-2.5-2.5-6.2-2.5-8.7,0l-0.6,0.6L282,471c0,0,0,0.6-0.6,0.6c-0.6,0.6-0.6,1.2-0.6,2.5
	c0,0.6,0,0.6,0,1.2s0,0.6,0,1.2s0,0.6,0,1.2s0.6,0.6,0.6,1.2c0,0,0,0.6,0.6,0.6l19.3,19.9c2.5,2.5,6.2,2.5,8.7,0
	c2.5-2.5,2.5-6.2,0-8.7l0,0l-10-10.6c14.9-1.9,29.2-4.4,43.6-8.1l6.2,26.1L218,528.2L206.8,478.5z M357.3,528.9
	c0.6,3.7,0.6,6.8,0,10.6c-1.9,5.6-7.5,10-13.7,10.6l-97.1,22.4c-8.1,3.1-17.4-1.2-19.9-9.3c-0.6-1.2-0.6-2.5-1.2-4.4l-4.4-19.3
	L353,509.6L357.3,528.9z"/>
<path class="st3" d="M305.7,531.4l-33.6,7.5c-3.7,0.6-6.2,3.7-5.6,6.8c0.6,3.1,3.7,6.2,6.8,5.6h1.2l33.6-7.5c3.7-0.6,5.6-4.4,5-7.5
	C312.5,532.6,309.4,530.1,305.7,531.4L305.7,531.4z"/>
</svg>
