<?xml version="1.0" encoding="utf-8"?>
<!-- Generator: Adobe Illustrator 22.0.0, SVG Export Plug-In . SVG Version: 6.00 Build 0)  -->
<svg version="1.1" id="Layer_1" xmlns="http://www.w3.org/2000/svg" xmlns:xlink="http://www.w3.org/1999/xlink" x="0px" y="0px"
	 viewBox="0 0 595.3 841.9" style="enable-background:new 0 0 595.3 841.9;" xml:space="preserve">
<style type="text/css">
	.st0{fill:#EF3953;}
	.st1{fill:#A31C46;}
	.st2{fill:#FFC71E;}
	.st3{fill:#EBA230;}
	.st4{fill:#FDE187;}
</style>
<g id="XMLID_126_">
	<circle id="XMLID_125_" class="st0" cx="297.8" cy="468.5" r="181"/>
	<path id="XMLID_124_" class="st1" d="M366.9,397.8l-23.2-6.7l-39.3-36.5l-7.1,53.4l-27.6-26.1l-52,42.3l-8.9,51.7l19.6,60.7
		l108.5,108.6C406.1,630,460.5,575.1,475,505.5L366.9,397.8z"/>
	<path id="XMLID_123_" class="st2" d="M297.8,565.5c-54.1,0-98.1-44-98.1-98.1c0-39,23.1-74.3,58.9-89.9c4.3-1.9,9.3,0.1,11.2,4.4
		c1.9,4.3-0.1,9.3-4.4,11.2c-29.5,12.9-48.6,42.1-48.6,74.3c0,44.7,36.4,81.1,81.1,81.1s81.1-36.4,81.1-81.1
		c0-32.2-19.1-61.4-48.6-74.3c-4.3-1.9-6.3-6.9-4.4-11.2c1.9-4.3,6.9-6.3,11.2-4.4c35.8,15.6,58.9,50.9,58.9,89.9
		C395.9,521.5,351.9,565.5,297.8,565.5z"/>
	<path id="XMLID_122_" class="st3" d="M337,377.5c-4.3-1.9-9.3,0.1-11.2,4.4c-1.9,4.3,0.1,9.3,4.4,11.2
		c29.5,12.9,48.6,42.1,48.6,74.3c0,44.7-36.4,81.1-81.1,81.1c-0.1,0-0.3,0-0.4,0v17.1c0.1,0,0.3,0,0.4,0c54.1,0,98.1-44,98.1-98.1
		C395.9,428.4,372.8,393.1,337,377.5z"/>
	<path id="XMLID_4_" class="st4" d="M297.8,475.9c-4.7,0-8.5-3.8-8.5-8.5V359.9c0-4.7,3.8-8.5,8.5-8.5c4.7,0,8.5,3.8,8.5,8.5v107.5
		C306.3,472.1,302.5,475.9,297.8,475.9z"/>
	<path id="XMLID_3_" class="st2" d="M297.8,351.4c-0.1,0-0.3,0-0.4,0v124.5c0.1,0,0.3,0,0.4,0c4.7,0,8.5-3.8,8.5-8.5V359.9
		C306.3,355.2,302.5,351.4,297.8,351.4z"/>
</g>
</svg>
