<?xml version="1.0" encoding="utf-8"?>
<!-- Generator: Adobe Illustrator 22.0.0, SVG Export Plug-In . SVG Version: 6.00 Build 0)  -->
<svg version="1.1" id="Layer_1" xmlns="http://www.w3.org/2000/svg" xmlns:xlink="http://www.w3.org/1999/xlink" x="0px" y="0px"
	 viewBox="0 0 595.3 841.9" style="enable-background:new 0 0 595.3 841.9;" xml:space="preserve">
<style type="text/css">
	.st0{fill:#44B39C;}
	.st1{opacity:0.1;fill:#010101;enable-background:new    ;}
	.st2{fill:#F5C359;}
	.st3{fill:#DC8743;}
</style>
<g>
	<circle class="st0" cx="298.1" cy="588.3" r="181"/>
	<path class="st1" d="M343.1,496.6c-9-8.4-23.8-14.9-47.7-10.6c-6.5,1.2-13,3.7-18.3,7.8c-3.5,2.8-6.3,6.4-9.4,9.7
		c-4.1,4.2-8.9,7.7-14.1,10.4c-4.1,2.1-8.6,3.8-11.5,7.4c-3.9,4.8-3.7,11.6-2.5,17.6c2.1,9.9,6.9,19.6,5.7,29.6
		c-0.8,6.9-4.4,13-7.2,19.3c-2.9,6.3-5.2,13.4-3.3,20.1c1.7,6.2,6.9,11.8,5.5,18.1c-0.8,3.3-2.3,7-2.8,10.3
		c-4.6,27.9,3.9,42.3,13.8,49.5l80.5,80.5c70.9-13.3,127.3-68,143-138L345.9,499.4L343.1,496.6z"/>
	<path class="st2" d="M240.3,625.9c1.5-6.3-3.8-11.9-5.5-18.1c-1.9-6.7,0.4-13.7,3.3-20c2.9-6.3,6.4-12.5,7.2-19.3
		c1.2-10-3.6-19.7-5.7-29.6c-1.3-6-1.4-12.9,2.4-17.6c2.9-3.6,7.4-5.3,11.5-7.4c5.2-2.7,10-6.2,14.1-10.5c3.1-3.2,5.9-6.9,9.4-9.6
		c5.3-4.1,11.7-6.6,18.3-7.8c49-8.8,59.6,28,61.1,32.3c4.4,12.9,6.9,26.7,4.9,40.2c-1,7.1-3.2,14.1-5.5,20.9
		c-6.2,19.1-13.3,38.8-27.6,52.9c-6.3,6.2-22.4,28.3-26.4,40c-1.3,3.6-3.3,6.9-5.7,9.9c-6.1,7.7-16.8,9.9-26.6,9.9
		c-10.6,0-40-8.8-32.3-55.8C238,632.9,239.5,629.2,240.3,625.9z"/>
	<path class="st3" d="M264.2,611.8c-2,4.5-5.6,8.3-6.3,13.4c-0.3,2,0,4,1,5.7c2.7,4.7,8.2,3.6,11.2,0.6c2.2-2.2,3.3-5.2,4.1-8.2
		c0.3-1.1,0.6-2.3,1.4-3.1c1.2-1.3,3.1-1.7,4.8-2c10.1-2,19.7-7.1,26.2-15.1c7.5-9.2,10.3-21.5,10.2-33.4c-0.1-10-2.1-19.8-4.4-29.5
		c-0.7-3,2.1-5.8,5-4.9c5,1.5,9.4,5.1,12.1,9.6c3.9,6.4,4.8,14.1,4.6,21.5c-0.9,24.9-14.7,47.5-31,66.3
		c15.9-8.9,26.6-25.2,32.4-42.4c4.2-12.6,6.1-26,5.6-39.3c-0.5-13.1-4.4-27.5-15.3-34.7c-7.5-4.9-17.1-5.5-26-5
		c-7.7,0.4-15.6,1.7-22,5.9c-1.7,1.1-3.4,2.5-4.4,4.3c-0.7,1.2-1.1,2.5-1.5,3.8c-1.4,5.4-2.3,11-2.6,16.6c-0.2,3.7-0.3,7.4,0.8,11
		c0.9,3.1,2.7,5.8,4.4,8.5c6.8,10.6,14.8,22,27.6,24.2c1.6,0.3,3.1,1.1,4,2.5c2.7,3.9-1.4,7.3-5.2,8.2c-6.6,1.6-13.7-0.5-19.5-4.1
		c-3-1.9-5.7-4.2-8.2-6.6c-1.8-1.7-3.9-5.2-6.5-5.6c-0.2,0-0.3,0.1-0.4,0.2c-1.7,4.4,0.1,11.4,0.2,16.1
		C266.6,601.4,266.4,606.9,264.2,611.8z"/>
</g>
</svg>
