<?xml version="1.0" encoding="utf-8"?>
<!-- Generator: Adobe Illustrator 22.0.0, SVG Export Plug-In . SVG Version: 6.00 Build 0)  -->
<svg version="1.1" id="Layer_1" xmlns="http://www.w3.org/2000/svg" xmlns:xlink="http://www.w3.org/1999/xlink" x="0px" y="0px"
	 viewBox="0 0 595.3 841.9" style="enable-background:new 0 0 595.3 841.9;" xml:space="preserve">
<style type="text/css">
	.st0{fill:#A2C83A;}
	.st1{clip-path:url(#XMLID_2_);fill:#8BAB3E;}
	.st2{fill:#2E8140;}
	.st3{fill:#ECD462;}
	.st4{fill:#384650;}
	.st5{fill:#293339;}
</style>
<circle id="XMLID_88_" class="st0" cx="262.2" cy="397.4" r="181"/>
<g id="XMLID_85_">
	<defs>
		<circle id="XMLID_86_" cx="262.2" cy="397.4" r="181"/>
	</defs>
	<clipPath id="XMLID_2_">
		<use xlink:href="#XMLID_86_"  style="overflow:visible;"/>
	</clipPath>
	<path id="XMLID_87_" class="st1" d="M313.2,259.5l201.4,139.6c-55.4,74.9-110.8,149.7-166.2,224.6
		c-68.9-48.4-137.8-96.7-206.7-145.1L313.2,259.5z"/>
</g>
<path id="XMLID_84_" class="st2" d="M336.8,276c-4.6,6.5-13.5,8.1-20,3.5c-6.5-4.6-8.1-13.5-3.5-20l-11.8-8.3L141.8,478.6l11.8,8.3
	c4.6-6.5,13.5-8.1,20-3.5s8.1,13.5,3.5,20l58.4,41c4.5,3.2,10.8,2.1,14-2.4l148.1-211c3.2-4.5,2.1-10.8-2.4-14L336.8,276z
	 M233.1,524.7c-8.5-3.4-10.4-14.3-3.6-20.3c3.2-2.8,8-3.7,12-2.1c8.5,3.4,10.4,14.3,3.6,20.3C241.9,525.4,237.1,526.3,233.1,524.7z
	 M362.5,340.4c-8.5-3.4-10.4-14.3-3.6-20.3c3.2-2.8,8-3.7,12-2.1c8.5,3.4,10.4,14.3,3.6,20.3C371.3,341.2,366.5,342,362.5,340.4z"/>
<g id="XMLID_70_">
	
		<rect id="XMLID_80_" x="356.6" y="343.3" transform="matrix(0.5746 -0.8184 0.8184 0.5746 -138.9794 447.8823)" class="st3" width="9.6" height="28.7"/>
	
		<rect id="XMLID_79_" x="348.3" y="355" transform="matrix(0.5746 -0.8184 0.8184 0.5746 -152.119 446.1267)" class="st3" width="9.6" height="28.7"/>
	
		<rect id="XMLID_78_" x="340.1" y="366.8" transform="matrix(0.5746 -0.8184 0.8184 0.5746 -165.2587 444.3712)" class="st3" width="9.6" height="28.7"/>
	
		<rect id="XMLID_77_" x="331.8" y="378.6" transform="matrix(0.5746 -0.8184 0.8184 0.5746 -178.3983 442.6156)" class="st3" width="9.6" height="28.7"/>
	
		<rect id="XMLID_76_" x="323.5" y="390.3" transform="matrix(0.5746 -0.8184 0.8184 0.5746 -191.5379 440.8601)" class="st3" width="9.6" height="28.7"/>
	
		<rect id="XMLID_75_" x="315.3" y="402.1" transform="matrix(0.5746 -0.8184 0.8184 0.5746 -204.6776 439.1045)" class="st3" width="9.6" height="28.7"/>
	
		<rect id="XMLID_74_" x="307" y="413.8" transform="matrix(0.5746 -0.8184 0.8184 0.5746 -217.8172 437.349)" class="st3" width="9.6" height="28.7"/>
	
		<rect id="XMLID_73_" x="298.8" y="425.6" transform="matrix(0.5746 -0.8184 0.8184 0.5746 -230.9568 435.5934)" class="st3" width="9.6" height="28.7"/>
	
		<rect id="XMLID_72_" x="290.5" y="437.4" transform="matrix(0.5746 -0.8184 0.8184 0.5746 -244.0965 433.8379)" class="st3" width="9.6" height="28.7"/>
	
		<rect id="XMLID_71_" x="282.3" y="449.1" transform="matrix(0.5746 -0.8184 0.8184 0.5746 -257.2361 432.0823)" class="st3" width="9.6" height="28.7"/>
	
		<rect id="XMLID_69_" x="274" y="460.9" transform="matrix(0.5746 -0.8184 0.8184 0.5746 -270.3757 430.3268)" class="st3" width="9.6" height="28.7"/>
	
		<rect id="XMLID_68_" x="265.7" y="472.7" transform="matrix(0.5746 -0.8184 0.8184 0.5746 -283.5154 428.5712)" class="st3" width="9.6" height="28.7"/>
	
		<rect id="XMLID_67_" x="257.5" y="484.4" transform="matrix(0.5746 -0.8184 0.8184 0.5746 -296.655 426.8156)" class="st3" width="9.6" height="28.7"/>
</g>
<rect id="XMLID_66_" x="292.1" y="295.1" transform="matrix(0.5746 -0.8184 0.8184 0.5746 -130.7868 386.564)" class="st4" width="28.7" height="47.9"/>
<rect id="XMLID_65_" x="193" y="436.3" transform="matrix(0.5746 -0.8184 0.8184 0.5746 -288.4624 365.4974)" class="st4" width="28.7" height="47.9"/>
<rect id="XMLID_64_" x="242.6" y="365.7" transform="matrix(0.5746 -0.8184 0.8184 0.5746 -209.6246 376.0307)" class="st4" width="28.7" height="47.9"/>
<g id="XMLID_48_">
	
		<rect id="XMLID_63_" x="299.9" y="288.4" transform="matrix(0.5746 -0.8184 0.8184 0.5746 -109.3218 376.0577)" class="st3" width="14.4" height="9.6"/>
	
		<rect id="XMLID_62_" x="311.7" y="296.7" transform="matrix(0.5746 -0.8184 0.8184 0.5746 -111.0774 389.1973)" class="st3" width="14.4" height="9.6"/>
	
		<rect id="XMLID_61_" x="323.4" y="304.9" transform="matrix(0.5746 -0.8184 0.8184 0.5746 -112.8329 402.337)" class="st3" width="14.4" height="9.6"/>
	
		<rect id="XMLID_60_" x="275.1" y="323.7" transform="matrix(0.5746 -0.8184 0.8184 0.5746 -148.7407 370.791)" class="st3" width="14.4" height="9.6"/>
	
		<rect id="XMLID_59_" x="286.9" y="332" transform="matrix(0.5746 -0.8184 0.8184 0.5746 -150.4963 383.9307)" class="st3" width="14.4" height="9.6"/>
	
		<rect id="XMLID_58_" x="298.7" y="340.2" transform="matrix(0.5746 -0.8184 0.8184 0.5746 -152.2518 397.0703)" class="st3" width="14.4" height="9.6"/>
	
		<rect id="XMLID_57_" x="200.8" y="429.6" transform="matrix(0.5746 -0.8184 0.8184 0.5746 -266.9974 354.9911)" class="st3" width="14.4" height="9.6"/>
	
		<rect id="XMLID_56_" x="212.6" y="437.8" transform="matrix(0.5746 -0.8184 0.8184 0.5746 -268.753 368.1307)" class="st3" width="14.4" height="9.6"/>
	
		<rect id="XMLID_55_" x="224.3" y="446.1" transform="matrix(0.5746 -0.8184 0.8184 0.5746 -270.5085 381.2703)" class="st3" width="14.4" height="9.6"/>
	
		<rect id="XMLID_54_" x="176" y="464.8" transform="matrix(0.5746 -0.8184 0.8184 0.5746 -306.4163 349.7244)" class="st3" width="14.4" height="9.6"/>
	
		<rect id="XMLID_53_" x="187.8" y="473.1" transform="matrix(0.5746 -0.8184 0.8184 0.5746 -308.1719 362.864)" class="st3" width="14.4" height="9.6"/>
	
		<rect id="XMLID_52_" x="199.6" y="481.4" transform="matrix(0.5746 -0.8184 0.8184 0.5746 -309.9274 376.0037)" class="st3" width="14.4" height="9.6"/>
	
		<rect id="XMLID_51_" x="250.4" y="359" transform="matrix(0.5746 -0.8184 0.8184 0.5746 -188.1596 365.5244)" class="st3" width="14.4" height="9.6"/>
	
		<rect id="XMLID_50_" x="262.1" y="367.2" transform="matrix(0.5746 -0.8184 0.8184 0.5746 -189.9152 378.664)" class="st3" width="14.4" height="9.6"/>
	
		<rect id="XMLID_49_" x="273.9" y="375.5" transform="matrix(0.5746 -0.8184 0.8184 0.5746 -191.6707 391.8036)" class="st3" width="14.4" height="9.6"/>
	
		<rect id="XMLID_47_" x="225.6" y="394.3" transform="matrix(0.5746 -0.8184 0.8184 0.5746 -227.5785 360.2577)" class="st3" width="14.4" height="9.6"/>
	
		<rect id="XMLID_46_" x="237.4" y="402.5" transform="matrix(0.5746 -0.8184 0.8184 0.5746 -229.3341 373.3974)" class="st3" width="14.4" height="9.6"/>
	
		<rect id="XMLID_45_" x="249.1" y="410.8" transform="matrix(0.5746 -0.8184 0.8184 0.5746 -231.0896 386.537)" class="st3" width="14.4" height="9.6"/>
</g>
<polygon id="XMLID_44_" class="st5" points="281.5,254.7 138.3,458.6 130.5,453.1 122.2,464.8 141.8,478.6 301.5,251.2 281.9,237.4 
	273.6,249.2 "/>
</svg>
