<?xml version="1.0" encoding="utf-8"?>
<!-- Generator: Adobe Illustrator 22.0.0, SVG Export Plug-In . SVG Version: 6.00 Build 0)  -->
<svg version="1.1" id="Layer_1" xmlns="http://www.w3.org/2000/svg" xmlns:xlink="http://www.w3.org/1999/xlink" x="0px" y="0px"
	 viewBox="0 0 595.3 841.9" style="enable-background:new 0 0 595.3 841.9;" xml:space="preserve">
<style type="text/css">
	.st0{fill:#FAAF22;}
	.st1{clip-path:url(#XMLID_2_);fill:#EF9129;}
	.st2{fill:#FFFFFF;}
	.st3{fill:#D2D3D4;}
	.st4{fill:#28403A;}
	.st5{fill:#5F7D74;}
	.st6{fill:#EF9129;}
</style>
<g id="XMLID_235_">
	<circle id="XMLID_236_" class="st0" cx="287.5" cy="570.4" r="196"/>
</g>
<g>
	<defs>
		<circle id="XMLID_234_" cx="287.5" cy="570.4" r="196"/>
	</defs>
	<clipPath id="XMLID_2_">
		<use xlink:href="#XMLID_234_"  style="overflow:visible;"/>
	</clipPath>
	<path class="st1" d="M343,419.3c0,0,12.5,3,18.8,13.1s212.9,203.8,212.9,203.8c-2.2,137.9-4.4,275.8-6.6,413.8
		C456,940.5,344.1,831,232.1,721.5C269.1,620.8,306,520,343,419.3z"/>
</g>
<path class="st2" d="M336.4,722.5c15.9,0,34.1-18.9,34.1-35.5V453.8c0-16.6-18.1-35.5-34.1-35.5h-97.9c-15.9,0-34.1,18.9-34.1,35.5
	V470c0,2.8-1.7,6.4-2.4,8.8c-0.3,1.2-0.5,2.6-0.5,4.5v3.5c0,1.8,0.2,3.3,0.5,4.5c0.7,2.4,2.4,6,2.4,8.8v3c0,2.8-1.7,6.4-2.4,8.8
	c-0.3,1.2-0.5,2.6-0.5,4.5v3.1c0,1.8,0.2,3.3,0.5,4.5c0.7,2.4,2.4,6,2.4,8.8V687c0,16.6,18.1,35.5,34.1,35.5L336.4,722.5
	L336.4,722.5z"/>
<path class="st3" d="M208.2,515.7c0-0.4,1.2-1,2.1-2.1c0.5-0.6,0.8-1.4,0.8-2.3v-19.4c0-0.9-0.3-1.7-0.8-2.3
	c-0.8-1.1-2.1-1.7-2.1-2.1c0-0.2,0-0.5,0-0.7v-3.5c0-0.3,0-0.5,0-0.7c0-0.4,1.2-1,2.1-2.1c0.5-0.6,0.8-1.4,0.8-2.3v-24.5
	c0-12.8,14.3-27.9,26.4-27.9h97.9c12.1,0,26.4,15.1,26.4,27.9V687c0,12.8-14.3,27.9-26.4,27.9h-97.9c-12.1,0-26.4-15.1-26.4-27.9
	V524.7c0-0.9-0.3-1.7-0.8-2.3c-0.8-1.1-2.1-1.7-2.1-2.1c0-0.2,0-0.5,0-0.7v-3.1C208.1,516.2,208.1,516,208.2,515.7z"/>
<path class="st4" d="M285.6,486.2h7.9c7.4,0,13.4-6,13.4-13.4v-7.9c0-7.4-6-13.4-13.4-13.4h-7.9c-7.4,0-13.4,6-13.4,13.4v7.9
	C272.2,480.2,278.2,486.2,285.6,486.2z M276,464.8c0-5.3,4.3-9.6,9.6-9.6h7.9c5.3,0,9.6,4.3,9.6,9.6v7.9c0,5.3-4.3,9.6-9.6,9.6h-7.9
	c-5.3,0-9.6-4.3-9.6-9.6L276,464.8L276,464.8z"/>
<path class="st4" d="M260.4,475.8h2.6c3.1,0,5.7-2.5,5.7-5.7v-2.6c0-3.1-2.5-5.6-5.7-5.6h-2.6c-3.1,0-5.7,2.5-5.7,5.6v2.6
	C254.7,473.2,257.3,475.8,260.4,475.8z M258.6,467.5c0-1,0.8-1.8,1.8-1.8h2.6c1,0,1.8,0.8,1.8,1.8v2.6c0,1-0.8,1.8-1.8,1.8h-2.6
	c-1,0-1.8-0.8-1.8-1.8V467.5z"/>
<circle class="st4" cx="261.7" cy="481.6" r="1.4"/>
<g>
	<path class="st4" d="M246.9,672.5c0.6,0,1.1,0.5,1.1,1.1c0,0.6-0.5,1.1-1.1,1.1c-0.6,0-1.1-0.5-1.1-1.1
		C245.8,673,246.3,672.5,246.9,672.5z"/>
	<path class="st4" d="M246.9,677.2c0.6,0,1.1,0.5,1.1,1.1c0,0.6-0.5,1.1-1.1,1.1c-0.6,0-1.1-0.5-1.1-1.1
		C245.8,677.7,246.3,677.2,246.9,677.2z"/>
	<path class="st4" d="M246.9,681.8c0.6,0,1.1,0.5,1.1,1.1c0,0.6-0.5,1.1-1.1,1.1c-0.6,0-1.1-0.5-1.1-1.1
		C245.8,682.3,246.3,681.8,246.9,681.8z"/>
	<path class="st4" d="M243.2,677.2c0.6,0,1.1,0.5,1.1,1.1c0,0.6-0.5,1.1-1.1,1.1c-0.6,0-1.1-0.5-1.1-1.1
		C242,677.7,242.5,677.2,243.2,677.2z"/>
	<path class="st4" d="M243.2,681.8c0.6,0,1.1,0.5,1.1,1.1c0,0.6-0.5,1.1-1.1,1.1c-0.6,0-1.1-0.5-1.1-1.1
		C242,682.3,242.5,681.8,243.2,681.8z"/>
	<circle class="st4" cx="246.9" cy="687.6" r="1.1"/>
	<path class="st4" d="M251.1,672.5c0.6,0,1.1,0.5,1.1,1.1c0,0.6-0.5,1.1-1.1,1.1c-0.6,0-1.1-0.5-1.1-1.1
		C250,673,250.5,672.5,251.1,672.5z"/>
	<path class="st4" d="M251.1,677.2c0.6,0,1.1,0.5,1.1,1.1c0,0.6-0.5,1.1-1.1,1.1c-0.6,0-1.1-0.5-1.1-1.1
		C250,677.7,250.5,677.2,251.1,677.2z"/>
	<path class="st4" d="M251.1,681.8c0.6,0,1.1,0.5,1.1,1.1c0,0.6-0.5,1.1-1.1,1.1c-0.6,0-1.1-0.5-1.1-1.1
		C250,682.3,250.5,681.8,251.1,681.8z"/>
	<circle class="st4" cx="251.1" cy="687.6" r="1.1"/>
	<path class="st4" d="M255.3,672.5c0.6,0,1.1,0.5,1.1,1.1c0,0.6-0.5,1.1-1.1,1.1c-0.6,0-1.1-0.5-1.1-1.1
		C254.2,673,254.7,672.5,255.3,672.5z"/>
	<path class="st4" d="M255.3,677.2c0.6,0,1.1,0.5,1.1,1.1c0,0.6-0.5,1.1-1.1,1.1c-0.6,0-1.1-0.5-1.1-1.1
		C254.2,677.7,254.7,677.2,255.3,677.2z"/>
	<path class="st4" d="M255.3,681.8c0.6,0,1.1,0.5,1.1,1.1c0,0.6-0.5,1.1-1.1,1.1c-0.6,0-1.1-0.5-1.1-1.1
		C254.2,682.3,254.7,681.8,255.3,681.8z"/>
	<circle class="st4" cx="255.3" cy="687.6" r="1.1"/>
	<path class="st4" d="M259.6,672.5c0.6,0,1.1,0.5,1.1,1.1c0,0.6-0.5,1.1-1.1,1.1c-0.6,0-1.1-0.5-1.1-1.1
		C258.5,673,258.9,672.5,259.6,672.5z"/>
	<path class="st4" d="M259.6,677.2c0.6,0,1.1,0.5,1.1,1.1c0,0.6-0.5,1.1-1.1,1.1c-0.6,0-1.1-0.5-1.1-1.1
		C258.5,677.7,258.9,677.2,259.6,677.2z"/>
	<path class="st4" d="M259.6,681.8c0.6,0,1.1,0.5,1.1,1.1c0,0.6-0.5,1.1-1.1,1.1c-0.6,0-1.1-0.5-1.1-1.1
		C258.5,682.3,258.9,681.8,259.6,681.8z"/>
	<circle class="st4" cx="259.6" cy="687.6" r="1.1"/>
	<path class="st4" d="M263.8,672.5c0.6,0,1.1,0.5,1.1,1.1c0,0.6-0.5,1.1-1.1,1.1c-0.6,0-1.1-0.5-1.1-1.1
		C262.7,673,263.2,672.5,263.8,672.5z"/>
	<path class="st4" d="M263.8,677.2c0.6,0,1.1,0.5,1.1,1.1c0,0.6-0.5,1.1-1.1,1.1c-0.6,0-1.1-0.5-1.1-1.1
		C262.7,677.7,263.2,677.2,263.8,677.2z"/>
	<path class="st4" d="M263.8,681.8c0.6,0,1.1,0.5,1.1,1.1c0,0.6-0.5,1.1-1.1,1.1c-0.6,0-1.1-0.5-1.1-1.1
		C262.7,682.3,263.2,681.8,263.8,681.8z"/>
	<circle class="st4" cx="263.8" cy="687.6" r="1.1"/>
	<circle class="st4" cx="268" cy="673.6" r="1.1"/>
	<path class="st4" d="M268,677.2c0.6,0,1.1,0.5,1.1,1.1c0,0.6-0.5,1.1-1.1,1.1c-0.6,0-1.1-0.5-1.1-1.1
		C266.9,677.7,267.4,677.2,268,677.2z"/>
	<path class="st4" d="M268,681.8c0.6,0,1.1,0.5,1.1,1.1c0,0.6-0.5,1.1-1.1,1.1c-0.6,0-1.1-0.5-1.1-1.1
		C266.9,682.3,267.4,681.8,268,681.8z"/>
	<circle class="st4" cx="268" cy="687.6" r="1.1"/>
	<path class="st4" d="M272.2,672.5c0.6,0,1.1,0.5,1.1,1.1c0,0.6-0.5,1.1-1.1,1.1c-0.6,0-1.1-0.5-1.1-1.1
		C271.1,673,271.6,672.5,272.2,672.5z"/>
	<path class="st4" d="M272.2,677.2c0.6,0,1.1,0.5,1.1,1.1c0,0.6-0.5,1.1-1.1,1.1c-0.6,0-1.1-0.5-1.1-1.1
		C271.1,677.7,271.6,677.2,272.2,677.2z"/>
	<path class="st4" d="M272.2,681.8c0.6,0,1.1,0.5,1.1,1.1c0,0.6-0.5,1.1-1.1,1.1c-0.6,0-1.1-0.5-1.1-1.1
		C271.1,682.3,271.6,681.8,272.2,681.8z"/>
	<circle class="st4" cx="272.2" cy="687.6" r="1.1"/>
	<path class="st4" d="M276.5,672.5c0.6,0,1.1,0.5,1.1,1.1c0,0.6-0.5,1.1-1.1,1.1c-0.6,0-1.1-0.5-1.1-1.1
		C275.4,673,275.9,672.5,276.5,672.5z"/>
	<path class="st4" d="M276.5,677.2c0.6,0,1.1,0.5,1.1,1.1c0,0.6-0.5,1.1-1.1,1.1c-0.6,0-1.1-0.5-1.1-1.1
		C275.4,677.7,275.9,677.2,276.5,677.2z"/>
	<path class="st4" d="M276.5,681.8c0.6,0,1.1,0.5,1.1,1.1c0,0.6-0.5,1.1-1.1,1.1c-0.6,0-1.1-0.5-1.1-1.1
		C275.4,682.3,275.9,681.8,276.5,681.8z"/>
	<circle class="st4" cx="276.5" cy="687.6" r="1.1"/>
	<path class="st4" d="M280.7,672.5c0.6,0,1.1,0.5,1.1,1.1c0,0.6-0.5,1.1-1.1,1.1c-0.6,0-1.1-0.5-1.1-1.1
		C279.6,673,280.1,672.5,280.7,672.5z"/>
	<path class="st4" d="M280.7,677.2c0.6,0,1.1,0.5,1.1,1.1c0,0.6-0.5,1.1-1.1,1.1c-0.6,0-1.1-0.5-1.1-1.1
		C279.6,677.7,280.1,677.2,280.7,677.2z"/>
	<path class="st4" d="M280.7,681.8c0.6,0,1.1,0.5,1.1,1.1c0,0.6-0.5,1.1-1.1,1.1c-0.6,0-1.1-0.5-1.1-1.1
		C279.6,682.3,280.1,681.8,280.7,681.8z"/>
	<circle class="st4" cx="280.7" cy="687.6" r="1.1"/>
	<path class="st4" d="M284.9,672.5c0.6,0,1.1,0.5,1.1,1.1c0,0.6-0.5,1.1-1.1,1.1c-0.6,0-1.1-0.5-1.1-1.1
		C283.8,673,284.3,672.5,284.9,672.5z"/>
	<path class="st4" d="M284.9,677.2c0.6,0,1.1,0.5,1.1,1.1c0,0.6-0.5,1.1-1.1,1.1c-0.6,0-1.1-0.5-1.1-1.1
		C283.8,677.7,284.3,677.2,284.9,677.2z"/>
	<path class="st4" d="M284.9,681.8c0.6,0,1.1,0.5,1.1,1.1c0,0.6-0.5,1.1-1.1,1.1c-0.6,0-1.1-0.5-1.1-1.1
		C283.8,682.3,284.3,681.8,284.9,681.8z"/>
	<circle class="st4" cx="284.9" cy="687.6" r="1.1"/>
	<path class="st4" d="M289.2,672.5c0.6,0,1.1,0.5,1.1,1.1c0,0.6-0.5,1.1-1.1,1.1c-0.6,0-1.1-0.5-1.1-1.1
		C288.1,673,288.5,672.5,289.2,672.5z"/>
	<path class="st4" d="M289.2,677.2c0.6,0,1.1,0.5,1.1,1.1c0,0.6-0.5,1.1-1.1,1.1c-0.6,0-1.1-0.5-1.1-1.1
		C288.1,677.7,288.5,677.2,289.2,677.2z"/>
	<path class="st4" d="M289.2,681.8c0.6,0,1.1,0.5,1.1,1.1c0,0.6-0.5,1.1-1.1,1.1c-0.6,0-1.1-0.5-1.1-1.1
		C288.1,682.3,288.5,681.8,289.2,681.8z"/>
	<circle class="st4" cx="289.2" cy="687.6" r="1.1"/>
	<path class="st4" d="M293.4,672.5c0.6,0,1.1,0.5,1.1,1.1c0,0.6-0.5,1.1-1.1,1.1c-0.6,0-1.1-0.5-1.1-1.1
		C292.3,673,292.8,672.5,293.4,672.5z"/>
	<path class="st4" d="M293.4,677.2c0.6,0,1.1,0.5,1.1,1.1c0,0.6-0.5,1.1-1.1,1.1c-0.6,0-1.1-0.5-1.1-1.1
		C292.3,677.7,292.8,677.2,293.4,677.2z"/>
	<path class="st4" d="M293.4,681.8c0.6,0,1.1,0.5,1.1,1.1c0,0.6-0.5,1.1-1.1,1.1c-0.6,0-1.1-0.5-1.1-1.1
		C292.3,682.3,292.8,681.8,293.4,681.8z"/>
	<circle class="st4" cx="293.4" cy="687.6" r="1.1"/>
	<path class="st4" d="M297.6,672.5c0.6,0,1.1,0.5,1.1,1.1c0,0.6-0.5,1.1-1.1,1.1c-0.6,0-1.1-0.5-1.1-1.1
		C296.5,673,297,672.5,297.6,672.5z"/>
	<path class="st4" d="M297.6,677.2c0.6,0,1.1,0.5,1.1,1.1c0,0.6-0.5,1.1-1.1,1.1c-0.6,0-1.1-0.5-1.1-1.1
		C296.5,677.7,297,677.2,297.6,677.2z"/>
	<path class="st4" d="M297.6,681.8c0.6,0,1.1,0.5,1.1,1.1c0,0.6-0.5,1.1-1.1,1.1c-0.6,0-1.1-0.5-1.1-1.1
		C296.5,682.3,297,681.8,297.6,681.8z"/>
	<path class="st4" d="M297.6,686.5c0.6,0,1.1,0.5,1.1,1.1s-0.5,1.1-1.1,1.1c-0.6,0-1.1-0.5-1.1-1.1C296.5,687,297,686.5,297.6,686.5
		z"/>
	<path class="st4" d="M301.9,672.5c0.6,0,1.1,0.5,1.1,1.1c0,0.6-0.5,1.1-1.1,1.1c-0.6,0-1.1-0.5-1.1-1.1
		C300.7,673,301.2,672.5,301.9,672.5z"/>
	<path class="st4" d="M301.9,677.2c0.6,0,1.1,0.5,1.1,1.1c0,0.6-0.5,1.1-1.1,1.1c-0.6,0-1.1-0.5-1.1-1.1
		C300.7,677.7,301.2,677.2,301.9,677.2z"/>
	<path class="st4" d="M301.9,681.8c0.6,0,1.1,0.5,1.1,1.1c0,0.6-0.5,1.1-1.1,1.1c-0.6,0-1.1-0.5-1.1-1.1
		C300.7,682.3,301.2,681.8,301.9,681.8z"/>
	<path class="st4" d="M301.9,686.5c0.6,0,1.1,0.5,1.1,1.1s-0.5,1.1-1.1,1.1c-0.6,0-1.1-0.5-1.1-1.1
		C300.7,687,301.2,686.5,301.9,686.5z"/>
	<path class="st4" d="M306.1,672.5c0.6,0,1.1,0.5,1.1,1.1c0,0.6-0.5,1.1-1.1,1.1c-0.6,0-1.1-0.5-1.1-1.1
		C305,673,305.5,672.5,306.1,672.5z"/>
	<path class="st4" d="M306.1,677.2c0.6,0,1.1,0.5,1.1,1.1c0,0.6-0.5,1.1-1.1,1.1c-0.6,0-1.1-0.5-1.1-1.1
		C305,677.7,305.5,677.2,306.1,677.2z"/>
	<path class="st4" d="M306.1,681.8c0.6,0,1.1,0.5,1.1,1.1c0,0.6-0.5,1.1-1.1,1.1c-0.6,0-1.1-0.5-1.1-1.1
		C305,682.3,305.5,681.8,306.1,681.8z"/>
	<path class="st4" d="M306.1,686.5c0.6,0,1.1,0.5,1.1,1.1s-0.5,1.1-1.1,1.1c-0.6,0-1.1-0.5-1.1-1.1C305,687,305.5,686.5,306.1,686.5
		z"/>
	<path class="st4" d="M310.3,672.5c0.6,0,1.1,0.5,1.1,1.1c0,0.6-0.5,1.1-1.1,1.1c-0.6,0-1.1-0.5-1.1-1.1
		C309.2,673,309.7,672.5,310.3,672.5z"/>
	<path class="st4" d="M310.3,677.2c0.6,0,1.1,0.5,1.1,1.1c0,0.6-0.5,1.1-1.1,1.1c-0.6,0-1.1-0.5-1.1-1.1
		C309.2,677.7,309.7,677.2,310.3,677.2z"/>
	<path class="st4" d="M310.3,681.8c0.6,0,1.1,0.5,1.1,1.1c0,0.6-0.5,1.1-1.1,1.1c-0.6,0-1.1-0.5-1.1-1.1
		C309.2,682.3,309.7,681.8,310.3,681.8z"/>
	<path class="st4" d="M310.3,686.5c0.6,0,1.1,0.5,1.1,1.1s-0.5,1.1-1.1,1.1c-0.6,0-1.1-0.5-1.1-1.1
		C309.2,687,309.7,686.5,310.3,686.5z"/>
	<path class="st4" d="M314.5,672.5c0.6,0,1.1,0.5,1.1,1.1c0,0.6-0.5,1.1-1.1,1.1c-0.6,0-1.1-0.5-1.1-1.1
		C313.4,673,313.9,672.5,314.5,672.5z"/>
	<path class="st4" d="M314.5,677.2c0.6,0,1.1,0.5,1.1,1.1c0,0.6-0.5,1.1-1.1,1.1c-0.6,0-1.1-0.5-1.1-1.1
		C313.4,677.7,313.9,677.2,314.5,677.2z"/>
	<path class="st4" d="M314.5,681.8c0.6,0,1.1,0.5,1.1,1.1c0,0.6-0.5,1.1-1.1,1.1c-0.6,0-1.1-0.5-1.1-1.1
		C313.4,682.3,313.9,681.8,314.5,681.8z"/>
	<path class="st4" d="M318.8,672.5c0.6,0,1.1,0.5,1.1,1.1c0,0.6-0.5,1.1-1.1,1.1c-0.6,0-1.1-0.5-1.1-1.1
		C317.7,673,318.2,672.5,318.8,672.5z"/>
	<path class="st4" d="M318.8,677.2c0.6,0,1.1,0.5,1.1,1.1c0,0.6-0.5,1.1-1.1,1.1c-0.6,0-1.1-0.5-1.1-1.1
		C317.7,677.7,318.2,677.2,318.8,677.2z"/>
	<path class="st4" d="M318.8,681.8c0.6,0,1.1,0.5,1.1,1.1c0,0.6-0.5,1.1-1.1,1.1c-0.6,0-1.1-0.5-1.1-1.1
		C317.7,682.3,318.2,681.8,318.8,681.8z"/>
	<path class="st4" d="M323,672.5c0.6,0,1.1,0.5,1.1,1.1c0,0.6-0.5,1.1-1.1,1.1s-1.1-0.5-1.1-1.1C321.9,673,322.4,672.5,323,672.5z"
		/>
	<path class="st4" d="M323,677.2c0.6,0,1.1,0.5,1.1,1.1c0,0.6-0.5,1.1-1.1,1.1s-1.1-0.5-1.1-1.1C321.9,677.7,322.4,677.2,323,677.2z
		"/>
	<path class="st4" d="M323,681.8c0.6,0,1.1,0.5,1.1,1.1c0,0.6-0.5,1.1-1.1,1.1s-1.1-0.5-1.1-1.1C321.9,682.3,322.4,681.8,323,681.8z
		"/>
	<path class="st4" d="M327.2,672.5c0.6,0,1.1,0.5,1.1,1.1c0,0.6-0.5,1.1-1.1,1.1c-0.6,0-1.1-0.5-1.1-1.1
		C326.1,673,326.6,672.5,327.2,672.5z"/>
	<path class="st4" d="M327.2,677.2c0.6,0,1.1,0.5,1.1,1.1c0,0.6-0.5,1.1-1.1,1.1c-0.6,0-1.1-0.5-1.1-1.1
		C326.1,677.7,326.6,677.2,327.2,677.2z"/>
	<path class="st4" d="M327.2,681.8c0.6,0,1.1,0.5,1.1,1.1c0,0.6-0.5,1.1-1.1,1.1c-0.6,0-1.1-0.5-1.1-1.1
		C326.1,682.3,326.6,681.8,327.2,681.8z"/>
	<path class="st4" d="M331.5,672.5c0.6,0,1.1,0.5,1.1,1.1c0,0.6-0.5,1.1-1.1,1.1c-0.6,0-1.1-0.5-1.1-1.1
		C330.3,673,330.8,672.5,331.5,672.5z"/>
	<path class="st4" d="M331.5,677.2c0.6,0,1.1,0.5,1.1,1.1c0,0.6-0.5,1.1-1.1,1.1c-0.6,0-1.1-0.5-1.1-1.1
		C330.3,677.7,330.8,677.2,331.5,677.2z"/>
	<path class="st4" d="M331.5,681.8c0.6,0,1.1,0.5,1.1,1.1c0,0.6-0.5,1.1-1.1,1.1c-0.6,0-1.1-0.5-1.1-1.1
		C330.3,682.3,330.8,681.8,331.5,681.8z"/>
	<path class="st4" d="M335.7,677.2c0.6,0,1.1,0.5,1.1,1.1c0,0.6-0.5,1.1-1.1,1.1c-0.6,0-1.1-0.5-1.1-1.1
		C334.6,677.7,335.1,677.2,335.7,677.2z"/>
	<path class="st4" d="M335.7,681.8c0.6,0,1.1,0.5,1.1,1.1c0,0.6-0.5,1.1-1.1,1.1c-0.6,0-1.1-0.5-1.1-1.1
		C334.6,682.3,335.1,681.8,335.7,681.8z"/>
	<path class="st4" d="M314.4,688.7h16.7c0.8,0,1.4-0.5,1.4-1.1c0-0.6-0.6-1.1-1.4-1.1h-16.7c-0.8,0-1.4,0.5-1.4,1.1
		C313,688.3,313.6,688.7,314.4,688.7z"/>
</g>
<circle class="st4" cx="289.6" cy="468.8" r="10"/>
<circle class="st5" cx="289.2" cy="468.8" r="6.3"/>
<path class="st6" d="M273.4,530.7v74.6c13.5-12.8,27-25.7,40.5-38.5C300.3,554.8,286.8,542.7,273.4,530.7z"/>
</svg>
