<?xml version="1.0" encoding="utf-8"?>
<!-- Generator: Adobe Illustrator 22.0.0, SVG Export Plug-In . SVG Version: 6.00 Build 0)  -->
<svg version="1.1" id="Layer_1" xmlns="http://www.w3.org/2000/svg" xmlns:xlink="http://www.w3.org/1999/xlink" x="0px" y="0px"
	 viewBox="0 0 595.3 841.9" style="enable-background:new 0 0 595.3 841.9;" xml:space="preserve">
<style type="text/css">
	.st0{fill:#44B39C;}
	.st1{clip-path:url(#XMLID_2_);fill:#1B9279;}
	.st2{fill:#FFFFFF;}
	.st3{fill:#D2D3D4;}
	.st4{fill:#28403A;}
	.st5{fill:#5F7D74;}
</style>
<g id="XMLID_231_">
	<circle id="XMLID_232_" class="st0" cx="287.5" cy="451.4" r="196"/>
</g>
<g>
	<defs>
		<circle id="XMLID_230_" cx="287.5" cy="451.4" r="196"/>
	</defs>
	<clipPath id="XMLID_2_">
		<use xlink:href="#XMLID_230_"  style="overflow:visible;"/>
	</clipPath>
	<path class="st1" d="M343,300.3c0,0,12.5,3,18.8,13.1s212.9,203.8,212.9,203.8c1.5,144.9,2.9,289.8,4.4,434.8
		C461.3,834.7,343.7,717.3,226,600C265,500.1,304,400.2,343,300.3z"/>
</g>
<path class="st2" d="M336.4,603.5c15.9,0,34.1-18.9,34.1-35.5V334.8c0-16.6-18.1-35.5-34.1-35.5h-97.9c-15.9,0-34.1,18.9-34.1,35.5
	V351c0,2.8-1.7,6.4-2.4,8.8c-0.3,1.2-0.5,2.6-0.5,4.5v3.5c0,1.8,0.2,3.3,0.5,4.5c0.7,2.4,2.4,6,2.4,8.8v3c0,2.8-1.7,6.4-2.4,8.8
	c-0.3,1.2-0.5,2.6-0.5,4.5v3.1c0,1.8,0.2,3.3,0.5,4.5c0.7,2.4,2.4,6,2.4,8.8V568c0,16.6,18.1,35.5,34.1,35.5L336.4,603.5
	L336.4,603.5z"/>
<path class="st3" d="M208.2,396.7c0-0.4,1.2-1,2.1-2.1c0.5-0.6,0.8-1.4,0.8-2.3v-19.4c0-0.9-0.3-1.7-0.8-2.3
	c-0.8-1.1-2.1-1.7-2.1-2.1c0-0.2,0-0.5,0-0.7v-3.5c0-0.3,0-0.5,0-0.7c0-0.4,1.2-1,2.1-2.1c0.5-0.6,0.8-1.4,0.8-2.3v-24.5
	c0-12.8,14.3-27.9,26.4-27.9h97.9c12.1,0,26.4,15.1,26.4,27.9V568c0,12.8-14.3,27.9-26.4,27.9h-97.9c-12.1,0-26.4-15.1-26.4-27.9
	V405.7c0-0.9-0.3-1.7-0.8-2.3c-0.8-1.1-2.1-1.7-2.1-2.1c0-0.2,0-0.5,0-0.7v-3.1C208.1,397.2,208.2,397,208.2,396.7z"/>
<path class="st4" d="M285.6,367.2h7.9c7.4,0,13.4-6,13.4-13.4v-7.9c0-7.4-6-13.4-13.4-13.4h-7.9c-7.4,0-13.4,6-13.4,13.4v7.9
	C272.2,361.2,278.2,367.2,285.6,367.2z M276,345.8c0-5.3,4.3-9.6,9.6-9.6h7.9c5.3,0,9.6,4.3,9.6,9.6v7.9c0,5.3-4.3,9.6-9.6,9.6h-7.9
	c-5.3,0-9.6-4.3-9.6-9.6L276,345.8L276,345.8z"/>
<path class="st4" d="M260.4,356.8h2.6c3.1,0,5.7-2.5,5.7-5.7v-2.6c0-3.1-2.5-5.6-5.7-5.6h-2.6c-3.1,0-5.7,2.5-5.7,5.6v2.6
	C254.8,354.2,257.3,356.8,260.4,356.8z M258.6,348.5c0-1,0.8-1.8,1.8-1.8h2.6c1,0,1.8,0.8,1.8,1.8v2.6c0,1-0.8,1.8-1.8,1.8h-2.6
	c-1,0-1.8-0.8-1.8-1.8V348.5z"/>
<circle class="st4" cx="261.7" cy="362.6" r="1.4"/>
<g>
	<path class="st4" d="M246.9,553.5c0.6,0,1.1,0.5,1.1,1.1c0,0.6-0.5,1.1-1.1,1.1c-0.6,0-1.1-0.5-1.1-1.1
		C245.8,554,246.3,553.5,246.9,553.5z"/>
	<path class="st4" d="M246.9,558.2c0.6,0,1.1,0.5,1.1,1.1c0,0.6-0.5,1.1-1.1,1.1c-0.6,0-1.1-0.5-1.1-1.1
		C245.8,558.7,246.3,558.2,246.9,558.2z"/>
	<path class="st4" d="M246.9,562.8c0.6,0,1.1,0.5,1.1,1.1c0,0.6-0.5,1.1-1.1,1.1c-0.6,0-1.1-0.5-1.1-1.1
		C245.8,563.3,246.3,562.8,246.9,562.8z"/>
	<path class="st4" d="M243.2,558.2c0.6,0,1.1,0.5,1.1,1.1c0,0.6-0.5,1.1-1.1,1.1c-0.6,0-1.1-0.5-1.1-1.1
		C242.1,558.7,242.6,558.2,243.2,558.2z"/>
	<path class="st4" d="M243.2,562.8c0.6,0,1.1,0.5,1.1,1.1c0,0.6-0.5,1.1-1.1,1.1c-0.6,0-1.1-0.5-1.1-1.1
		C242.1,563.3,242.6,562.8,243.2,562.8z"/>
	<circle class="st4" cx="246.9" cy="568.6" r="1.1"/>
	<path class="st4" d="M251.1,553.5c0.6,0,1.1,0.5,1.1,1.1c0,0.6-0.5,1.1-1.1,1.1c-0.6,0-1.1-0.5-1.1-1.1
		C250,554,250.5,553.5,251.1,553.5z"/>
	<path class="st4" d="M251.1,558.2c0.6,0,1.1,0.5,1.1,1.1c0,0.6-0.5,1.1-1.1,1.1c-0.6,0-1.1-0.5-1.1-1.1
		C250,558.7,250.5,558.2,251.1,558.2z"/>
	<path class="st4" d="M251.1,562.8c0.6,0,1.1,0.5,1.1,1.1c0,0.6-0.5,1.1-1.1,1.1c-0.6,0-1.1-0.5-1.1-1.1
		C250,563.3,250.5,562.8,251.1,562.8z"/>
	<circle class="st4" cx="251.1" cy="568.6" r="1.1"/>
	<path class="st4" d="M255.3,553.5c0.6,0,1.1,0.5,1.1,1.1c0,0.6-0.5,1.1-1.1,1.1c-0.6,0-1.1-0.5-1.1-1.1
		C254.2,554,254.7,553.5,255.3,553.5z"/>
	<path class="st4" d="M255.3,558.2c0.6,0,1.1,0.5,1.1,1.1c0,0.6-0.5,1.1-1.1,1.1c-0.6,0-1.1-0.5-1.1-1.1
		C254.2,558.7,254.7,558.2,255.3,558.2z"/>
	<path class="st4" d="M255.3,562.8c0.6,0,1.1,0.5,1.1,1.1c0,0.6-0.5,1.1-1.1,1.1c-0.6,0-1.1-0.5-1.1-1.1
		C254.2,563.3,254.7,562.8,255.3,562.8z"/>
	<circle class="st4" cx="255.3" cy="568.6" r="1.1"/>
	<path class="st4" d="M259.6,553.5c0.6,0,1.1,0.5,1.1,1.1c0,0.6-0.5,1.1-1.1,1.1c-0.6,0-1.1-0.5-1.1-1.1
		C258.5,554,259,553.5,259.6,553.5z"/>
	<path class="st4" d="M259.6,558.2c0.6,0,1.1,0.5,1.1,1.1c0,0.6-0.5,1.1-1.1,1.1c-0.6,0-1.1-0.5-1.1-1.1
		C258.5,558.7,259,558.2,259.6,558.2z"/>
	<path class="st4" d="M259.6,562.8c0.6,0,1.1,0.5,1.1,1.1c0,0.6-0.5,1.1-1.1,1.1c-0.6,0-1.1-0.5-1.1-1.1
		C258.5,563.3,259,562.8,259.6,562.8z"/>
	<circle class="st4" cx="259.6" cy="568.6" r="1.1"/>
	<path class="st4" d="M263.8,553.5c0.6,0,1.1,0.5,1.1,1.1c0,0.6-0.5,1.1-1.1,1.1s-1.1-0.5-1.1-1.1
		C262.7,554,263.2,553.5,263.8,553.5z"/>
	<path class="st4" d="M263.8,558.2c0.6,0,1.1,0.5,1.1,1.1c0,0.6-0.5,1.1-1.1,1.1s-1.1-0.5-1.1-1.1
		C262.7,558.7,263.2,558.2,263.8,558.2z"/>
	<path class="st4" d="M263.8,562.8c0.6,0,1.1,0.5,1.1,1.1c0,0.6-0.5,1.1-1.1,1.1s-1.1-0.5-1.1-1.1
		C262.7,563.3,263.2,562.8,263.8,562.8z"/>
	<circle class="st4" cx="263.8" cy="568.6" r="1.1"/>
	<circle class="st4" cx="268" cy="554.6" r="1.1"/>
	<path class="st4" d="M268,558.2c0.6,0,1.1,0.5,1.1,1.1c0,0.6-0.5,1.1-1.1,1.1c-0.6,0-1.1-0.5-1.1-1.1
		C266.9,558.7,267.4,558.2,268,558.2z"/>
	<path class="st4" d="M268,562.8c0.6,0,1.1,0.5,1.1,1.1c0,0.6-0.5,1.1-1.1,1.1c-0.6,0-1.1-0.5-1.1-1.1
		C266.9,563.3,267.4,562.8,268,562.8z"/>
	<circle class="st4" cx="268" cy="568.6" r="1.1"/>
	<path class="st4" d="M272.3,553.5c0.6,0,1.1,0.5,1.1,1.1c0,0.6-0.5,1.1-1.1,1.1c-0.6,0-1.1-0.5-1.1-1.1
		C271.1,554,271.6,553.5,272.3,553.5z"/>
	<path class="st4" d="M272.3,558.2c0.6,0,1.1,0.5,1.1,1.1c0,0.6-0.5,1.1-1.1,1.1c-0.6,0-1.1-0.5-1.1-1.1
		C271.1,558.7,271.6,558.2,272.3,558.2z"/>
	<path class="st4" d="M272.3,562.8c0.6,0,1.1,0.5,1.1,1.1c0,0.6-0.5,1.1-1.1,1.1c-0.6,0-1.1-0.5-1.1-1.1
		C271.1,563.3,271.6,562.8,272.3,562.8z"/>
	<circle class="st4" cx="272.3" cy="568.6" r="1.1"/>
	<path class="st4" d="M276.5,553.5c0.6,0,1.1,0.5,1.1,1.1c0,0.6-0.5,1.1-1.1,1.1c-0.6,0-1.1-0.5-1.1-1.1
		C275.4,554,275.9,553.5,276.5,553.5z"/>
	<path class="st4" d="M276.5,558.2c0.6,0,1.1,0.5,1.1,1.1c0,0.6-0.5,1.1-1.1,1.1c-0.6,0-1.1-0.5-1.1-1.1
		C275.4,558.7,275.9,558.2,276.5,558.2z"/>
	<path class="st4" d="M276.5,562.8c0.6,0,1.1,0.5,1.1,1.1c0,0.6-0.5,1.1-1.1,1.1c-0.6,0-1.1-0.5-1.1-1.1
		C275.4,563.3,275.9,562.8,276.5,562.8z"/>
	<circle class="st4" cx="276.5" cy="568.6" r="1.1"/>
	<path class="st4" d="M280.7,553.5c0.6,0,1.1,0.5,1.1,1.1c0,0.6-0.5,1.1-1.1,1.1c-0.6,0-1.1-0.5-1.1-1.1
		C279.6,554,280.1,553.5,280.7,553.5z"/>
	<path class="st4" d="M280.7,558.2c0.6,0,1.1,0.5,1.1,1.1c0,0.6-0.5,1.1-1.1,1.1c-0.6,0-1.1-0.5-1.1-1.1
		C279.6,558.7,280.1,558.2,280.7,558.2z"/>
	<path class="st4" d="M280.7,562.8c0.6,0,1.1,0.5,1.1,1.1c0,0.6-0.5,1.1-1.1,1.1c-0.6,0-1.1-0.5-1.1-1.1
		C279.6,563.3,280.1,562.8,280.7,562.8z"/>
	<circle class="st4" cx="280.7" cy="568.6" r="1.1"/>
	<path class="st4" d="M284.9,553.5c0.6,0,1.1,0.5,1.1,1.1c0,0.6-0.5,1.1-1.1,1.1c-0.6,0-1.1-0.5-1.1-1.1
		C283.8,554,284.3,553.5,284.9,553.5z"/>
	<path class="st4" d="M284.9,558.2c0.6,0,1.1,0.5,1.1,1.1c0,0.6-0.5,1.1-1.1,1.1c-0.6,0-1.1-0.5-1.1-1.1
		C283.8,558.7,284.3,558.2,284.9,558.2z"/>
	<path class="st4" d="M284.9,562.8c0.6,0,1.1,0.5,1.1,1.1c0,0.6-0.5,1.1-1.1,1.1c-0.6,0-1.1-0.5-1.1-1.1
		C283.8,563.3,284.3,562.8,284.9,562.8z"/>
	<circle class="st4" cx="284.9" cy="568.6" r="1.1"/>
	<path class="st4" d="M289.2,553.5c0.6,0,1.1,0.5,1.1,1.1c0,0.6-0.5,1.1-1.1,1.1c-0.6,0-1.1-0.5-1.1-1.1
		C288.1,554,288.6,553.5,289.2,553.5z"/>
	<path class="st4" d="M289.2,558.2c0.6,0,1.1,0.5,1.1,1.1c0,0.6-0.5,1.1-1.1,1.1c-0.6,0-1.1-0.5-1.1-1.1
		C288.1,558.7,288.6,558.2,289.2,558.2z"/>
	<path class="st4" d="M289.2,562.8c0.6,0,1.1,0.5,1.1,1.1c0,0.6-0.5,1.1-1.1,1.1c-0.6,0-1.1-0.5-1.1-1.1
		C288.1,563.3,288.6,562.8,289.2,562.8z"/>
	<circle class="st4" cx="289.2" cy="568.6" r="1.1"/>
	<path class="st4" d="M293.4,553.5c0.6,0,1.1,0.5,1.1,1.1c0,0.6-0.5,1.1-1.1,1.1c-0.6,0-1.1-0.5-1.1-1.1
		C292.3,554,292.8,553.5,293.4,553.5z"/>
	<path class="st4" d="M293.4,558.2c0.6,0,1.1,0.5,1.1,1.1c0,0.6-0.5,1.1-1.1,1.1c-0.6,0-1.1-0.5-1.1-1.1
		C292.3,558.7,292.8,558.2,293.4,558.2z"/>
	<path class="st4" d="M293.4,562.8c0.6,0,1.1,0.5,1.1,1.1c0,0.6-0.5,1.1-1.1,1.1c-0.6,0-1.1-0.5-1.1-1.1
		C292.3,563.3,292.8,562.8,293.4,562.8z"/>
	<circle class="st4" cx="293.4" cy="568.6" r="1.1"/>
	<path class="st4" d="M297.6,553.5c0.6,0,1.1,0.5,1.1,1.1c0,0.6-0.5,1.1-1.1,1.1c-0.6,0-1.1-0.5-1.1-1.1
		C296.5,554,297,553.5,297.6,553.5z"/>
	<path class="st4" d="M297.6,558.2c0.6,0,1.1,0.5,1.1,1.1c0,0.6-0.5,1.1-1.1,1.1c-0.6,0-1.1-0.5-1.1-1.1
		C296.5,558.7,297,558.2,297.6,558.2z"/>
	<path class="st4" d="M297.6,562.8c0.6,0,1.1,0.5,1.1,1.1c0,0.6-0.5,1.1-1.1,1.1c-0.6,0-1.1-0.5-1.1-1.1
		C296.5,563.3,297,562.8,297.6,562.8z"/>
	<path class="st4" d="M297.6,567.5c0.6,0,1.1,0.5,1.1,1.1s-0.5,1.1-1.1,1.1c-0.6,0-1.1-0.5-1.1-1.1C296.5,568,297,567.5,297.6,567.5
		z"/>
	<path class="st4" d="M301.9,553.5c0.6,0,1.1,0.5,1.1,1.1c0,0.6-0.5,1.1-1.1,1.1c-0.6,0-1.1-0.5-1.1-1.1
		C300.7,554,301.2,553.5,301.9,553.5z"/>
	<path class="st4" d="M301.9,558.2c0.6,0,1.1,0.5,1.1,1.1c0,0.6-0.5,1.1-1.1,1.1c-0.6,0-1.1-0.5-1.1-1.1
		C300.7,558.7,301.2,558.2,301.9,558.2z"/>
	<path class="st4" d="M301.9,562.8c0.6,0,1.1,0.5,1.1,1.1c0,0.6-0.5,1.1-1.1,1.1c-0.6,0-1.1-0.5-1.1-1.1
		C300.7,563.3,301.2,562.8,301.9,562.8z"/>
	<path class="st4" d="M301.9,567.5c0.6,0,1.1,0.5,1.1,1.1s-0.5,1.1-1.1,1.1c-0.6,0-1.1-0.5-1.1-1.1
		C300.7,568,301.2,567.5,301.9,567.5z"/>
	<path class="st4" d="M306.1,553.5c0.6,0,1.1,0.5,1.1,1.1c0,0.6-0.5,1.1-1.1,1.1c-0.6,0-1.1-0.5-1.1-1.1
		C305,554,305.5,553.5,306.1,553.5z"/>
	<path class="st4" d="M306.1,558.2c0.6,0,1.1,0.5,1.1,1.1c0,0.6-0.5,1.1-1.1,1.1c-0.6,0-1.1-0.5-1.1-1.1
		C305,558.7,305.5,558.2,306.1,558.2z"/>
	<path class="st4" d="M306.1,562.8c0.6,0,1.1,0.5,1.1,1.1c0,0.6-0.5,1.1-1.1,1.1c-0.6,0-1.1-0.5-1.1-1.1
		C305,563.3,305.5,562.8,306.1,562.8z"/>
	<path class="st4" d="M306.1,567.5c0.6,0,1.1,0.5,1.1,1.1s-0.5,1.1-1.1,1.1c-0.6,0-1.1-0.5-1.1-1.1C305,568,305.5,567.5,306.1,567.5
		z"/>
	<path class="st4" d="M310.3,553.5c0.6,0,1.1,0.5,1.1,1.1c0,0.6-0.5,1.1-1.1,1.1c-0.6,0-1.1-0.5-1.1-1.1
		C309.2,554,309.7,553.5,310.3,553.5z"/>
	<path class="st4" d="M310.3,558.2c0.6,0,1.1,0.5,1.1,1.1c0,0.6-0.5,1.1-1.1,1.1c-0.6,0-1.1-0.5-1.1-1.1
		C309.2,558.7,309.7,558.2,310.3,558.2z"/>
	<path class="st4" d="M310.3,562.8c0.6,0,1.1,0.5,1.1,1.1c0,0.6-0.5,1.1-1.1,1.1c-0.6,0-1.1-0.5-1.1-1.1
		C309.2,563.3,309.7,562.8,310.3,562.8z"/>
	<path class="st4" d="M310.3,567.5c0.6,0,1.1,0.5,1.1,1.1s-0.5,1.1-1.1,1.1c-0.6,0-1.1-0.5-1.1-1.1
		C309.2,568,309.7,567.5,310.3,567.5z"/>
	<path class="st4" d="M314.5,553.5c0.6,0,1.1,0.5,1.1,1.1c0,0.6-0.5,1.1-1.1,1.1c-0.6,0-1.1-0.5-1.1-1.1
		C313.4,554,313.9,553.5,314.5,553.5z"/>
	<path class="st4" d="M314.5,558.2c0.6,0,1.1,0.5,1.1,1.1c0,0.6-0.5,1.1-1.1,1.1c-0.6,0-1.1-0.5-1.1-1.1
		C313.4,558.7,313.9,558.2,314.5,558.2z"/>
	<path class="st4" d="M314.5,562.8c0.6,0,1.1,0.5,1.1,1.1c0,0.6-0.5,1.1-1.1,1.1c-0.6,0-1.1-0.5-1.1-1.1
		C313.4,563.3,313.9,562.8,314.5,562.8z"/>
	<path class="st4" d="M318.8,553.5c0.6,0,1.1,0.5,1.1,1.1c0,0.6-0.5,1.1-1.1,1.1c-0.6,0-1.1-0.5-1.1-1.1
		C317.7,554,318.2,553.5,318.8,553.5z"/>
	<path class="st4" d="M318.8,558.2c0.6,0,1.1,0.5,1.1,1.1c0,0.6-0.5,1.1-1.1,1.1c-0.6,0-1.1-0.5-1.1-1.1
		C317.7,558.7,318.2,558.2,318.8,558.2z"/>
	<path class="st4" d="M318.8,562.8c0.6,0,1.1,0.5,1.1,1.1c0,0.6-0.5,1.1-1.1,1.1c-0.6,0-1.1-0.5-1.1-1.1
		C317.7,563.3,318.2,562.8,318.8,562.8z"/>
	<path class="st4" d="M323,553.5c0.6,0,1.1,0.5,1.1,1.1c0,0.6-0.5,1.1-1.1,1.1c-0.6,0-1.1-0.5-1.1-1.1
		C321.9,554,322.4,553.5,323,553.5z"/>
	<path class="st4" d="M323,558.2c0.6,0,1.1,0.5,1.1,1.1c0,0.6-0.5,1.1-1.1,1.1c-0.6,0-1.1-0.5-1.1-1.1
		C321.9,558.7,322.4,558.2,323,558.2z"/>
	<path class="st4" d="M323,562.8c0.6,0,1.1,0.5,1.1,1.1c0,0.6-0.5,1.1-1.1,1.1c-0.6,0-1.1-0.5-1.1-1.1
		C321.9,563.3,322.4,562.8,323,562.8z"/>
	<path class="st4" d="M327.2,553.5c0.6,0,1.1,0.5,1.1,1.1c0,0.6-0.5,1.1-1.1,1.1c-0.6,0-1.1-0.5-1.1-1.1
		C326.1,554,326.6,553.5,327.2,553.5z"/>
	<path class="st4" d="M327.2,558.2c0.6,0,1.1,0.5,1.1,1.1c0,0.6-0.5,1.1-1.1,1.1c-0.6,0-1.1-0.5-1.1-1.1
		C326.1,558.7,326.6,558.2,327.2,558.2z"/>
	<path class="st4" d="M327.2,562.8c0.6,0,1.1,0.5,1.1,1.1c0,0.6-0.5,1.1-1.1,1.1c-0.6,0-1.1-0.5-1.1-1.1
		C326.1,563.3,326.6,562.8,327.2,562.8z"/>
	<path class="st4" d="M331.5,553.5c0.6,0,1.1,0.5,1.1,1.1c0,0.6-0.5,1.1-1.1,1.1c-0.6,0-1.1-0.5-1.1-1.1
		C330.4,554,330.8,553.5,331.5,553.5z"/>
	<path class="st4" d="M331.5,558.2c0.6,0,1.1,0.5,1.1,1.1c0,0.6-0.5,1.1-1.1,1.1c-0.6,0-1.1-0.5-1.1-1.1
		C330.4,558.7,330.8,558.2,331.5,558.2z"/>
	<path class="st4" d="M331.5,562.8c0.6,0,1.1,0.5,1.1,1.1c0,0.6-0.5,1.1-1.1,1.1c-0.6,0-1.1-0.5-1.1-1.1
		C330.4,563.3,330.8,562.8,331.5,562.8z"/>
	<path class="st4" d="M335.7,558.2c0.6,0,1.1,0.5,1.1,1.1c0,0.6-0.5,1.1-1.1,1.1c-0.6,0-1.1-0.5-1.1-1.1
		C334.6,558.7,335.1,558.2,335.7,558.2z"/>
	<path class="st4" d="M335.7,562.8c0.6,0,1.1,0.5,1.1,1.1c0,0.6-0.5,1.1-1.1,1.1c-0.6,0-1.1-0.5-1.1-1.1
		C334.6,563.3,335.1,562.8,335.7,562.8z"/>
	<path class="st4" d="M314.4,569.7h16.7c0.8,0,1.4-0.5,1.4-1.1c0-0.6-0.6-1.1-1.4-1.1h-16.7c-0.8,0-1.4,0.5-1.4,1.1
		C313,569.3,313.6,569.7,314.4,569.7z"/>
</g>
<circle class="st4" cx="289.6" cy="349.8" r="10"/>
<circle class="st5" cx="289.2" cy="349.8" r="6.3"/>
</svg>
