<?xml version="1.0" encoding="utf-8"?>
<!-- Generator: Adobe Illustrator 22.0.0, SVG Export Plug-In . SVG Version: 6.00 Build 0)  -->
<svg version="1.1" id="Layer_1" xmlns="http://www.w3.org/2000/svg" xmlns:xlink="http://www.w3.org/1999/xlink" x="0px" y="0px"
	 viewBox="0 0 595.3 841.9" style="enable-background:new 0 0 595.3 841.9;" xml:space="preserve">
<style type="text/css">
	.st0{fill:#4C2E75;}
	.st1{clip-path:url(#XMLID_2_);fill:#2A1B3E;}
	.st2{fill:#EF4562;}
	.st3{fill:#40B75F;}
	.st4{fill:#3B69AA;}
	.st5{fill:#74C482;}
	.st6{fill:#F17789;}
	.st7{fill:#58B6E7;}
</style>
<circle id="XMLID_144_" class="st0" cx="294.2" cy="420.1" r="181"/>
<g id="XMLID_141_">
	<defs>
		<circle id="XMLID_142_" cx="294.2" cy="420.1" r="181"/>
	</defs>
	<clipPath id="XMLID_2_">
		<use xlink:href="#XMLID_142_"  style="overflow:visible;"/>
	</clipPath>
	<path id="XMLID_143_" class="st1" d="M303.7,296.5C364.8,357,425.9,417.5,487,478c-29.7,58-59.3,116-89,174
		c-54.2-47.2-108.3-94.4-162.5-141.7C258.2,439,280.9,367.8,303.7,296.5z"/>
</g>
<circle id="XMLID_140_" class="st2" cx="303.7" cy="368.6" r="72.2"/>
<circle id="XMLID_139_" class="st3" cx="346.5" cy="442.8" r="72.2"/>
<circle id="XMLID_138_" class="st4" cx="260.9" cy="442.8" r="72.2"/>
<path id="XMLID_137_" class="st5" d="M303.7,384.6c7.8,5.7,14.6,13.1,19.7,22c5.1,8.9,8.2,18.5,9.2,28.1
	c23.1-10.1,39.9-32,42.8-58.1C351.4,366.1,324,369.7,303.7,384.6z"/>
<path id="XMLID_136_" class="st6" d="M274.7,434.8c1.1-9.6,4.1-19.2,9.2-28.1c5.1-8.9,11.9-16.3,19.7-22c-20.3-15-47.7-18.5-71.7-8
	C234.8,402.7,251.6,424.6,274.7,434.8z"/>
<path id="XMLID_135_" class="st7" d="M332.6,434.8c-8.9,3.9-18.6,6-28.9,6c-10.3,0-20.1-2.2-28.9-6c-2.8,25.1,7.8,50.6,28.9,66.1
	C324.8,485.3,335.4,459.8,332.6,434.8z"/>
<path id="XMLID_133_" class="st4" d="M303.7,384.6c-7.8,5.7-14.6,13.1-19.7,22c-5.1,8.9-8.2,18.5-9.2,28.1c8.9,3.9,18.6,6,28.9,6
	c10.3,0,20.1-2.2,28.9-6c-1.1-9.6-4.1-19.2-9.2-28.1C318.2,397.8,311.5,390.4,303.7,384.6z"/>
</svg>
