<?xml version="1.0" encoding="utf-8"?>
<!-- Generator: Adobe Illustrator 22.0.0, SVG Export Plug-In . SVG Version: 6.00 Build 0)  -->
<svg version="1.1" id="Layer_1" xmlns="http://www.w3.org/2000/svg" xmlns:xlink="http://www.w3.org/1999/xlink" x="0px" y="0px"
	 viewBox="0 0 595.3 841.9" style="enable-background:new 0 0 595.3 841.9;" xml:space="preserve">
<style type="text/css">
	.st0{fill:#FFFFFF;}
	.st1{fill:#FAAF22;}
	.st2{clip-path:url(#XMLID_2_);fill:#EF9129;}
	.st3{fill:#E6E7E7;}
	.st4{fill:#CE8234;}
	.st5{fill:#010101;}
</style>
<rect id="XMLID_196_" x="210.3" y="369.4" class="st0" width="128.7" height="202.8"/>
<g id="XMLID_194_">
	<circle id="XMLID_195_" class="st1" cx="289.1" cy="466.8" r="181"/>
</g>
<g id="XMLID_190_">
	<defs>
		<ellipse id="XMLID_192_" cx="289.1" cy="467.7" rx="181" ry="177.4"/>
	</defs>
	<clipPath id="XMLID_2_">
		<use xlink:href="#XMLID_192_"  style="overflow:visible;"/>
	</clipPath>
	<path id="XMLID_193_" class="st2" d="M376.8,365.4c54.5,26.8,109.1,53.6,163.6,80.4c-0.5,91.7-0.9,183.5-1.4,275.2
		c-110.7-48.4-221.4-96.9-332.2-145.3C263.5,505.6,320.1,435.5,376.8,365.4z"/>
</g>
<polygon id="XMLID_189_" class="st3" points="342.5,365.9 319.2,470.8 342.5,575.7 376.8,575.7 376.8,365.9 "/>
<rect id="XMLID_188_" x="206.8" y="365.9" class="st4" width="135.7" height="209.8"/>
<rect id="XMLID_187_" x="346" y="369.4" class="st3" width="27.3" height="202.8"/>
<path id="XMLID_186_" class="st0" d="M317.9,565.4h-86.3c-7.5,0-13.5-6.1-13.5-13.5V396.7c0-7.5,6.1-13.5,13.5-13.5h86.3
	c7.5,0,13.5,6.1,13.5,13.5v155.2C331.4,559.4,325.3,565.4,317.9,565.4z"/>
<g id="XMLID_175_">
	<circle id="XMLID_185_" class="st1" cx="274.7" cy="414.6" r="18.4"/>
	<circle id="XMLID_184_" class="st0" cx="274.7" cy="507.9" r="44.5"/>
	<path id="XMLID_183_" class="st1" d="M274.7,486.6c-11.7,0-21.2,9.5-21.2,21.2c0,11.7,9.5,21.2,21.2,21.2s21.2-9.5,21.2-21.2
		C295.9,496.2,286.4,486.6,274.7,486.6z"/>
	<path id="XMLID_180_" class="st5" d="M274.7,436.5c12.1,0,21.9-9.8,21.9-21.9c0-12.1-9.8-21.9-21.9-21.9s-21.9,9.8-21.9,21.9
		C252.8,426.7,262.6,436.5,274.7,436.5z M274.7,399.7c8.2,0,14.9,6.7,14.9,14.9c0,8.2-6.7,14.9-14.9,14.9s-14.9-6.7-14.9-14.9
		S266.5,399.7,274.7,399.7z"/>
	<path id="XMLID_177_" class="st5" d="M274.7,459.8c-26.5,0-48,21.5-48,48c0,26.5,21.5,48,48,48s48-21.5,48-48
		C322.7,481.4,301.2,459.8,274.7,459.8z M274.7,548.9c-22.6,0-41-18.4-41-41c0-22.6,18.4-41,41-41s41,18.4,41,41
		C315.7,530.5,297.3,548.9,274.7,548.9z"/>
	<path id="XMLID_176_" class="st5" d="M295.9,511.5c-1.8-0.6-3.8,0.3-4.5,2.1c-2.5,7.1-9.2,11.9-16.7,11.9
		c-9.8,0-17.7-7.9-17.7-17.7c0-9.8,7.9-17.7,17.7-17.7c7.5,0,14.2,4.8,16.7,11.9c0.6,1.8,2.6,2.8,4.5,2.1c1.8-0.6,2.8-2.6,2.1-4.5
		c-3.5-9.9-12.8-16.6-23.3-16.6c-13.6,0-24.7,11.1-24.7,24.7c0,13.6,11.1,24.7,24.7,24.7c10.5,0,19.9-6.7,23.3-16.6
		C298.7,514.2,297.7,512.2,295.9,511.5z"/>
</g>
</svg>
