<?xml version="1.0" encoding="utf-8"?>
<!-- Generator: Adobe Illustrator 22.0.0, SVG Export Plug-In . SVG Version: 6.00 Build 0)  -->
<svg version="1.1" id="Layer_1" xmlns="http://www.w3.org/2000/svg" xmlns:xlink="http://www.w3.org/1999/xlink" x="0px" y="0px"
	 viewBox="0 0 595.3 841.9" style="enable-background:new 0 0 595.3 841.9;" xml:space="preserve">
<style type="text/css">
	.st0{fill:#A2C83A;}
	.st1{clip-path:url(#XMLID_2_);fill:#8BAA3D;}
	.st2{fill:#FFFFFF;}
</style>
<g id="XMLID_121_">
	<circle id="XMLID_120_" class="st0" cx="294.6" cy="460.1" r="181"/>
	<g id="XMLID_117_">
		<defs>
			<circle id="XMLID_118_" cx="294.6" cy="460.1" r="181"/>
		</defs>
		<clipPath id="XMLID_2_">
			<use xlink:href="#XMLID_118_"  style="overflow:visible;"/>
		</clipPath>
		<path id="XMLID_119_" class="st1" d="M261.7,382.8C341.5,434.2,421.2,485.6,501,537c-2,54.3-4.1,108.7-6.1,163
			c-80.4-47.7-160.8-95.5-241.3-143.2c-5.9-21.6-11.2-50.8-9.9-85.3C245.1,435,253.5,404.7,261.7,382.8z"/>
	</g>
	<g id="XMLID_101_">
		<path id="XMLID_103_" class="st2" d="M280,521.1c1.4,23.4-3.5,32.7-19.8,35.3c-16.3,2.6-32.1-11.4-35.3-31.4
			c-1.5-9.2-2.9-27.8-4.8-36l-14-39.4c-0.8-3.5-10-20.1-11.5-27.3c-3-14.7,6.5-29,21.2-32c0,0,21.8-4.4,25.7-5.2
			c3.8-0.8,15.3-1.5,15.3-1.5c15.7,0,23.3,8.1,23.3,23.9c0,9.1-16.2,23.2-16.2,23.2s-22.9,22-14.9,38.4
			C256.9,485.4,275.1,490.1,280,521.1z M261.7,379.6c6.5,0,11.8-7.8,11.8-17.3s-5.3-17.3-11.8-17.3c-6.5,0-11.8,7.7-11.8,17.3
			C249.9,371.8,255.2,379.6,261.7,379.6z M236.6,377.8c4.2-0.6,6.9-6,6-12.2c-0.9-6.1-5-10.6-9.2-10c-4.2,0.6-6.9,6-6,12.2
			C228.3,373.9,232.4,378.4,236.6,377.8z M218.7,382.7c3-0.7,4.6-4.9,3.6-9.3c-1.1-4.4-4.4-7.4-7.4-6.7c-3,0.7-4.6,4.9-3.6,9.3
			C212.4,380.4,215.7,383.4,218.7,382.7z M204.2,392.2c2.6-1,3.5-5,2-8.9s-4.9-6.2-7.6-5.1s-3.5,5-2,8.9
			C198.2,390.9,201.6,393.2,204.2,392.2z M188.5,393.3c-1.8,0.7-2.4,3.3-1.4,5.9c1,2.6,3.3,4.1,5,3.4c1.8-0.7,2.4-3.3,1.4-5.9
			C192.5,394.1,190.2,392.6,188.5,393.3z M374.1,430.7c0,0-21.3-6.3-25.1-7.4c-3.8-1.1-15.1-2.8-15.1-2.8
			c-15.7-1.3-23.9,6.1-25.3,21.8c-0.8,9.1,14.1,24.4,14.1,24.4s20.9,23.9,11.5,39.5c-9.4,15.6-27.9,18.8-35.4,49.2
			c-3.4,23.2,0.7,32.9,16.7,36.9c16.1,4,33-8.7,37.9-28.3c2.3-9,5.3-27.5,7.9-35.5l17.3-38.1c1.1-3.4,11.7-19.2,13.8-26.2
			C396.7,450,388.4,434.9,374.1,430.7z M329.1,416c6.5,0.6,12.4-6.7,13.2-16.2c0.8-9.5-3.8-17.7-10.3-18.2
			c-6.5-0.6-12.4,6.7-13.2,16.2C318,407.3,322.6,415.4,329.1,416z M354.3,416.4c4.1,0.9,8.6-3.2,10-9.2c1.4-6-0.8-11.7-4.9-12.6
			c-4.1-0.9-8.6,3.2-9.9,9.2C348,409.8,350.2,415.4,354.3,416.4z M371.7,422.8c2.9,1,6.5-1.7,7.9-6c1.4-4.3,0.2-8.6-2.8-9.6
			c-2.9-1-6.5,1.7-7.9,6C367.5,417.5,368.8,421.8,371.7,422.8z M392.1,420c-2.6-1.3-6.1,0.7-8,4.4c-1.8,3.7-1.3,7.8,1.3,9
			c2.5,1.3,6.1-0.7,8-4.4C395.2,425.3,394.6,421.2,392.1,420z M400.9,435.9c-1.7-0.8-4.1,0.5-5.3,3c-1.2,2.5-0.9,5.2,0.9,6
			c1.7,0.9,4.1-0.5,5.3-3C403,439.5,402.7,436.8,400.9,435.9z"/>
	</g>
</g>
</svg>
