<?xml version="1.0" encoding="utf-8"?>
<!-- Generator: Adobe Illustrator 22.0.0, SVG Export Plug-In . SVG Version: 6.00 Build 0)  -->
<svg version="1.1" id="Layer_1" xmlns="http://www.w3.org/2000/svg" xmlns:xlink="http://www.w3.org/1999/xlink" x="0px" y="0px"
	 viewBox="0 0 595.3 841.9" style="enable-background:new 0 0 595.3 841.9;" xml:space="preserve">
<style type="text/css">
	.st0{fill:#465B65;}
	.st1{fill:#EDEFF0;}
	.st2{fill:#FDC113;}
	.st3{fill:#010101;}
</style>
<g id="XMLID_708_">
	<path id="XMLID_690_" class="st0" d="M381.6,211H215c-12.5,0-22.7,10.2-22.7,22.7c0,12.5,10.2,22.7,22.7,22.7h166.6
		c12.5,0,22.7-10.2,22.7-22.7C404.3,221.2,394.1,211,381.6,211z"/>
	<path id="XMLID_689_" class="st0" d="M381.6,544.1H215c-4.2,0-7.6-3.4-7.6-7.6v-63.4c0-19.7,8.5-38.3,23.3-51.3l26.8-23.5
		c3.1-2.8,3.5-7.5,0.7-10.7c-0.2-0.2-0.5-0.5-0.7-0.7l-26.8-23.5c-14.8-12.9-23.3-31.6-23.3-51.3v-63.4c0-4.2,3.4-7.6,7.6-7.6h166.6
		c4.2,0,7.6,3.4,7.6,7.6v63.4c0,19.7-8.5,38.3-23.3,51.3L339,387c-3.1,2.8-3.5,7.5-0.7,10.7c0.2,0.2,0.5,0.5,0.7,0.7l26.8,23.5
		c14.8,12.9,23.3,31.6,23.3,51.3v63.4C389.1,540.7,385.7,544.1,381.6,544.1z"/>
</g>
<path id="XMLID_688_" class="st1" d="M222.6,529H374v-55.8c0-15.3-6.6-29.8-18.2-39.9L329,409.8c-9.4-8.3-10.4-22.6-2.1-32
	c0.7-0.8,1.4-1.5,2.1-2.1l26.8-23.5c11.5-10,18.2-24.6,18.2-39.9v-55.8H222.6v55.8c0,15.3,6.6,29.8,18.2,39.9l26.8,23.5
	c9.4,8.3,10.4,22.6,2.1,32.1c-0.7,0.8-1.4,1.5-2.1,2.1l-26.8,23.5c-11.5,10-18.2,24.6-18.2,39.9V529z"/>
<path id="XMLID_687_" class="st2" d="M343.1,336.8c-1.2-2.8-3.9-4.7-7-4.7h-75.7c-4.2,0-7.6,3.4-7.6,7.6c0,2,0.8,3.9,2.2,5.4
	l37.9,37.9c3,3,7.7,3,10.7,0l37.9-37.9C343.6,342.9,344.3,339.6,343.1,336.8z"/>
<path id="XMLID_686_" class="st0" d="M381.6,529H215c-12.5,0-22.7,10.2-22.7,22.7s10.2,22.7,22.7,22.7h166.6
	c12.5,0,22.7-10.2,22.7-22.7S394.1,529,381.6,529z"/>
<path id="XMLID_685_" class="st2" d="M303.4,447.7c-3-2.7-7.6-2.6-10.4,0.3l-70.4,70.3V529H374v-17.1L303.4,447.7z"/>
<path id="XMLID_701_" class="st3" d="M381.6,256.4H215c-12.5,0-22.7-10.2-22.7-22.7c0-12.5,10.2-22.7,22.7-22.7h166.6
	c12.5,0,22.7,10.2,22.7,22.7C404.3,246.3,394.1,256.4,381.6,256.4z M215,226.1c-4.2,0-7.6,3.4-7.6,7.6c0,4.2,3.4,7.6,7.6,7.6h166.6
	c4.2,0,7.6-3.4,7.6-7.6c0-4.2-3.4-7.6-7.6-7.6H215z"/>
<path id="XMLID_698_" class="st3" d="M381.6,574.4H215c-12.5,0-22.7-10.2-22.7-22.7S202.5,529,215,529h166.6
	c12.5,0,22.7,10.2,22.7,22.7S394.1,574.4,381.6,574.4z M215,544.1c-4.2,0-7.6,3.4-7.6,7.6s3.4,7.6,7.6,7.6h166.6
	c4.2,0,7.6-3.4,7.6-7.6s-3.4-7.6-7.6-7.6H215z"/>
<path id="XMLID_680_" class="st3" d="M215,544.1c-4.2,0-7.6-3.4-7.6-7.6v-63.4c0-19.7,8.5-38.3,23.3-51.3l26.8-23.5
	c3.1-2.8,3.5-7.5,0.7-10.7c-0.2-0.2-0.5-0.5-0.7-0.7l-26.8-23.5c-14.8-12.9-23.3-31.6-23.3-51.3v-63.4c0-4.2,3.4-7.6,7.6-7.6
	c4.2,0,7.6,3.4,7.6,7.6v63.4c0,15.3,6.6,29.8,18.2,39.9l26.8,23.5c9.4,8.3,10.4,22.6,2.1,32c-0.7,0.8-1.4,1.5-2.1,2.1l-26.8,23.5
	c-11.5,10-18.2,24.6-18.2,39.9v63.4C222.6,540.7,219.2,544.1,215,544.1z"/>
<path id="XMLID_679_" class="st3" d="M381.6,544.1c-4.2,0-7.6-3.4-7.6-7.6v-63.4c0-15.3-6.6-29.8-18.2-39.9L329,409.8
	c-9.4-8.3-10.4-22.6-2.1-32c0.7-0.8,1.4-1.5,2.1-2.1l26.8-23.5c11.5-10,18.2-24.6,18.2-39.9v-63.4c0-4.2,3.4-7.6,7.6-7.6
	c4.2,0,7.6,3.4,7.6,7.6v63.4c0,19.7-8.5,38.3-23.3,51.3L339,387c-3.1,2.8-3.5,7.5-0.7,10.7c0.2,0.2,0.5,0.5,0.7,0.7l26.8,23.5
	c14.8,12.9,23.3,31.6,23.3,51.3v63.4C389.1,540.7,385.7,544.1,381.6,544.1z"/>
<path id="XMLID_693_" class="st3" d="M298.3,385.1c-2,0-3.9-0.8-5.4-2.2l-37.9-37.9c-3-3-3-7.7,0-10.7c1.4-1.4,3.4-2.2,5.4-2.2h75.7
	c4.2,0,7.6,3.4,7.6,7.6c0,2-0.8,3.9-2.2,5.4l-37.9,37.9C302.2,384.3,300.3,385.1,298.3,385.1z M278.7,347.3l19.6,19.6l19.6-19.6
	H278.7z"/>
<path id="XMLID_676_" class="st3" d="M381.6,536.5c-1.9,0-3.7-0.7-5.1-2l-77.9-70.9l-70.6,70.6c-3,2.9-7.8,2.8-10.7-0.2
	c-2.8-2.9-2.8-7.6,0-10.5l75.7-75.7c2.9-2.9,7.4-3,10.4-0.3l83.3,75.7c3.1,2.8,3.3,7.6,0.5,10.7
	C385.7,535.6,383.7,536.5,381.6,536.5z"/>
</svg>
