<?xml version="1.0" encoding="utf-8"?>
<!-- Generator: Adobe Illustrator 22.0.0, SVG Export Plug-In . SVG Version: 6.00 Build 0)  -->
<svg version="1.1" id="Layer_1" xmlns="http://www.w3.org/2000/svg" xmlns:xlink="http://www.w3.org/1999/xlink" x="0px" y="0px"
	 viewBox="0 0 595.3 841.9" style="enable-background:new 0 0 595.3 841.9;" xml:space="preserve">
<style type="text/css">
	.st0{fill:#FAAF22;}
	.st1{clip-path:url(#XMLID_2_);fill:#EF9129;}
	.st2{clip-path:url(#XMLID_3_);}
	.st3{fill:#FBB050;}
	.st4{fill:#F99E29;}
	.st5{fill:#F78C1E;}
	.st6{fill:#16133F;}
</style>
<circle id="XMLID_34_" class="st0" cx="294.1" cy="462.6" r="181"/>
<g id="XMLID_31_">
	<defs>
		<circle id="XMLID_32_" cx="294.1" cy="462.6" r="181"/>
	</defs>
	<clipPath id="XMLID_2_">
		<use xlink:href="#XMLID_32_"  style="overflow:visible;"/>
	</clipPath>
	<polygon id="XMLID_33_" class="st1" points="324.2,388.8 506.3,516.1 367.6,681.8 285.3,643.4 285.3,528.3 	"/>
</g>
<g id="XMLID_20_">
	<defs>
		<circle id="XMLID_306_" cx="294.1" cy="462.6" r="181"/>
	</defs>
	<clipPath id="XMLID_3_">
		<use xlink:href="#XMLID_306_"  style="overflow:visible;"/>
	</clipPath>
	<g id="XMLID_21_" class="st2">
		<path id="XMLID_30_" class="st3" d="M296.8,467.7l-15.9,50.6l-26.6-26.5c17.7-38.8,40.8-89.3,40.8-89.3
			c3.3-7.2,14.1-13.4,21.4-10.1c7.2,3.3,8.1,14.9,4.8,22.1L296.8,467.7z"/>
		<path id="XMLID_29_" class="st4" d="M314.5,498.1l-7.5,32.1l-32.1-14.7l21.9-47.9c3.3-7.2,12.8-14.5,20-11.3
			c7.2,3.3,9.4,16,6.1,23.2L314.5,498.1z"/>
		<path id="XMLID_28_" class="st5" d="M335.4,521.4l-2.3,20.7l-32.1-14.7l13.4-29.4c3.3-7.2,13.4-13.7,20.6-10.4
			c7.2,3.3,8.9,15.2,5.6,22.4L335.4,521.4z"/>
		<path id="XMLID_27_" class="st4" d="M361.6,533.4c0,0-1.1,2.3-2.8,6.1l-31.6-0.1l8.2-18c3.3-7.2,12-16.7,22.4-11.1
			C364.8,514.1,364.9,526.2,361.6,533.4z"/>
		<path id="XMLID_26_" class="st3" d="M254.2,491.7l-19,41.6c-8,17.5-6.8,36.9,2,52.5l-44.3,96.9l89.6-33.4l16.2-35.4
			c17.6-3.6,33-15.3,41-32.9l19-41.6L254.2,491.7z"/>
		<g id="XMLID_22_">
			<path id="XMLID_25_" class="st6" d="M350.2,502.3c1-8.8-3.6-17.6-12.1-21.5c-2.5-1.2-5.2-1.8-7.8-1.9l0.4-0.8
				c2.3-5.1,2.5-10.8,0.6-16c-1.9-5.2-5.8-9.4-10.9-11.7c-2.5-1.1-5.1-1.8-7.8-1.9l16.3-35.7c2.3-5.1,2.5-10.8,0.6-16
				c-1.9-5.2-5.8-9.4-10.9-11.7c-10.5-4.8-22.9-0.2-27.7,10.3l-59.8,130.9c-8.2,18-8,38.1,0.7,55.5l-43,94c-1.5,3.3-0.1,7.2,3.2,8.7
				c3.3,1.5,7.2,0.1,8.7-3.2l44.3-96.9c0.9-1.9,0.8-4.1-0.2-5.9c-8.1-14.4-8.7-31.4-1.8-46.6L302.9,401c0.9-1.9,2.4-3.4,4.4-4.1
				s4.1-0.7,6,0.2c3.9,1.8,5.7,6.5,3.9,10.4l-36.6,80.1c-1.5,3.3-0.1,7.2,3.2,8.7c3.3,1.5,7.2,0.1,8.7-3.2l12.2-26.8c0,0,0,0,0,0
				c1.8-3.9,6.5-5.7,10.4-3.9c1.9,0.9,3.4,2.4,4.1,4.4c0.7,2,0.7,4.1-0.2,6l-8.4,18.3c0,0,0,0.1-0.1,0.1c0,0,0,0,0,0.1l-5.9,12.9
				c-1.5,3.3-0.1,7.2,3.2,8.7c3.3,1.5,7.2,0.1,8.7-3.2l6-13c0.9-1.9,2.4-3.3,4.4-4c2-0.7,4.1-0.7,6,0.2c1.9,0.9,3.4,2.4,4.1,4.4
				c0.7,2,0.7,4.1-0.2,6l-5.2,11.3c0,0,0,0.1,0,0.1c0,0,0,0,0,0l-2.8,6.1c-1.5,3.3-0.1,7.2,3.2,8.7c3.3,1.5,7.2,0.1,8.7-3.2l2.8-6.2
				c0.9-1.9,2.4-3.3,4.4-4c2-0.7,4.1-0.7,6,0.2c1.9,0.9,3.4,2.4,4.1,4.4c0.7,2,0.7,4.1-0.2,6l-21.8,47.7
				c-7,15.2-20.2,25.9-36.4,29.2c-2,0.4-3.8,1.8-4.6,3.7l-16.2,35.4c-1.5,3.3-0.1,7.2,3.2,8.7c1.6,0.7,3.4,0.8,5,0.2
				c1.6-0.6,2.9-1.8,3.7-3.4l14.9-32.5c18.8-4.9,34.1-17.7,42.4-35.8l21.8-47.7c2.3-5.1,2.5-10.8,0.6-16s-5.8-9.4-10.9-11.7
				C356.3,503,353.3,502.3,350.2,502.3z"/>
			<path id="XMLID_24_" class="st6" d="M341.5,335.5c-37.9-17.3-82.8-0.6-100.1,37.3c-10.4,22.9-8.9,49.3,4.2,70.8
				c1.9,3.1,5.9,4.1,9,2.2c3.1-1.9,4.1-5.9,2.2-9c-10.8-17.8-12.2-39.7-3.5-58.6c14.3-31.3,51.5-45.2,82.8-30.8
				c15.2,6.9,26.7,19.4,32.6,35c5.8,15.6,5.2,32.6-1.7,47.8c-4.8,10.5-12.4,19.5-22,25.9c-3,2-3.8,6.1-1.8,9.1
				c1.7,2.6,4.9,3.5,7.7,2.5c0.5-0.2,0.9-0.4,1.4-0.7c11.6-7.8,20.8-18.6,26.6-31.3c8.4-18.3,9.1-38.9,2.1-57.8
				C373.8,358.9,359.8,343.9,341.5,335.5z"/>
			<path id="XMLID_23_" class="st6" d="M342.5,426.2c1.6,0.7,3.4,0.8,5,0.2c1.6-0.6,2.9-1.8,3.7-3.4c10.4-22.7,0.4-49.6-22.3-59.9
				c-11-5-23.3-5.5-34.6-1.3c-11.3,4.2-20.3,12.6-25.3,23.6c-1.5,3.3-0.1,7.2,3.2,8.7c3.3,1.5,7.2,0.1,8.7-3.2
				c3.6-7.8,10-13.8,18-16.8c8.1-3,16.8-2.7,24.6,0.9c16.1,7.4,23.3,26.5,15.9,42.6C337.8,420.9,339.3,424.7,342.5,426.2z"/>
		</g>
	</g>
</g>
</svg>
