<?xml version="1.0" encoding="utf-8"?>
<!-- Generator: Adobe Illustrator 22.0.0, SVG Export Plug-In . SVG Version: 6.00 Build 0)  -->
<svg version="1.1" id="Layer_1" xmlns="http://www.w3.org/2000/svg" xmlns:xlink="http://www.w3.org/1999/xlink" x="0px" y="0px"
	 viewBox="0 0 595.3 841.9" style="enable-background:new 0 0 595.3 841.9;" xml:space="preserve">
<style type="text/css">
	.st0{fill:#EF3953;}
	.st1{clip-path:url(#XMLID_2_);fill:#A31C46;}
	.st2{fill:#666E79;}
	.st3{opacity:0.2;}
	.st4{fill:#010101;}
	.st5{fill:#F2F2F2;}
	.st6{fill:#6899D1;}
	.st7{fill:#FFFFFF;}
	.st8{opacity:0.3;}
	.st9{opacity:0.5;}
	.st10{fill:#3B3947;}
</style>
<g>
	<g id="XMLID_207_">
		<circle id="XMLID_208_" class="st0" cx="292.8" cy="440.1" r="196"/>
	</g>
	<g>
		<defs>
			<circle id="XMLID_206_" cx="292.8" cy="440.1" r="196"/>
		</defs>
		<clipPath id="XMLID_2_">
			<use xlink:href="#XMLID_206_"  style="overflow:visible;"/>
		</clipPath>
		<path class="st1" d="M269.3,286.2L525,431.1v239.1c-81.9,5.9-142.4-9.4-177-21.2c-53.3-18.1-72.8-37.3-84-54
			c-14.7-21.8-18.7-44.5-19.9-58.8c0-83.3,0-166.7,0-250H269.3z"/>
	</g>
	<rect x="370.2" y="422.8" class="st2" width="10.5" height="123.5"/>
	<g class="st3">
		<path class="st4" d="M380.8,519.5c-2.6-6.5-6.2-12.5-10.5-17.8v20c3.4,7.5,5.3,15.8,5.3,24.6h5.3V519.5z"/>
	</g>
	<g>
		<rect x="359.7" y="312.5" class="st5" width="31.5" height="31.5"/>
		<rect x="217.9" y="286.2" class="st5" width="52.5" height="57.8"/>
	</g>
	<rect x="354.5" y="344" class="st6" width="42" height="68.3"/>
	<path class="st2" d="M228.4,433.3v10.5c0,2.9,2.4,5.3,5.3,5.3h21c2.9,0,5.3-2.4,5.3-5.3v-10.5H228.4z"/>
	<g class="st3">
		<path class="st4" d="M228.4,433.3v10.5c0,2.9,2.4,5.3,5.3,5.3h21c2.9,0,5.3-2.4,5.3-5.3v-10.5H228.4z"/>
	</g>
	<g class="st3">
		<path class="st7" d="M233.6,443.8v-5.3h-5.3v5.3c0,2.9,2.4,5.3,5.3,5.3h5.3C236,449.1,233.6,446.7,233.6,443.8z"/>
	</g>
	<g class="st3">
		<path class="st4" d="M254.6,443.8v-5.3h5.3v5.3c0,2.9-2.4,5.3-5.3,5.3h-5.3C252.3,449.1,254.6,446.7,254.6,443.8z"/>
	</g>
	<g class="st3">
		<rect x="228.4" y="433.3" class="st4" width="31.5" height="5.3"/>
	</g>
	<path class="st2" d="M365,412.3v5.3c0,2.9,2.4,5.3,5.3,5.3h10.5c2.9,0,5.3-2.4,5.3-5.3v-5.3H365z"/>
	<g class="st3">
		<path class="st4" d="M365,412.3v5.3c0,2.9,2.4,5.3,5.3,5.3h10.5c2.9,0,5.3-2.4,5.3-5.3v-5.3H365z"/>
	</g>
	<g class="st3">
		<rect x="365" y="412.3" class="st4" width="21" height="5.3"/>
	</g>
	<path class="st2" d="M309.8,475.3c-25.6,0-48,13.6-60.4,33.9v-60.2h-10.5v97.2c0,39.2,31.8,70.9,70.9,70.9s70.9-31.8,70.9-70.9
		C380.8,507.1,349,475.3,309.8,475.3z M309.8,606.7c-33.4,0-60.4-27.1-60.4-60.4c0-33.4,27.1-60.4,60.4-60.4
		c33.4,0,60.4,27.1,60.4,60.4C370.2,579.7,343.2,606.7,309.8,606.7z"/>
	<g class="st8">
		<path class="st5" d="M312.4,606.6c0.9,0,1.7,0.1,2.6,0.1c33.4,0,60.4-27.1,60.4-60.4c0-33.4-27.1-60.4-60.4-60.4
			c-0.9,0-1.7,0.1-2.6,0.1c32.1,1.4,57.8,27.8,57.8,60.3C370.2,578.8,344.6,605.2,312.4,606.6z"/>
		<path class="st5" d="M244.1,546.3v-92h-5.3v92c0,39.2,31.8,70.9,70.9,70.9c0.9,0,1.7-0.1,2.6-0.1
			C274.5,615.7,244.1,584.6,244.1,546.3z"/>
	</g>
	<path class="st6" d="M217.9,344h52.5h10.5v78.8c0,5.8-4.7,10.5-10.5,10.5h-52.5c-5.8,0-10.5-4.7-10.5-10.5V344H217.9z"/>
	<g class="st8">
		<path class="st7" d="M217.9,422.8V344h-10.5v78.8c0,5.8,4.7,10.5,10.5,10.5h10.5C222.5,433.3,217.9,428.6,217.9,422.8z"/>
	</g>
	<g class="st3">
		<path class="st4" d="M270.4,422.8V344h10.5v78.8c0,5.8-4.7,10.5-10.5,10.5h-10.5C265.7,433.3,270.4,428.6,270.4,422.8z"/>
	</g>
	<rect x="228.4" y="307.2" class="st2" width="10.5" height="10.5"/>
	<g class="st3">
		<rect x="228.4" y="307.2" class="st4" width="5.3" height="10.5"/>
	</g>
	<rect x="249.4" y="307.2" class="st2" width="10.5" height="10.5"/>
	<g class="st3">
		<rect x="249.4" y="307.2" class="st4" width="5.3" height="10.5"/>
	</g>
	<g class="st3">
		<rect x="217.9" y="338.7" class="st4" width="52.5" height="5.3"/>
	</g>
	<g class="st3">
		<rect x="359.7" y="338.7" class="st4" width="31.5" height="5.3"/>
	</g>
	<g class="st9">
		<rect x="217.9" y="286.2" class="st7" width="5.3" height="52.5"/>
	</g>
	<g class="st3">
		<rect x="265.1" y="286.2" class="st4" width="5.3" height="52.5"/>
	</g>
	<g class="st3">
		<rect x="386" y="312.5" class="st4" width="5.3" height="26.3"/>
	</g>
	<g class="st9">
		<rect x="359.7" y="312.5" class="st7" width="5.3" height="26.3"/>
	</g>
	<g class="st8">
		<rect x="354.5" y="344" class="st7" width="5.3" height="68.3"/>
	</g>
	<g class="st3">
		<rect x="391.3" y="344" class="st4" width="5.3" height="68.3"/>
	</g>
	<g class="st3">
		<rect x="238.9" y="449.1" class="st4" width="10.5" height="5.3"/>
	</g>
	<g class="st3">
		<rect x="370.2" y="422.8" class="st4" width="10.5" height="5.3"/>
	</g>
	<g class="st8">
		<path class="st7" d="M375.5,509.3v-81.2h-5.3v73.7C372.2,504.1,373.9,506.7,375.5,509.3z"/>
	</g>
	<g class="st3">
		<path class="st4" d="M254.6,501.8c-1.9,2.4-3.7,4.8-5.3,7.4v37c0-8.8,1.9-17.1,5.3-24.6V501.8z"/>
	</g>
	<g>
		<path class="st10" d="M280.9,425.4c-1.5,0-2.6-1.2-2.6-2.6v-76.2H210v76.2c0,1.5-1.2,2.6-2.6,2.6s-2.6-1.2-2.6-2.6V344
			c0-1.5,1.2-2.6,2.6-2.6h73.6c1.5,0,2.6,1.2,2.6,2.6v78.8C283.5,424.3,282.4,425.4,280.9,425.4z"/>
		<path class="st10" d="M217.9,341.4c-1.5,0-2.6-1.2-2.6-2.6v-52.5c0-1.5,1.2-2.6,2.6-2.6s2.6,1.2,2.6,2.6v52.5
			C220.5,340.2,219.3,341.4,217.9,341.4z"/>
		<path class="st10" d="M270.4,288.8h-52.5c-1.5,0-2.6-1.2-2.6-2.6s1.2-2.6,2.6-2.6h52.5c1.5,0,2.6,1.2,2.6,2.6
			C273,287.6,271.9,288.8,270.4,288.8z"/>
		<path class="st10" d="M270.4,341.4c-1.5,0-2.6-1.2-2.6-2.6v-52.5c0-1.5,1.2-2.6,2.6-2.6s2.6,1.2,2.6,2.6v52.5
			C273,340.2,271.9,341.4,270.4,341.4z"/>
		<path class="st10" d="M238.9,320.3h-10.5c-1.5,0-2.6-1.2-2.6-2.6v-10.5c0-1.5,1.2-2.6,2.6-2.6h10.5c1.5,0,2.6,1.2,2.6,2.6v10.5
			C241.5,319.2,240.3,320.3,238.9,320.3z M231,315.1h5.3v-5.3H231V315.1z"/>
		<path class="st10" d="M259.9,320.3h-10.5c-1.5,0-2.6-1.2-2.6-2.6v-10.5c0-1.5,1.2-2.6,2.6-2.6h10.5c1.5,0,2.6,1.2,2.6,2.6v10.5
			C262.5,319.2,261.3,320.3,259.9,320.3z M252,315.1h5.3v-5.3H252V315.1z"/>
		<path class="st10" d="M217.9,435.9c-7.2,0-13.1-5.9-13.1-13.1c0-1.5,1.2-2.6,2.6-2.6c1.5,0,2.6,1.2,2.6,2.6c0,4.3,3.5,7.9,7.9,7.9
			c1.5,0,2.6,1.2,2.6,2.6C220.5,434.8,219.3,435.9,217.9,435.9z"/>
		<path class="st10" d="M270.4,435.9c-1.5,0-2.6-1.2-2.6-2.6s1.2-2.6,2.6-2.6c4.3,0,7.9-3.5,7.9-7.9c0-1.5,1.2-2.6,2.6-2.6
			c1.5,0,2.6,1.2,2.6,2.6C283.5,430,277.6,435.9,270.4,435.9z"/>
		<path class="st10" d="M270.4,435.9h-52.5c-1.5,0-2.6-1.2-2.6-2.6s1.2-2.6,2.6-2.6h52.5c1.5,0,2.6,1.2,2.6,2.6
			C273,434.8,271.9,435.9,270.4,435.9z"/>
		<path class="st10" d="M228.4,446.4c-1.5,0-2.6-1.2-2.6-2.6v-5.3c0-1.5,1.2-2.6,2.6-2.6c1.5,0,2.6,1.2,2.6,2.6v5.3
			C231,445.3,229.8,446.4,228.4,446.4z"/>
		<path class="st10" d="M259.9,446.4c-1.5,0-2.6-1.2-2.6-2.6v-5.3c0-1.5,1.2-2.6,2.6-2.6s2.6,1.2,2.6,2.6v5.3
			C262.5,445.3,261.3,446.4,259.9,446.4z"/>
		<path class="st10" d="M233.6,451.7c-4.3,0-7.9-3.5-7.9-7.9c0-1.5,1.2-2.6,2.6-2.6c1.5,0,2.6,1.2,2.6,2.6c0,1.4,1.2,2.6,2.6,2.6
			c1.5,0,2.6,1.2,2.6,2.6C236.2,450.5,235.1,451.7,233.6,451.7z"/>
		<path class="st10" d="M254.6,451.7c-1.5,0-2.6-1.2-2.6-2.6c0-1.5,1.2-2.6,2.6-2.6c1.4,0,2.6-1.2,2.6-2.6c0-1.5,1.2-2.6,2.6-2.6
			s2.6,1.2,2.6,2.6C262.5,448.2,259,451.7,254.6,451.7z"/>
		<path class="st10" d="M254.6,451.7h-21c-1.5,0-2.6-1.2-2.6-2.6c0-1.5,1.2-2.6,2.6-2.6h21c1.5,0,2.6,1.2,2.6,2.6
			S256.1,451.7,254.6,451.7z"/>
		<path class="st10" d="M238.9,548.9c-1.5,0-2.6-1.2-2.6-2.6v-92c0-1.5,1.2-2.6,2.6-2.6c1.5,0,2.6,1.2,2.6,2.6v92
			C241.5,547.7,240.3,548.9,238.9,548.9z"/>
		<path class="st10" d="M249.4,548.9c-1.5,0-2.6-1.2-2.6-2.6v-92c0-1.5,1.2-2.6,2.6-2.6c1.5,0,2.6,1.2,2.6,2.6v92
			C252,547.7,250.8,548.9,249.4,548.9z"/>
		<path class="st10" d="M380.8,514.8c-1.5,0-2.6-1.2-2.6-2.6v-84.1c0-1.5,1.2-2.6,2.6-2.6c1.5,0,2.6,1.2,2.6,2.6v84.1
			C383.4,513.6,382.2,514.8,380.8,514.8z"/>
		<path class="st10" d="M370.2,499c-1.5,0-2.6-1.2-2.6-2.6v-68.3c0-1.5,1.2-2.6,2.6-2.6c1.5,0,2.6,1.2,2.6,2.6v68.3
			C372.9,497.8,371.7,499,370.2,499z"/>
		<path class="st10" d="M244.1,419.3c-1.5,0-2.6-1.2-2.6-2.6v-56.9c0-1.5,1.2-2.6,2.6-2.6c1.5,0,2.6,1.2,2.6,2.6v56.9
			C246.8,418.1,245.6,419.3,244.1,419.3z"/>
		<path class="st10" d="M257.3,393.9c-1.5,0-2.6-1.2-2.6-2.6v-15.8c0-1.5,1.2-2.6,2.6-2.6c1.5,0,2.6,1.2,2.6,2.6v15.8
			C259.9,392.7,258.7,393.9,257.3,393.9z"/>
		<path class="st10" d="M249.4,399.2c-0.8,0-1.7-0.4-2.2-1.2c-0.8-1.2-0.5-2.8,0.7-3.6l7.9-5.3c1.2-0.8,2.8-0.5,3.6,0.7
			c0.8,1.2,0.5,2.8-0.7,3.6l-7.9,5.3C250.4,399,249.9,399.2,249.4,399.2z"/>
		<path class="st10" d="M231,404.4c-1.5,0-2.6-1.2-2.6-2.6V386c0-1.5,1.2-2.6,2.6-2.6c1.5,0,2.6,1.2,2.6,2.6v15.8
			C233.6,403.2,232.4,404.4,231,404.4z"/>
		<path class="st10" d="M238.9,409.7c-0.5,0-1-0.1-1.5-0.4l-7.9-5.3c-1.2-0.8-1.5-2.4-0.7-3.6c0.8-1.2,2.4-1.5,3.6-0.7l7.9,5.3
			c1.2,0.8,1.5,2.4,0.7,3.6C240.6,409.3,239.7,409.7,238.9,409.7z"/>
		<path class="st10" d="M238.9,367.6c-0.7,0-1.3-0.3-1.9-0.8c-1-1-1-2.7,0-3.7l5.3-5.3c1-1,2.7-1,3.7,0s1,2.7,0,3.7l-5.3,5.3
			C240.2,367.4,239.5,367.6,238.9,367.6z"/>
		<path class="st10" d="M249.4,367.6c-0.7,0-1.3-0.3-1.9-0.8l-5.3-5.3c-1-1-1-2.7,0-3.7c1-1,2.7-1,3.7,0l5.3,5.3c1,1,1,2.7,0,3.7
			C250.7,367.4,250.1,367.6,249.4,367.6z"/>
		<path class="st10" d="M370.2,425.4c-4.3,0-7.9-3.5-7.9-7.9c0-1.5,1.2-2.6,2.6-2.6s2.6,1.2,2.6,2.6c0,1.4,1.2,2.6,2.6,2.6
			c1.5,0,2.6,1.2,2.6,2.6S371.7,425.4,370.2,425.4z"/>
		<path class="st10" d="M380.8,425.4c-1.5,0-2.6-1.2-2.6-2.6s1.2-2.6,2.6-2.6c1.4,0,2.6-1.2,2.6-2.6c0-1.5,1.2-2.6,2.6-2.6
			s2.6,1.2,2.6,2.6C388.6,421.9,385.1,425.4,380.8,425.4z"/>
		<path class="st10" d="M380.8,425.4h-10.5c-1.5,0-2.6-1.2-2.6-2.6s1.2-2.6,2.6-2.6h10.5c1.5,0,2.6,1.2,2.6,2.6
			S382.2,425.4,380.8,425.4z"/>
		<path class="st10" d="M396.5,414.9h-42c-1.5,0-2.6-1.2-2.6-2.6s1.2-2.6,2.6-2.6h42c1.5,0,2.6,1.2,2.6,2.6S398,414.9,396.5,414.9z"
			/>
		<path class="st10" d="M396.5,414.9c-1.5,0-2.6-1.2-2.6-2.6V344c0-1.5,1.2-2.6,2.6-2.6c1.5,0,2.6,1.2,2.6,2.6v68.3
			C399.1,413.7,398,414.9,396.5,414.9z"/>
		<path class="st10" d="M354.5,414.9c-1.5,0-2.6-1.2-2.6-2.6V344c0-1.5,1.2-2.6,2.6-2.6c1.5,0,2.6,1.2,2.6,2.6v68.3
			C357.1,413.7,355.9,414.9,354.5,414.9z"/>
		<path class="st10" d="M396.5,346.6h-42c-1.5,0-2.6-1.2-2.6-2.6c0-1.5,1.2-2.6,2.6-2.6h42c1.5,0,2.6,1.2,2.6,2.6
			S398,346.6,396.5,346.6z"/>
		<path class="st10" d="M359.7,341.4c-1.5,0-2.6-1.2-2.6-2.6v-26.3c0-1.5,1.2-2.6,2.6-2.6s2.6,1.2,2.6,2.6v26.3
			C362.4,340.2,361.2,341.4,359.7,341.4z"/>
		<path class="st10" d="M391.3,315.1h-31.5c-1.5,0-2.6-1.2-2.6-2.6c0-1.5,1.2-2.6,2.6-2.6h31.5c1.5,0,2.6,1.2,2.6,2.6
			C393.9,313.9,392.7,315.1,391.3,315.1z"/>
		<path class="st10" d="M391.3,341.4c-1.5,0-2.6-1.2-2.6-2.6v-26.3c0-1.5,1.2-2.6,2.6-2.6c1.5,0,2.6,1.2,2.6,2.6v26.3
			C393.9,340.2,392.7,341.4,391.3,341.4z"/>
		<path class="st10" d="M370.2,336.1c-1.5,0-2.6-1.2-2.6-2.6V323c0-1.5,1.2-2.6,2.6-2.6c1.5,0,2.6,1.2,2.6,2.6v10.5
			C372.9,334.9,371.7,336.1,370.2,336.1z"/>
		<path class="st10" d="M380.8,336.1c-1.5,0-2.6-1.2-2.6-2.6V323c0-1.5,1.2-2.6,2.6-2.6c1.5,0,2.6,1.2,2.6,2.6v10.5
			C383.4,334.9,382.2,336.1,380.8,336.1z"/>
		<path class="st10" d="M309.8,619.9c-40.6,0-73.6-33-73.6-73.6c0-1.5,1.2-2.6,2.6-2.6c1.5,0,2.6,1.2,2.6,2.6
			c0,37.7,30.6,68.3,68.3,68.3c37.7,0,68.3-30.6,68.3-68.3c0-37.7-30.6-68.3-68.3-68.3c-18.1,0-35.2,7-48.1,19.8c-1,1-2.7,1-3.7,0
			c-1-1-1-2.7,0-3.7c13.9-13.7,32.2-21.3,51.8-21.3c40.6,0,73.6,33,73.6,73.6C383.4,586.9,350.4,619.9,309.8,619.9z"/>
		<path class="st10" d="M309.8,609.3c-34.8,0-63.1-28.3-63.1-63.1c0-1.5,1.2-2.6,2.6-2.6c1.5,0,2.6,1.2,2.6,2.6
			c0,31.9,25.9,57.8,57.8,57.8c31.9,0,57.8-25.9,57.8-57.8c0-31.9-25.9-57.8-57.8-57.8c-19.1,0-36.9,9.4-47.7,25.1
			c-0.6,0.8-1.1,1.6-1.6,2.4c-0.8,1.2-2.4,1.6-3.6,0.8c-1.2-0.8-1.6-2.4-0.8-3.6c0.5-0.9,1.1-1.7,1.7-2.6
			c11.8-17.2,31.2-27.4,52-27.4c34.8,0,63.1,28.3,63.1,63.1S344.6,609.3,309.8,609.3z"/>
		<path class="st10" d="M386,372.9h-21c-1.5,0-2.6-1.2-2.6-2.6c0-1.5,1.2-2.6,2.6-2.6h21c1.5,0,2.6,1.2,2.6,2.6
			C388.6,371.7,387.5,372.9,386,372.9z"/>
		<path class="st10" d="M386,383.4h-21c-1.5,0-2.6-1.2-2.6-2.6c0-1.5,1.2-2.6,2.6-2.6h21c1.5,0,2.6,1.2,2.6,2.6
			C388.6,382.2,387.5,383.4,386,383.4z"/>
	</g>
</g>
</svg>
