<?xml version="1.0" encoding="utf-8"?>
<!-- Generator: Adobe Illustrator 22.0.0, SVG Export Plug-In . SVG Version: 6.00 Build 0)  -->
<svg version="1.1" id="Layer_1" xmlns="http://www.w3.org/2000/svg" xmlns:xlink="http://www.w3.org/1999/xlink" x="0px" y="0px"
	 viewBox="0 0 595.3 841.9" style="enable-background:new 0 0 595.3 841.9;" xml:space="preserve">
<style type="text/css">
	.st0{fill:#EF3953;}
	.st1{clip-path:url(#XMLID_2_);fill:#A31C46;}
	.st2{fill:#4D7FC1;}
	.st3{fill:#3262AE;}
	.st4{fill:#FFFFFF;}
	.st5{fill:#E6E7E7;}
	.st6{fill:#FEDA46;}
	.st7{fill:#F2F2F2;}
</style>
<g id="XMLID_203_">
	<circle id="XMLID_204_" class="st0" cx="272.3" cy="450.1" r="181"/>
</g>
<g>
	<defs>
		<circle id="XMLID_202_" cx="272.3" cy="450.1" r="181"/>
	</defs>
	<clipPath id="XMLID_2_">
		<use xlink:href="#XMLID_202_"  style="overflow:visible;"/>
	</clipPath>
	<path class="st1" d="M351.9,338.9L650.4,569c-0.1,115-0.2,230-0.4,345C502.7,796.4,355.4,678.8,208.1,561.3
		C256,487.1,303.9,413,351.9,338.9z"/>
</g>
<polygon class="st2" points="262,534.3 262,516.3 280,516.3 280,489.4 208.1,489.4 208.1,561.3 280,561.3 280,534.3 "/>
<rect x="208.1" y="338.9" class="st2" width="71.9" height="31.4"/>
<polygon class="st3" points="280,516.3 297.9,516.3 297.9,534.3 280,534.3 280,561.3 351.9,561.3 351.9,489.4 280,489.4 "/>
<rect x="280" y="338.9" class="st3" width="71.9" height="31.4"/>
<rect x="208.1" y="370.3" class="st4" width="71.9" height="119.1"/>
<rect x="280" y="370.3" class="st5" width="71.9" height="119.1"/>
<polygon class="st6" points="262,534.3 280,534.3 297.9,534.3 297.9,516.3 280,516.3 262,516.3 "/>
<path class="st7" d="M374.3,461.3c0-4.2,0.6-5.9,1.6-8.9c1.3-3.9,3.1-9.2,3.1-18.9c0-9.7-1.8-15-3.1-18.9c-1-3-1.6-4.7-1.6-8.9h-9
	c0,9.7,1.8,15,3.1,18.9c1,3,1.6,4.7,1.6,8.9c0,4.2-0.6,5.9-1.6,8.9c-1.3,3.9-3.1,9.2-3.1,18.9c0,9.7,1.8,15,3.1,18.9
	c1,3,1.6,4.7,1.6,8.9c0,4.2-0.6,5.9-1.6,8.9c-1.3,3.9-3.1,9.2-3.1,18.9l9,0c0-4.2,0.6-5.9,1.6-8.9c1.3-3.9,3.1-9.2,3.1-18.9
	c0-9.7-1.8-15-3.1-18.9C374.9,467.2,374.3,465.5,374.3,461.3z"/>
<path class="st7" d="M194.6,405.7l-11.8,0c0,4.2-0.7,5.9-2.1,8.9c-1.7,3.9-4.1,9.2-4.1,18.9s2.4,15,4.1,18.9c1.3,3,2.1,4.7,2.1,8.9
	c0,4.2-0.7,5.9-2.1,8.9c-1.7,3.9-4.1,9.2-4.1,18.9c0,9.7,2.4,15,4.1,18.9c1.3,3,2.1,4.7,2.1,8.9h11.8c0-9.7-2.4-15-4.1-18.9
	c-1.3-3-2.1-4.7-2.1-8.9c0-4.2,0.7-5.9,2.1-8.9c1.7-3.9,4.1-9.2,4.1-18.9c0-9.7-2.4-15-4.1-18.9c-1.3-3-2.1-4.7-2.1-8.9
	c0-4.2,0.7-5.9,2.1-8.9C192.3,420.7,194.6,415.4,194.6,405.7z"/>
</svg>
