<?xml version="1.0" encoding="utf-8"?>
<!-- Generator: Adobe Illustrator 22.0.0, SVG Export Plug-In . SVG Version: 6.00 Build 0)  -->
<svg version="1.1" id="Layer_1" xmlns="http://www.w3.org/2000/svg" xmlns:xlink="http://www.w3.org/1999/xlink" x="0px" y="0px"
	 viewBox="0 0 595.3 841.9" style="enable-background:new 0 0 595.3 841.9;" xml:space="preserve">
<style type="text/css">
	.st0{fill:#FAAE20;}
	.st1{clip-path:url(#XMLID_2_);fill:#F7932D;}
	.st2{fill:#FFFFFF;}
</style>
<circle id="XMLID_133_" class="st0" cx="293.1" cy="458.4" r="181"/>
<g id="XMLID_130_">
	<defs>
		<circle id="XMLID_131_" cx="293.1" cy="458.4" r="181"/>
	</defs>
	<clipPath id="XMLID_2_">
		<use xlink:href="#XMLID_131_"  style="overflow:visible;"/>
	</clipPath>
	<path id="XMLID_132_" class="st1" d="M303.9,344l203.9,146.1c0,71.9,0,143.8,0,215.7c-68-44.4-135.9-88.7-203.9-133.1V344z"/>
</g>
<path id="XMLID_129_" class="st2" d="M290.7,348.4l-83.4,62.2h-43.2v96.2h43.2l81.6,60.5c0,0,15,12.5,15-0.4c0-13,0-206.5,0-218.3
	C303.9,338.4,290.7,348.4,290.7,348.4z"/>
<path id="XMLID_128_" class="st2" d="M350.3,391.8c-4.3-4.3-11.2-4.3-15.5,0c-4.3,4.3-4.3,11.2,0,15.5c14.1,14.1,21.1,32.5,21.1,51
	c0,18.6-7,37.1-21.1,51.2c-4.3,4.3-4.3,11.3,0,15.6c2.1,2.2,4.9,3.2,7.8,3.2c2.8,0,5.6-1,7.7-3.2c18.4-18.4,27.6-42.6,27.6-66.7
	C378,434.3,368.7,410.2,350.3,391.8z"/>
<path id="XMLID_127_" class="st2" d="M364.5,357.2c-4.2,4.3-4.2,11.3,0,15.6c23.7,23.7,35.6,54.7,35.6,85.7
	c0,31.2-11.8,62.3-35.6,86.1c-4.3,4.3-4.2,11.3,0,15.6c2.1,2.1,5,3.2,7.8,3.2c2.8,0,5.6-1.1,7.8-3.2c28-28.1,42-64.9,42-101.7
	c0-36.6-14.1-73.3-42-101.3C375.8,352.9,368.9,352.9,364.5,357.2z"/>
</svg>
