<?xml version="1.0" encoding="utf-8"?>
<!-- Generator: Adobe Illustrator 22.0.0, SVG Export Plug-In . SVG Version: 6.00 Build 0)  -->
<svg version="1.1" id="Layer_1" xmlns="http://www.w3.org/2000/svg" xmlns:xlink="http://www.w3.org/1999/xlink" x="0px" y="0px"
	 viewBox="0 0 595.3 841.9" style="enable-background:new 0 0 595.3 841.9;" xml:space="preserve">
<style type="text/css">
	.st0{fill:#273D7B;}
	.st1{clip-path:url(#XMLID_2_);fill:#1A1448;}
	.st2{fill:#FFFFFF;}
	.st3{fill:#C8E9F6;}
</style>
<circle id="XMLID_128_" class="st0" cx="285" cy="407.8" r="181"/>
<g id="XMLID_125_">
	<defs>
		<circle id="XMLID_126_" cx="285" cy="407.8" r="181"/>
	</defs>
	<clipPath id="XMLID_2_">
		<use xlink:href="#XMLID_126_"  style="overflow:visible;"/>
	</clipPath>
	<polygon id="XMLID_127_" class="st1" points="285.5,299.7 492.8,407.8 492.8,613.5 285.5,540.9 	"/>
</g>
<g id="XMLID_120_">
	<path id="XMLID_124_" class="st2" d="M285.5,492.7c-13.3,0-24.1,10.8-24.1,24.1c0,13.3,10.8,24.1,24.1,24.1
		c13.3,0,24.1-10.8,24.1-24.1C309.6,503.5,298.8,492.7,285.5,492.7z"/>
	<path id="XMLID_123_" class="st2" d="M422.4,346.2l-19.1,26.4c-31.3-24.9-72.6-39.4-113.4-40.3h-4.3
		c-42.4-0.3-85.7,14.3-118.1,40.3l-19.3-26.4l6.6-4.8c36.8-26.8,84.2-41.9,130.8-41.6C329.7,300,378.6,314.3,422.4,346.2z"/>
	<path id="XMLID_122_" class="st2" d="M384.6,398.1l-19.1,26.5c-21.4-18-51-28.3-80-28.3h-0.6c-28.6,0.2-58.3,10.4-79.5,28.3
		L186,398.1l6.4-4.7c26.8-19.6,61.5-29.4,93-29.4s65.8,9.8,92.7,29.4L384.6,398.1z"/>
	<path id="XMLID_121_" class="st2" d="M346.8,450.1l-19.3,26.5c-10.3-9.8-26-15.1-38.4-15.9c-1.3,0-2.4-0.2-3.7-0.2
		c-13.5,0-31.2,5-42.4,15.9l-19.3-26.4l6.4-4.8c15.4-11.2,36.3-17.4,55.3-17C304.3,428.8,326.9,435.5,346.8,450.1z"/>
</g>
<g id="XMLID_5_">
	<path id="XMLID_119_" class="st3" d="M309.6,516.8c0,13.3-10.8,24.1-24.1,24.1v-48.2C298.8,492.7,309.6,503.5,309.6,516.8z"/>
	<path id="XMLID_118_" class="st3" d="M285.5,428.3c18.8,0.5,41.4,7.2,61.3,21.9l-19.3,26.5c-10.3-9.8-26-15.1-38.4-15.9
		c-1.3,0-2.4-0.2-3.7-0.2L285.5,428.3L285.5,428.3z"/>
	<path id="XMLID_117_" class="st3" d="M378.2,393.4l6.4,4.7l-19.1,26.5c-21.4-18-51-28.3-80-28.3V364
		C317,364,351.3,373.8,378.2,393.4z"/>
	<path id="XMLID_116_" class="st3" d="M422.4,346.2l-19.1,26.4c-31.3-24.9-72.6-39.4-113.4-40.3h-4.3v-32.5
		C329.7,300,378.6,314.3,422.4,346.2z"/>
</g>
</svg>
